<?xml version="1.0" encoding="UTF-8"?>
<svg id="Layer_1" xmlns="http://www.w3.org/2000/svg" version="1.1" viewBox="0 0 64 64">
  <!-- Generator: Adobe Illustrator 30.3.0, SVG Export Plug-In . SVG Version: 2.1.3 Build 182)  -->
  <path d="M64,54.597v6.806c0,1.434-1.163,2.597-2.597,2.597H2.597C1.163,64,0,62.837,0,61.403v-6.806c0-1.434,1.163-2.597,2.597-2.597h58.806c1.434,0,2.597,1.163,2.597,2.597ZM55.453,0h-6.806c-1.434,0-2.597,1.163-2.597,2.597v41.554c0,1.434,1.163,2.597,2.597,2.597h6.806c1.434,0,2.597-1.163,2.597-2.597V2.597C58.05,1.163,56.888,0,55.453,0ZM15.353,20h-6.806c-1.434,0-2.597,1.163-2.597,2.597v21.554c0,1.434,1.163,2.597,2.597,2.597h6.806c1.434,0,2.597-1.163,2.597-2.597v-21.554c0-1.434-1.163-2.597-2.597-2.597ZM35.403,10h-6.806c-1.434,0-2.597,1.163-2.597,2.597v31.554c0,1.434,1.163,2.597,2.597,2.597h6.806c1.434,0,2.597-1.163,2.597-2.597V12.597c0-1.434-1.163-2.597-2.597-2.597Z"/>
</svg>