<?xml version="1.0" encoding="UTF-8"?>
<svg id="Layer_1" xmlns="http://www.w3.org/2000/svg" version="1.1" viewBox="0 0 64 64">
  <!-- Generator: Adobe Illustrator 30.3.0, SVG Export Plug-In . SVG Version: 2.1.3 Build 182)  -->
  <path d="M0,9.403V2.597C0,1.163,1.163,0,2.597,0h58.806c1.434,0,2.597,1.163,2.597,2.597v6.806c0,1.434-1.163,2.597-2.597,2.597H2.597C1.163,12,0,10.837,0,9.403ZM8.547,64h6.806c1.434,0,2.597-1.163,2.597-2.597V19.849c0-1.434-1.163-2.597-2.597-2.597h-6.806c-1.434,0-2.597,1.163-2.597,2.597v41.554c0,1.434,1.163,2.597,2.597,2.597ZM48.647,44h6.806c1.434,0,2.597-1.163,2.597-2.597v-21.554c0-1.434-1.163-2.597-2.597-2.597h-6.806c-1.434,0-2.597,1.163-2.597,2.597v21.554c0,1.434,1.163,2.597,2.597,2.597ZM28.597,54h6.806c1.434,0,2.597-1.163,2.597-2.597v-31.554c0-1.434-1.163-2.597-2.597-2.597h-6.806c-1.434,0-2.597,1.163-2.597,2.597v31.554c0,1.434,1.163,2.597,2.597,2.597Z"/>
</svg>