<?xml version="1.0" encoding="UTF-8"?>
<svg id="Layer_1" xmlns="http://www.w3.org/2000/svg" version="1.1" viewBox="0 0 64 64">
  <!-- Generator: Adobe Illustrator 30.3.0, SVG Export Plug-In . SVG Version: 2.1.3 Build 182)  -->
  <path d="M12,2.597v58.806c0,1.434-1.163,2.597-2.597,2.597H2.597c-1.434,0-2.597-1.163-2.597-2.597V2.597C0,1.163,1.163,0,2.597,0h6.806c1.434,0,2.597,1.163,2.597,2.597ZM61.403,5.95H19.849c-1.434,0-2.597,1.163-2.597,2.597v6.806c0,1.434,1.163,2.597,2.597,2.597h41.554c1.434,0,2.597-1.163,2.597-2.597v-6.806c0-1.434-1.163-2.597-2.597-2.597ZM41.403,46.05h-21.554c-1.434,0-2.597,1.163-2.597,2.597v6.806c0,1.434,1.163,2.597,2.597,2.597h21.554c1.434,0,2.597-1.163,2.597-2.597v-6.806c0-1.434-1.163-2.597-2.597-2.597ZM51.403,26h-31.554c-1.434,0-2.597,1.163-2.597,2.597v6.806c0,1.434,1.163,2.597,2.597,2.597h31.554c1.434,0,2.597-1.163,2.597-2.597v-6.806c0-1.434-1.163-2.597-2.597-2.597Z"/>
</svg>