<?xml version="1.0" encoding="UTF-8"?>
<svg id="Layer_1" xmlns="http://www.w3.org/2000/svg" version="1.1" viewBox="0 0 64 64">
  <!-- Generator: Adobe Illustrator 30.3.0, SVG Export Plug-In . SVG Version: 2.1.3 Build 182)  -->
  <path d="M22.823,24.079v29.07c-.001,1.52-.707,2.863-1.487,4.082-1.772,2.77-4.85,4.304-8.15,4.458-1.464.068-2.947-.224-4.348-.701-.996-.339-1.923-.937-2.761-1.573-1.958-1.484-2.996-3.698-3.357-6.135-.098-2.595.877-5.101,2.799-6.872,3.055-2.814,7.373-3.62,11.391-1.948V12.755c.268-2.299,1.567-3.97,3.709-4.846l26.763-5.508c2.801-.576,5.905,1.36,5.906,4.443v38.946c0,2.325-1.424,4.396-3.089,5.854-3.962,3.469-10.141,3.416-14.035-.043-2.125-1.887-3.144-4.447-2.952-7.211.379-2.869,1.998-5.241,4.481-6.733,2.971-1.786,6.586-1.909,9.843-.582v-17.918c0-.467-.358-.968-.63-1.153-.456-.309-.914-.267-1.47-.15l-21.229,4.457c-.863.181-1.381.853-1.382,1.766Z"/>
</svg>