<?xml version="1.0" encoding="UTF-8"?>
<svg id="Layer_1" xmlns="http://www.w3.org/2000/svg" version="1.1" viewBox="0 0 64 64">
  <!-- Generator: Adobe Illustrator 30.3.0, SVG Export Plug-In . SVG Version: 2.1.3 Build 182)  -->
  <path d="M62,11.712v40.576c0,5.364-4.348,9.712-9.712,9.712h-11.208c2.488-1.352,4.711-3.242,6.462-5.583,3.61-4.823,4.73-10.824,3.073-16.466-1.145-3.896-2.51-6.048-8.254-15.107-1.084-1.708-2.336-3.684-3.79-5.989-.394-.624-1.592-2.521-3.863-3.439-.814-.328-1.699-.495-2.63-.495-2.613,0-4.928,1.197-6.191,3.199-1.693,2.683-3.13,4.944-4.354,6.869-6.043,9.508-7.301,11.487-8.316,15.49-2.104,8.297,1.707,17.073,9.267,21.344.112.063.226.117.338.178h-11.109c-5.364,0-9.712-4.348-9.712-9.712V11.712C2,6.348,6.348,2,11.712,2h40.576c5.364,0,9.712,4.348,9.712,9.712ZM44.859,41.643c-1.085-3.693-2.504-5.542-11.361-19.586-.295-.467-.635-.916-1.033-1.077-.383-.154-1.29.003-1.504.343-9.601,15.207-10.983,16.901-11.928,20.63-1.454,5.733,1.171,11.691,6.401,14.644,10.577,5.973,22.557-4.297,19.426-14.954Z"/>
</svg>