<?xml version="1.0" encoding="UTF-8"?>
<svg id="Layer_1" xmlns="http://www.w3.org/2000/svg" version="1.1" viewBox="0 0 64 64">
  <!-- Generator: Adobe Illustrator 30.3.0, SVG Export Plug-In . SVG Version: 2.1.3 Build 182)  -->
  <path d="M52.288,2H11.712C6.348,2,2.001,6.348,2.001,11.712v40.577c0,5.364,4.348,9.712,9.712,9.712h11.109c-.112-.061-.226-.115-.338-.178-7.56-4.271-11.371-13.047-9.267-21.344,1.015-4.003,2.273-5.982,8.316-15.49,1.224-1.925,2.661-4.186,4.354-6.869,1.263-2.002,3.578-3.199,6.191-3.199.931,0,1.816.167,2.63.495,2.271.918,3.469,2.815,3.863,3.439,1.454,2.305,2.706,4.281,3.79,5.989,5.744,9.059,7.109,11.211,8.254,15.107,1.657,5.642.537,11.643-3.073,16.466-1.751,2.341-3.974,4.231-6.462,5.583h11.208c5.364,0,9.712-4.348,9.712-9.712V11.712c0-5.364-4.348-9.712-9.712-9.712Z"/>
</svg>