<?xml version="1.0" encoding="UTF-8"?>
<svg id="Layer_1" xmlns="http://www.w3.org/2000/svg" version="1.1" viewBox="0 0 64 64">
  <!-- Generator: Adobe Illustrator 30.3.0, SVG Export Plug-In . SVG Version: 2.1.3 Build 182)  -->
  <path d="M32.984,58.807c-8.698,6.369-20.889,4.404-29.527-1.484-.95-.648-1.412-1.5-1.133-2.599s1.162-1.582,2.335-1.67c2.891-.214,5.638-1.643,7.156-4.113,1.973-3.211,2.157-6.933,4.241-10.069,2.485-3.738,6.709-5.709,11.098-5.063l11.862,9.631c1.397,5.858-1.209,11.836-6.033,15.368Z"/>
  <path d="M34.687,34.802l-5.107-4.173c-.343-.28-.012-1.096.192-1.46,3.505-6.235,7.822-11.84,12.715-17.059,1.681-1.793,3.304-3.486,5.111-5.129l4.739-4.307c2.364-2.148,5.849-1.805,7.92.608,1.24,1.445,1.886,3.508,1.251,5.422-2.071,6.242-4.994,12.04-8.494,17.616-2.82,4.492-6.06,8.644-9.592,12.556-.567.628-1.138,1.079-1.899,1.419l-6.836-5.493Z"/>
</svg>