<?xml version="1.0" encoding="UTF-8"?>
<svg id="Layer_1" xmlns="http://www.w3.org/2000/svg" version="1.1" viewBox="0 0 64 64">
  <!-- Generator: Adobe Illustrator 30.3.0, SVG Export Plug-In . SVG Version: 2.1.3 Build 182)  -->
  <path id="btn" d="M7.827,17.367h18.229c-.056.08-.12.153-.172.235-1.691,2.679-3.127,4.937-4.35,6.861-6.047,9.514-7.306,11.494-8.321,15.497h0c-.564,2.222-.691,4.476-.447,6.672h-4.939c-3.957,0-7.165-3.208-7.165-7.165v-14.935c0-3.957,3.208-7.165,7.165-7.165ZM56.174,17.368h-18.285c.32.408.55.764.682.972,1.451,2.302,2.703,4.275,3.785,5.983,5.747,9.062,7.112,11.216,8.257,15.112.698,2.374.897,4.812.632,7.199h4.929c3.957,0,7.165-3.208,7.165-7.165v-14.935c0-3.957-3.208-7.165-7.165-7.165h0Z"/>
</svg>