<?xml version="1.0" encoding="UTF-8"?>
<svg id="Layer_1" xmlns="http://www.w3.org/2000/svg" version="1.1" viewBox="0 0 64 64">
  <!-- Generator: Adobe Illustrator 30.3.0, SVG Export Plug-In . SVG Version: 2.1.3 Build 182)  -->
  <path d="M40.525,27.661l-2.057,2.012c-1.317,1.282-1.431,3.195-.279,4.649l.154.39c.036.091-.267.217-.341.245-1.785.212-3.015,1.513-3.181,3.291l-.026,2.68H6.528c-2.924-.006-5.074-2.49-5.548-5.258v-18.714c.385-2.923,2.619-5.113,5.555-5.365h39.408c3.281-.002,6.087,2.311,6.255,5.705v7.044c-1.348.03-2.615-.085-3.935.054-1.562.164-2.612,1.61-2.799,3.063l-.123.299c-.128.311-1.154-.831-2.632-.881-.76-.026-1.639.251-2.184.785ZM52.269,51.937l.646-2.549,2.34-.975,2.187,1.299c.251.149.712.054.904-.137l1.891-1.887c.278-.278.208-.683.011-1l-1.244-2.005,1-2.349,2.56-.661c.246-.064.455-.501.455-.72v-2.44c0-.397-.254-.745-.663-.853l-2.353-.622c-.286-.897-.577-1.575-.985-2.367l1.264-2.076c.244-.401.18-.784-.185-1.136l-1.631-1.574c-.328-.317-.679-.448-1.104-.191l-2.085,1.26-2.349-.992-.538-2.023c-.14-.527-.395-.997-1.027-.999h-2.261c-.243,0-.799.19-.858.411l-.698,2.604c-.865.304-1.508.581-2.367,1.018l-2.025-1.231c-.353-.215-.747-.259-1.04.033l-1.89,1.89c-.185.185-.219.612-.073.85l1.307,2.149c-.412.805-.736,1.536-1.033,2.398l-2.156.56c-.409.106-.805.416-.804.906v2.401c0,.443.323.713.698.81l2.299.594,1.018,2.346-1.291,2.085c-.166.268-.204.67.047.921l1.886,1.885c.24.24.676.244.954.082l2.139-1.252c.802.415,1.468.716,2.334.985l.63,2.486c.064.251.518.539.808.541h2.48c.237.001.745-.255.801-.473ZM50.242,44.126c-2.467,0-4.466-2-4.466-4.466s2-4.466,4.466-4.466,4.466,2,4.466,4.466-2,4.466-4.466,4.466Z"/>
</svg>