<svg xmlns="http://www.w3.org/2000/svg" viewBox="0 0 23.16 21.297"><path d="M17.3,15.407v-1.891c0-.3-.243-.543-.543-.543H1.192c-.658,0-1.192-.533-1.192-1.192v-2.298c0-.658.533-1.192,1.192-1.192h15.566c.3,0,.543-.243.543-.543v-1.891c0-.484.585-.726.926-.384l4.774,4.774c.212.212.212.556,0,.768l-4.774,4.774c-.342.342-.926.1-.926-.384ZM14.5,0H3.009c-.3,0-.543.243-.543.543v4.926c0,.3.243.543.543.543h11.492c.3,0,.543-.243.543-.543V.543c0-.3-.243-.543-.543-.543ZM3.009,21.297h11.492c.3,0,.543-.243.543-.543v-4.959c0-.3-.243-.543-.543-.543H3.009c-.3,0-.543.243-.543.543v4.959c0,.3.243.543.543.543Z"/></svg>