<?xml version="1.0" encoding="UTF-8"?>
<svg id="Layer_1" xmlns="http://www.w3.org/2000/svg" version="1.1" viewBox="0 0 64 64">
  <!-- Generator: Adobe Illustrator 30.3.0, SVG Export Plug-In . SVG Version: 2.1.3 Build 182)  -->
  <path d="M53.609,47.017c-.484,5.9-3.288,13.053-9.056,14.5-9.765,2.449-18.6,1.202-27.865-1.945,2.319-2.972,3.627-5.881,4.209-9.514.215-1.338.305-1.535.046-1.769-1.918,4.255-4.783,7.43-8.185,9.703-3.467-1.647-4.827-2.646-7.314-4.312-.544-.373-1.034-.807-1.11-1.476-.091-.805.247-1.71,1.123-1.913,4.981-1.155,8.028-5.172,8.742-9.716l.435-2.766h38.233c.515,3.536,1.002,6.045.742,9.208ZM50.35,25.102c-1.08-1.257-2.517-2.405-4.26-2.417h-8.231V5.663c0-4.419-4.474-5.584-6.951-3.399-1.736,1.531-1.302,1.421-1.302,20.385h-8.254c-1.713.014-3.096,1.114-4.104,2.385-1.134,1.447-1.003,1.871-2.224,9.717h37.458c-.965-6.707-1.004-8.029-2.132-9.648Z"/>
</svg>