<?xml version="1.0" encoding="UTF-8"?>
<svg id="Layer_1" xmlns="http://www.w3.org/2000/svg" version="1.1" viewBox="0 0 64 64">
  <!-- Generator: Adobe Illustrator 30.3.0, SVG Export Plug-In . SVG Version: 2.1.3 Build 182)  -->
  <path d="M40.169,32l19.068-19.068c.902-.902.902-2.364,0-3.266l-4.904-4.904c-.902-.902-2.364-.902-3.266,0l-19.068,19.068L12.932,4.763c-.902-.902-2.364-.902-3.266,0l-4.904,4.904c-.902.902-.902,2.364,0,3.266l19.068,19.068L4.763,51.068c-.902.902-.902,2.364,0,3.266l4.904,4.904c.902.902,2.364.902,3.266,0l19.068-19.068,19.068,19.068c.902.902,2.364.902,3.266,0l4.904-4.904c.902-.902.902-2.364,0-3.266l-19.068-19.068Z"/>
</svg>