<?xml version="1.0" encoding="UTF-8"?>
<svg id="Layer_1" xmlns="http://www.w3.org/2000/svg" version="1.1" viewBox="0 0 64 64">
  <!-- Generator: Adobe Illustrator 30.3.0, SVG Export Plug-In . SVG Version: 2.1.3 Build 182)  -->
  <path d="M13.391,45.708s-10.329-9.792-11.03-10.373c-1.063-.88-1.577-2.119-1.555-3.454.023-1.395.77-2.446,1.79-3.404l11.204-10.529c1.271-1.194,3.115-1.364,4.599-.551s2.226,2.335,2.056,4.08c-.128,1.314-.898,2.142-1.822,3.009l-8.001,7.499,8.358,7.887c1.594,1.301,1.964,3.699.833,5.423-.701,1.067-1.845,1.695-2.986,1.82-1.347.147-2.457-.475-3.445-1.407ZM60.138,36.731l1.088-1.011c1.206-.908,1.907-2.167,1.965-3.573.064-1.537-.675-2.685-1.799-3.74l-11.153-10.461c-1.271-1.192-3.135-1.376-4.612-.555-1.422.79-2.259,2.378-2.028,4.088.064,1.288.895,2.167,1.802,3.02l7.98,7.511-8.28,7.802c-1.401,1.32-2.002,3.1-1.187,4.936.69,1.554,2.431,2.65,4.235,2.336.739-.129,1.413-.414,2.012-.977l9.978-9.377ZM39.808,17.205c.167-1.85-.841-3.446-2.571-3.889-1.583-.405-3.529.477-4.026,2.211l-8.793,30.67c-.54,1.884.252,3.803,2.145,4.416,1.76.57,3.799-.344,4.357-2.296l8.888-31.112Z"/>
</svg>