<?xml version="1.0" encoding="UTF-8"?>
<svg id="Layer_1" xmlns="http://www.w3.org/2000/svg" version="1.1" viewBox="0 0 64 64">
  <!-- Generator: Adobe Illustrator 30.3.0, SVG Export Plug-In . SVG Version: 2.1.3 Build 182)  -->
  <path d="M50.221,9.39h-1.284v-1.642c0-3.399-2.755-6.154-6.154-6.154H13.779c-3.399,0-6.154,2.755-6.154,6.154v40.708c0,3.399,2.755,6.154,6.154,6.154h1.284v1.642c0,3.399,2.755,6.154,6.154,6.154h29.004c3.399,0,6.154-2.755,6.154-6.154V15.544c0-3.399-2.755-6.154-6.154-6.154ZM52.386,56.252c0,1.194-.972,2.166-2.166,2.166h-29.004c-1.194,0-2.166-.972-2.166-2.166v-1.642h23.732c3.399,0,6.154-2.755,6.154-6.154V13.378h1.284c1.194,0,2.166.972,2.166,2.166v40.708Z"/>
</svg>