<?xml version="1.0" encoding="UTF-8"?>
<svg id="Layer_1" xmlns="http://www.w3.org/2000/svg" version="1.1" viewBox="0 0 64 64">
  <!-- Generator: Adobe Illustrator 30.3.0, SVG Export Plug-In . SVG Version: 2.1.3 Build 182)  -->
  <path d="M53.571,13.655c-1.298-2.158-9.851-4.578-13.17-5.022l-1.783,3.759c-2.86-.427-7.168-.698-9.834-.392l-3.436.395c-.561-1.38-1.077-2.56-1.835-3.745-4.49.735-8.622,2.082-12.533,4.245-1.33,1.885-2.304,3.796-3.304,5.877C3.433,27.603,1.453,37.211,2.006,47.085c2.779,2.643,5.991,4.737,9.532,6.262,1.907.827,3.704,1.497,5.756,2.02,1.325-1.596,2.444-3.254,3.295-5.132-2.087-.79-3.768-1.497-5.506-2.633.535-.593.986-1.032,1.596-1.438,9.085,4.796,21.621,4.862,30.648-.026l1.502,1.307c-.189.351-.682.664-1.077.92l-4.316,1.928c.839,1.871,1.881,3.567,3.311,5.042,5.634-1.444,11.117-4.272,15.267-8.304.576-11.807-2.392-23.317-8.444-33.377ZM25.824,38.339c-1.903,2.272-5.163,2.416-7.164.248-2.232-2.419-2.346-6.387-.249-8.894,1-1.195,2.363-1.791,3.766-1.796,1.474-.006,2.772.68,3.779,1.94,1.936,2.422,1.928,6.043-.133,8.502ZM45.71,38.21c-.928,1.147-2.256,1.92-3.712,1.915-1.5-.005-2.91-.649-3.919-1.909-2.053-2.565-1.942-6.558.415-8.887,1.124-1.11,2.678-1.659,4.202-1.353,2.796.562,4.377,3.214,4.384,5.963.004,1.629-.346,3.004-1.37,4.271Z"/>
</svg>