<?xml version="1.0" encoding="UTF-8"?>
<svg id="Layer_1" xmlns="http://www.w3.org/2000/svg" version="1.1" viewBox="0 0 64 64">
  <!-- Generator: Adobe Illustrator 30.3.0, SVG Export Plug-In . SVG Version: 2.1.3 Build 182)  -->
  <path d="M48.354,3.625h6.806c1.434,0,2.597,1.163,2.597,2.597v51.554c0,1.434-1.163,2.597-2.597,2.597h-6.806c-1.434,0-2.597-1.163-2.597-2.597V6.222c0-1.434,1.163-2.597,2.597-2.597ZM17.657,57.777V6.223c0-1.434-1.163-2.597-2.597-2.597h-6.806c-1.434,0-2.597,1.163-2.597,2.597v51.554c0,1.434,1.163,2.597,2.597,2.597h6.806c1.434,0,2.597-1.163,2.597-2.597ZM25.707,6.223v51.554c0,1.434,1.163,2.597,2.597,2.597h6.806c1.434,0,2.597-1.163,2.597-2.597V6.223c0-1.434-1.163-2.597-2.597-2.597h-6.806c-1.434,0-2.597,1.163-2.597,2.597Z"/>
</svg>