<?xml version="1.0" encoding="UTF-8"?>
<svg id="Layer_1" xmlns="http://www.w3.org/2000/svg" version="1.1" viewBox="0 0 64 64">
  <!-- Generator: Adobe Illustrator 30.3.0, SVG Export Plug-In . SVG Version: 2.1.3 Build 182)  -->
  <path d="M60.082,48.646v6.806c0,1.434-1.163,2.597-2.597,2.597H5.93c-1.434,0-2.597-1.163-2.597-2.597v-6.806c0-1.434,1.163-2.597,2.597-2.597h51.554c1.434,0,2.597,1.163,2.597,2.597ZM5.93,17.95h51.554c1.434,0,2.597-1.163,2.597-2.597v-6.806c0-1.434-1.163-2.597-2.597-2.597H5.93c-1.434,0-2.597,1.163-2.597,2.597v6.806c0,1.434,1.163,2.597,2.597,2.597ZM57.484,26H5.929c-1.434,0-2.597,1.163-2.597,2.597v6.806c0,1.434,1.163,2.597,2.597,2.597h51.554c1.434,0,2.597-1.163,2.597-2.597v-6.806c0-1.434-1.163-2.597-2.597-2.597Z"/>
</svg>