<?xml version="1.0" encoding="UTF-8"?>
<svg id="Layer_1" xmlns="http://www.w3.org/2000/svg" version="1.1" viewBox="0 0 64 64">
  <!-- Generator: Adobe Illustrator 30.3.0, SVG Export Plug-In . SVG Version: 2.1.3 Build 182)  -->
  <path d="M47.878,33.643c1.281.003,2.282.832,3.041,1.668l3.928,4.326c.736.811,1.172,1.877,1.169,3.008v15.572c-.006,2.052-1.945,4.055-4.037,4.055H12.131c-2.178,0-4.15-2.093-4.154-4.228v-15.475c-.003-1.366.661-2.374,1.498-3.297l3.657-4.033c.663-.731,1.675-1.581,2.75-1.588h7.911l2.649,3.328h-9.233c-.597,0-1.205.154-1.6.604-.913,1.042-1.782,1.944-2.703,3.215h38.229l-2.785-3.216c-.337-.389-.926-.6-1.454-.6h-9.331l2.629-3.339h7.683ZM45.438,21.133c.297-.372.32-1.018.169-1.38-.133-.318-.668-.652-1.118-.652h-7.112V3.681c0-1.01-.716-1.888-1.796-1.912-2.413-.055-4.784-.064-7.203.014-.808.026-1.736.788-1.737,1.604v15.714h-7.168c-.49,0-.921.334-1.079.698-.148.341-.184.961.122,1.342l12.111,15.107c.402.502.954.767,1.488.762.639-.006.949-.375,1.414-.958l11.909-14.918Z"/>
</svg>