<?xml version="1.0" encoding="UTF-8"?>
<svg id="Layer_1" xmlns="http://www.w3.org/2000/svg" version="1.1" viewBox="0 0 64 64">
  <!-- Generator: Adobe Illustrator 30.3.0, SVG Export Plug-In . SVG Version: 2.1.3 Build 182)  -->
  <path d="M49.328,60.913h-31.466c-1.313,0-2.416-1.115-3.263-1.919l-8.617-8.202c-.99-.949-2.089-1.841-2.871-2.909-2.276-3.109-1.91-6.961.552-9.809L33.565,3.556c2.432-2.805,6.407-2.828,9.053-.3l16.847,16.054c2.565,2.438,2.971,6.453.543,9.237l-24.506,28.138h14.007c1.067.005,1.661,1.316,1.644,2.189-.015.784-.7,2.04-1.825,2.04ZM29.48,56.666c.65-.311,1.036-.759,1.48-1.268l5.89-6.745-20.339-19.059-9.914,11.531c-1.384,1.61-.89,3.617.512,4.952l9.892,9.42c.394.375.945,1.167,1.53,1.169h10.949Z"/>
</svg>