<?xml version="1.0" encoding="UTF-8"?>
<svg id="Layer_1" xmlns="http://www.w3.org/2000/svg" version="1.1" viewBox="0 0 64 64">
  <!-- Generator: Adobe Illustrator 30.3.0, SVG Export Plug-In . SVG Version: 2.1.3 Build 182)  -->
  <path d="M43.221,27.554c-4.543-3.009-8.089-6.117-11.744-10.108-1.217-1.329-2.28-2.705-3.211-4.226-.911-1.489-2.389-4.058-1.551-4.962.183-.197.724-.426,1.037-.388,3.849.471,8.306,3.402,11.345,5.864l3.066,2.484c.46.373.803.318,1.33.307l5.494-.119c-1.859-2.25-3.909-3.863-6.024-5.64-3.931-3.302-9.837-7.082-14.873-7.583-2.71-.27-4.751,1.047-6.328,3.104l-3.542,4.619c-1.168.301-2.363.137-3.554.273l-2.884.331-1.813.331c-2.473.452-4.89,1.28-6.869,2.823C.889,16.391-.067,19.241.795,21.957c.833,2.625,2.898,3.557,4.731,5.188l-3.572,4.466c-1.375,1.719-2.036,3.825-1.23,6.02.991,2.698,2.654,4.988,4.573,7.183,4.359,4.985,9.412,9.218,15.063,12.679,3.135,1.92,7.05,3.924,10.609,3.211,1.403-.281,2.441-1.346,3.312-2.455l11.797-14.905,2.122-2.908c.154-3.072.293-6.684-1.134-9.322-.875-1.617-2.368-2.581-3.847-3.561ZM5.202,19.94c.106-1.812,3.085-2.814,5.041-3.368,1.312-.26,2.46-.466,4.036-.672-5.764,7.331-5.157,6.587-5.796,7.306-2.246-1.564-3.348-2.127-3.281-3.267ZM31.741,30c-.142,1.399-1.568,1.935-2.811,1.843l-7.34-.544-2.187-.283c-4.758-.616-9.298-1.806-13.637-4.1.835-1.205,1.742-2.328,2.809-3.544.152.023.324.07.537.168,3.462,1.589,7.094,2.616,10.876,3.078l1.962.239,4.318.324,3.189.122c.726.028,1.323.217,1.766.691.47.503.606,1.157.519,2.007Z"/>
  <path d="M63.495,35.496c-.023-2.331-.919-4.339-1.938-6.371-1.034-2.062-2.612-3.701-4.433-5.16-2.129-1.706-4.693-2.594-7.391-3.082h-7.236l-.386.146c-.08.03-.06.257-.049.395l5.17,3.559c2.599,1.767,4.224,4.335,4.863,7.418.54,2.602.696,5.224.507,7.887v9.518c.134,2.406,1.568,4.419,3.665,5.124,2.368.797,4.634.056,6.179-1.869,1.083-1.35,1.195-2.985,1.178-4.727l-.129-12.837Z"/>
</svg>