<?xml version="1.0" encoding="UTF-8"?>
<svg id="Layer_1" xmlns="http://www.w3.org/2000/svg" version="1.1" viewBox="0 0 64 64">
  <!-- Generator: Adobe Illustrator 30.3.0, SVG Export Plug-In . SVG Version: 2.1.3 Build 182)  -->
  <path d="M1.107,32c0,.507.17,1.013.509,1.429l12.697,15.557c1.344,1.646,4.01.696,4.01-1.429v-10.319h27.353v10.319c0,2.125,2.667,3.075,4.01,1.429l12.697-15.557c.339-.416.509-.922.509-1.429s-.17-1.013-.509-1.429l-12.697-15.557c-1.344-1.646-4.01-.696-4.01,1.429v10.319h-27.353v-10.319c0-2.125-2.667-3.075-4.01-1.429L1.616,30.571c-.339.416-.509.922-.509,1.429Z"/>
</svg>