<?xml version="1.0" encoding="UTF-8"?>
<svg id="Layer_1" xmlns="http://www.w3.org/2000/svg" version="1.1" viewBox="0 0 64 64">
  <!-- Generator: Adobe Illustrator 30.3.0, SVG Export Plug-In . SVG Version: 2.1.3 Build 182)  -->
  <path d="M32,1.107c-.507,0-1.013.17-1.429.509l-15.557,12.697c-1.646,1.344-.696,4.01,1.429,4.01h10.319v27.353h-10.319c-2.125,0-3.075,2.667-1.429,4.01l15.557,12.697c.416.339.922.509,1.429.509s1.013-.17,1.429-.509l15.557-12.697c1.646-1.344.696-4.01-1.429-4.01h-10.319v-27.353h10.319c2.125,0,3.075-2.667,1.429-4.01L33.429,1.616c-.416-.339-.922-.509-1.429-.509Z"/>
</svg>