<?xml version="1.0" encoding="UTF-8"?>
<svg id="Layer_1" xmlns="http://www.w3.org/2000/svg" version="1.1" viewBox="0 0 64 64">
  <!-- Generator: Adobe Illustrator 30.3.0, SVG Export Plug-In . SVG Version: 2.1.3 Build 182)  -->
  <path d="M59.717,37.636l-7.297,7.297-12.933-12.933,12.933-12.933,7.297,7.297c1.503,1.503,4.06.289,3.846-1.825l-2.022-19.979c-.054-.534-.292-1.012-.651-1.37-.013-.013-.027-.026-.04-.039s-.026-.027-.039-.04c-.359-.358-.836-.596-1.37-.651L39.461.437c-2.114-.214-3.328,2.343-1.825,3.846l7.297,7.297-12.933,12.933-12.933-12.933,7.297-7.297c1.503-1.503.289-4.06-1.825-3.846L4.56,2.46c-.534.054-1.012.292-1.37.651-.013.013-.026.027-.039.04s-.027.026-.04.039c-.358.359-.596.836-.651,1.37L.437,24.539c-.214,2.114,2.343,3.328,3.846,1.825l7.297-7.297,12.933,12.933-12.933,12.933-7.297-7.297c-1.503-1.503-4.06-.289-3.846,1.825l2.022,19.979c.054.534.292,1.012.651,1.37.013.013.027.026.04.039s.026.027.039.04c.359.358.836.596,1.37.651l19.979,2.022c2.114.214,3.328-2.343,1.825-3.846l-7.297-7.297,12.933-12.933,12.933,12.933-7.297,7.297c-1.503,1.503-.289,4.06,1.825,3.846l19.979-2.022c.534-.054,1.012-.292,1.37-.651.013-.013.026-.027.039-.04s.027-.026.04-.039c.358-.359.596-.836.651-1.37l2.022-19.979c.214-2.114-2.343-3.328-3.846-1.825Z"/>
</svg>