<?xml version="1.0" encoding="UTF-8"?>
<svg id="Layer_1" xmlns="http://www.w3.org/2000/svg" version="1.1" viewBox="0 0 64 64">
  <!-- Generator: Adobe Illustrator 30.3.0, SVG Export Plug-In . SVG Version: 2.1.3 Build 182)  -->
  <path d="M4.845,29.094h54.309c.662,0,1.198.536,1.198,1.198v3.417c0,.662-.536,1.198-1.198,1.198H4.845c-.662,0-1.198-.536-1.198-1.198v-3.417c0-.662.536-1.198,1.198-1.198ZM19.276,42.11l-10.237,16.442c-1.268,2.036.196,4.672,2.594,4.672h40.735c2.398,0,3.862-2.636,2.594-4.672l-10.237-16.442c-.558-.896-1.539-1.441-2.594-1.441h-20.26c-1.056,0-2.036.545-2.594,1.441ZM9.038,5.449l10.237,16.442c.558.896,1.539,1.441,2.594,1.441h20.26c1.056,0,2.036-.545,2.594-1.441l10.237-16.442c1.268-2.036-.196-4.672-2.594-4.672H11.633c-2.398,0-3.862,2.636-2.594,4.672Z"/>
</svg>