<?xml version="1.0" encoding="UTF-8"?>
<svg id="Layer_1" xmlns="http://www.w3.org/2000/svg" version="1.1" viewBox="0 0 64 64">
  <!-- Generator: Adobe Illustrator 30.3.0, SVG Export Plug-In . SVG Version: 2.1.3 Build 182)  -->
  <path d="M34.906,4.845v54.309c0,.662-.536,1.198-1.198,1.198h-3.417c-.662,0-1.198-.536-1.198-1.198V4.845c0-.662.536-1.198,1.198-1.198h3.417c.662,0,1.198.536,1.198,1.198ZM21.89,19.276L5.449,9.038c-2.036-1.268-4.672.196-4.672,2.594v40.735c0,2.398,2.636,3.862,4.672,2.594l16.442-10.237c.896-.558,1.441-1.539,1.441-2.594v-20.26c0-1.056-.545-2.036-1.441-2.594ZM58.551,9.038l-16.442,10.237c-.896.558-1.441,1.539-1.441,2.594v20.26c0,1.056.545,2.036,1.441,2.594l16.442,10.237c2.036,1.268,4.672-.196,4.672-2.594V11.633c0-2.398-2.636-3.862-4.672-2.594Z"/>
</svg>