<?xml version="1.0" encoding="UTF-8"?>
<svg id="Layer_1" xmlns="http://www.w3.org/2000/svg" version="1.1" viewBox="0 0 64 64">
  <!-- Generator: Adobe Illustrator 30.3.0, SVG Export Plug-In . SVG Version: 2.1.3 Build 182)  -->
  <path d="M52.291,56.817H5.626c-1.006,0-1.922-.594-2.5-1.323-.752-.949-.846-2.209-.483-3.372l7.293-23.34c.522-1.67,1.625-2.992,3.453-3.243h46.148c2.155.308,3.418,2.045,3.193,4.245l-7.097,23.693c-.491,1.64-1.523,2.993-3.343,3.341ZM50.726,14.308h-21.805c-.429-.181-.717-.689-.997-1.031l-3.967-4.843c-.559-.682-1.432-1.249-2.369-1.25H6.186c-1.185,0-2.24.531-3.095,1.272-1.098.952-1.545,2.24-1.818,3.706v31.447c1.841-5.514,3.332-10.857,5.103-16.241.459-1.396,1.126-2.594,2.154-3.621,1.355-1.054,2.862-2.056,4.685-2.057h42.426c.669-2.549-.634-7.369-4.914-7.382Z"/>
</svg>