<?xml version="1.0" encoding="UTF-8"?>
<svg id="Layer_1" xmlns="http://www.w3.org/2000/svg" version="1.1" viewBox="0 0 64 64">
  <!-- Generator: Adobe Illustrator 30.3.0, SVG Export Plug-In . SVG Version: 2.1.3 Build 182)  -->
  <path d="M58.266,1.434c1.985.112,3.842,1.439,3.967,3.54l.069,8.877H1.712c.068-2.95-.13-5.871.093-8.7.177-2.244,2.07-3.683,4.138-3.705,5.247.015,51.156-.079,52.323-.013ZM62.305,58.822l-.006-39.512H1.718s-.001,39.58-.001,39.58c.33,2.072,1.707,3.473,3.79,3.7h53.164c2.047-.304,3.485-1.77,3.633-3.768ZM20.757,39.187l-14.69.002-.002-15.521,14.69-.002.002,15.521ZM39.822,23.668v15.522h-15.712v-15.522h15.712ZM57.952,23.666l-.002,15.523-14.721-.002.002-15.523,14.721.002ZM20.758,58.346l-14.694.004-.004-15.745,14.694-.004.004,15.745ZM39.824,58.256h-15.708v-15.651h15.708v15.651ZM57.951,58.347h-14.817v-15.745h14.817v15.745Z"/>
</svg>