<?xml version="1.0" encoding="UTF-8"?>
<svg id="Layer_1" xmlns="http://www.w3.org/2000/svg" version="1.1" viewBox="0 0 64 64">
  <!-- Generator: Adobe Illustrator 30.3.0, SVG Export Plug-In . SVG Version: 2.1.3 Build 182)  -->
  <path d="M58.115,1.482H5.885C3.239,1.482,1.094,3.627,1.094,6.273v51.453c0,2.646,2.145,4.791,4.791,4.791h52.23c2.646,0,4.791-2.145,4.791-4.79V6.273c0-2.646-2.145-4.791-4.791-4.791ZM31.568,55.964c-2.992,0-5.417-2.425-5.417-5.417s2.425-5.417,5.417-5.417,5.417,2.425,5.417,5.417-2.425,5.417-5.417,5.417ZM45.58,25.271c-3.529,7.741-9.903,6.913-10.121,15.722h-8.529c.08-11.174,5.01-11.133,8.593-16.076,6.349-8.782-8.514-13.088-8.625-3.557h-9.752c.312-21.491,36.915-14.63,28.435,3.911Z"/>
</svg>