<?xml version="1.0" encoding="UTF-8"?>
<svg id="Layer_1" xmlns="http://www.w3.org/2000/svg" version="1.1" viewBox="0 0 64 64">
  <!-- Generator: Adobe Illustrator 30.3.0, SVG Export Plug-In . SVG Version: 2.1.3 Build 182)  -->
  <path d="M15.019,40.887H4.664c-1.936-.009-3.684-1.818-3.739-3.77-.096-3.452-.093-6.721,0-10.176.051-1.896,1.728-3.766,3.604-3.782h8.676c2.918-.256,5.099-2.436,7.089-4.527,1.532-1.61,2.695-3.407,2.872-5.692l.076-8.459c.018-1.969,1.935-3.619,3.883-3.618h9.912c2.155.001,3.896,1.874,3.896,3.991v9.78c0,1.984-1.491,3.886-3.528,3.909l-8.77.099c-3.229.037-6.501,3.552-8.429,6.07-.933,1.218-1.375,2.575-1.572,4.098v8.427c-.014,1.946-1.724,3.346-3.615,3.65ZM19.527,54.863l.055-5.361c.018-1.749,1.027-3.221,2.208-4.399l1.72-1.716c1.313-1.31,2.872-2.219,4.758-2.472h8.985c2.172-.318,3.696-2.004,3.701-4.179v-7.279c.003-1.402.292-2.728,1.021-3.933,1.324-2.185,4.651-5.95,7.118-6.004l3.612-.078c1.292-.028,2.353-1.171,2.354-2.461v-5.51c0-1.174-.864-2.101-1.956-2.4h-6.414c-1.071.007-2.018,1.16-2.039,2.174l-.069,3.324c-.051,2.443-2.579,4.729-4.423,6.396-1.323,1.197-2.807,1.987-4.603,2.194h-8.684c-1.959.012-3.631,1.84-3.652,3.761l-.093,8.426c-.032,2.955-2.661,5.524-4.784,7.44-1.104.996-2.383,1.689-3.9,1.717l-5.779.108c-1.233.023-2.386,1.352-2.384,2.58v7.904c.002,1.862,1.795,2.729,3.462,2.718h7.352c1.408-.327,2.417-1.537,2.431-2.949ZM40.968,59.009v-7.921c.007-1.511.663-2.96,1.566-4.151,1.856-2.448,5.191-6.005,8.268-6.024h8.513c1.818-.011,3.825-1.657,3.831-3.557v-10.44c.006-1.895-1.702-3.687-3.625-3.727-3.569-.075-6.98-.097-10.535.012-1.91.058-3.281,1.877-3.574,3.633v8.458c-.019,3.33-3.867,7.004-6.534,8.903-1.434,1.021-3.165,1.258-4.897,1.242l-6.538-.059c-2.091-.019-4.211,1.558-4.21,3.766v10.325c0,1.972,1.927,3.672,3.851,3.666h10.172c2.163-.007,3.703-2.153,3.713-4.127Z"/>
</svg>