<?xml version="1.0" encoding="UTF-8"?>
<svg id="Layer_1" xmlns="http://www.w3.org/2000/svg" version="1.1" viewBox="0 0 64 64">
  <!-- Generator: Adobe Illustrator 30.3.0, SVG Export Plug-In . SVG Version: 2.1.3 Build 182)  -->
  <path d="M63.18,52.412c-.004,3.614-2.766,7.013-6.442,7.014H7.039c-3.249,0-6.211-3.26-6.219-6.459V10.835c.586-3.382,2.813-5.753,6.206-6.261h49.968c3.801.005,6.321,3.865,6.061,7.231-.082,1.062.127,1.823.126,2.78v37.828ZM35.44,41.668l7.523-7.113c1.843-1.979,4.642-2.324,6.674-.466l7.08,5.615V11.017H7.239v33.764l7.227-6.84c2.076-2.077,4.091-4.217,6.475-5.902,1.87-1.322,3.965-.17,5.418,1.181l9.082,8.448ZM46.33,15.667c-3.14,0-5.685,2.545-5.685,5.685s2.545,5.685,5.685,5.685,5.685-2.545,5.685-5.685-2.545-5.685-5.685-5.685Z"/>
</svg>