<?xml version="1.0" encoding="UTF-8"?>
<svg id="Layer_1" xmlns="http://www.w3.org/2000/svg" version="1.1" viewBox="0 0 64 64">
  <!-- Generator: Adobe Illustrator 30.3.0, SVG Export Plug-In . SVG Version: 2.1.3 Build 182)  -->
  <path id="line" d="M4.892,27.856h13.727c-2.542,4.021-3.936,6.329-4.836,8.288H4.892c-2.289,0-4.144-1.855-4.144-4.144s1.855-4.144,4.144-4.144ZM59.107,27.856h-15.258c2.519,3.997,3.89,6.28,4.804,8.288h10.454c2.289,0,4.144-1.855,4.144-4.144s-1.855-4.144-4.144-4.144Z"/>
  <path id="color" d="M32.743,21.524h0c-.295-.467-.635-.916-1.033-1.077-.383-.154-1.29.003-1.504.343-9.601,15.207-10.983,16.901-11.928,20.63-1.454,5.733,1.171,11.691,6.401,14.644,10.577,5.973,22.557-4.297,19.426-14.954-1.085-3.693-2.504-5.542-11.361-19.586Z"/>
</svg>