<?xml version="1.0" encoding="UTF-8"?>
<svg id="Layer_1" xmlns="http://www.w3.org/2000/svg" version="1.1" viewBox="0 0 64 64">
  <!-- Generator: Adobe Illustrator 30.3.0, SVG Export Plug-In . SVG Version: 2.1.3 Build 182)  -->
  <path d="M40.755,33.514c.076-.068,11.101-11.177,11.113-11.19,2.836-2.856,3.42-7.161.742-10.292-2.505-2.929-7.168-3.482-10.176-.774-1.616,1.455-1.678,1.651-7.763,7.809-3.249-1.243-6.48-1.361-9.931-.857,10.766-10.927,10.691-10.986,12.745-12.82,4.307-3.843,10.721-4.598,15.899-2.225,8.659,3.969,12.424,15.914,3.689,24.751-.894.904-9.99,10.163-10.912,11.039-9.355,8.89-23.585,1.454-21.934-4.024.43-1.426,1.781-2.602,3.431-2.76,1.547-.148,2.613.746,3.711,1.63,2.854,2.299,6.669,2.125,9.384-.287ZM21.466,52.782c-2.966,2.649-7.439,2.172-10.014-.791-2.269-2.612-2.375-6.608-.109-9.334.572-.688,9.51-9.953,12.223-12.329,2.956-2.59,7.288-1.892,9.898.639,1.685,1.634,4.168,1.26,5.547-.337,3.789-4.389-3.904-9.158-9.468-9.541-8.663-.596-11.985,4.161-20.208,12.582-2.706,2.771-9.985,8.593-6.409,18.66,3.711,10.447,17.08,12.78,23.763,6.088,10.582-10.595,7.643-7.625,12.36-12.461-3.487.446-6.609.251-9.788-1.022-4.663,4.798-5.846,6.107-7.794,7.846Z"/>
</svg>