<?xml version="1.0" encoding="UTF-8"?>
<svg id="Layer_1" xmlns="http://www.w3.org/2000/svg" version="1.1" viewBox="0 0 64 64">
  <!-- Generator: Adobe Illustrator 30.3.0, SVG Export Plug-In . SVG Version: 2.1.3 Build 182)  -->
  <path d="M64,32c0,2.289-1.855,4.144-4.144,4.144H25.64c-2.289,0-4.144-1.855-4.144-4.144s1.855-4.144,4.144-4.144h34.216c2.289,0,4.144,1.855,4.144,4.144ZM25.64,12.656h34.216c2.289,0,4.144-1.855,4.144-4.144s-1.855-4.144-4.144-4.144H25.64c-2.289,0-4.144,1.855-4.144,4.144s1.855,4.144,4.144,4.144ZM59.856,51.344H25.64c-2.289,0-4.144,1.855-4.144,4.144s1.855,4.144,4.144,4.144h34.216c2.289,0,4.144-1.855,4.144-4.144s-1.855-4.144-4.144-4.144ZM9.043,22.957c-4.994,0-9.043,4.049-9.043,9.043s4.049,9.043,9.043,9.043,9.043-4.049,9.043-9.043-4.049-9.043-9.043-9.043Z"/>
</svg>