<?xml version="1.0" encoding="UTF-8"?>
<svg id="Layer_1" xmlns="http://www.w3.org/2000/svg" version="1.1" viewBox="0 0 64 64">
  <!-- Generator: Adobe Illustrator 30.3.0, SVG Export Plug-In . SVG Version: 2.1.3 Build 182)  -->
  <path d="M64,55.488c0,2.289-1.855,4.144-4.144,4.144H25.64c-2.289,0-4.144-1.855-4.144-4.144s1.855-4.144,4.144-4.144h34.216c2.289,0,4.144,1.855,4.144,4.144ZM25.64,12.656h34.216c2.289,0,4.144-1.855,4.144-4.144s-1.855-4.144-4.144-4.144H25.64c-2.289,0-4.144,1.855-4.144,4.144s1.855,4.144,4.144,4.144ZM59.856,27.856H25.64c-2.289,0-4.144,1.855-4.144,4.144s1.855,4.144,4.144,4.144h34.216c2.289,0,4.144-1.855,4.144-4.144s-1.855-4.144-4.144-4.144ZM22.5,39.91h-6.519v-22.215h-2.782c-1.717,1.135-3.724,2.138-6.021,3.01-2.298.872-4.374,1.364-6.229,1.474v4.817h6.769v12.914H.948v6.395h21.552v-6.395Z"/>
</svg>