<?xml version="1.0" encoding="UTF-8"?>
<svg id="Layer_1" xmlns="http://www.w3.org/2000/svg" version="1.1" viewBox="0 0 64 64">
  <!-- Generator: Adobe Illustrator 29.8.6, SVG Export Plug-In . SVG Version: 2.1.1 Build 1)  -->
  <path d="M32,36.892c-4.878,6.085-9.947,12.766-17.694,12.766-8.034,0-13.772-7.397-13.772-17.658C.534,22.574,6.655,14.342,15.071,14.342c7.078,0,12.338,7.039,16.929,12.766,4.878-6.086,9.947-12.766,17.694-12.766,8.13,0,13.772,7.397,13.772,17.658,0,9.425-6.121,17.658-14.538,17.658-7.077,0-12.338-7.04-16.928-12.766ZM28.175,32c-3.731-4.296-7.652-10.5-13.199-10.5-4.783,0-8.417,4.892-8.417,10.5,0,6.085,3.443,10.499,8.13,10.499,5.452,0,9.851-5.846,13.486-10.499ZM57.441,32c0-6.085-3.443-10.5-8.13-10.5-5.452,0-9.851,5.846-13.486,10.5,3.73,4.295,7.652,10.499,13.199,10.499,4.782,0,8.417-4.892,8.417-10.499Z"/>
</svg>