<?xml version="1.0" encoding="UTF-8"?>
<svg id="Layer_1" xmlns="http://www.w3.org/2000/svg" version="1.1" viewBox="0 0 64 64">
  <!-- Generator: Adobe Illustrator 30.3.0, SVG Export Plug-In . SVG Version: 2.1.3 Build 182)  -->
  <path d="M47.374,44.366v16.382h-17.717c-8.086-.123-15.546-3.579-20.886-9.379C-2.891,38.703-.815,18.774,13.166,8.738c4.612-3.311,10.005-5.282,15.879-5.494h18.329v16.358h-17.768c-3.033.264-5.706,1.331-7.901,3.368-3.232,2.999-4.652,7.339-3.698,11.679,1.183,5.378,5.755,9.212,11.26,9.717h18.107ZM60.934,60.745c1.159-.073,1.924-.914,1.861-2.07v-12.166c.087-1.093-.71-2.148-1.86-2.15h-9.945v16.386h9.944ZM61.252,19.605c.997-.198,1.615-1.05,1.545-2.064V5.265c.026-1.005-.7-2.027-1.785-2.03h-10.021v16.37h10.262Z"/>
</svg>