<?xml version="1.0" encoding="UTF-8"?>
<svg id="Layer_1" xmlns="http://www.w3.org/2000/svg" version="1.1" viewBox="0 0 64 64">
  <!-- Generator: Adobe Illustrator 30.3.0, SVG Export Plug-In . SVG Version: 2.1.3 Build 182)  -->
  <path d="M63.499,31.957c0-.391-.131-.782-.393-1.103l-9.803-12.012c-1.037-1.271-3.096-.538-3.096,1.103v7.967h-14.121v-14.121h7.967c1.641,0,2.374-2.059,1.103-3.096L33.146.893c-.321-.262-.712-.393-1.103-.393-.014,0-.029,0-.043,0s-.029,0-.043,0c-.391,0-.782.131-1.103.393l-12.011,9.802c-1.271,1.037-.538,3.096,1.103,3.096h7.967v14.121h-14.121v-7.967c0-1.641-2.059-2.374-3.096-1.103L.893,30.853c-.262.321-.393.712-.393,1.103,0,.014,0,.029,0,.043s0,.029,0,.043c0,.391.131.782.393,1.103l9.803,12.011c1.037,1.271,3.096.538,3.096-1.103v-7.967h14.121v14.121h-7.967c-1.641,0-2.374,2.059-1.103,3.096l12.011,9.803c.321.262.712.393,1.103.392.014,0,.029,0,.043,0s.029,0,.043,0c.391,0,.782-.131,1.103-.392l12.011-9.803c1.271-1.037.538-3.095-1.103-3.095h-7.966v-14.12h14.121v7.967c0,1.641,2.059,2.374,3.096,1.103l9.803-12.011c.262-.321.393-.712.393-1.103,0-.014,0-.029,0-.043s0-.029,0-.043Z"/>
</svg>