<?xml version="1.0" encoding="UTF-8"?>
<svg id="Layer_1" xmlns="http://www.w3.org/2000/svg" version="1.1" viewBox="0 0 64 64">
  <!-- Generator: Adobe Illustrator 30.3.0, SVG Export Plug-In . SVG Version: 2.1.3 Build 182)  -->
  <path d="M23.442,61.137h-13.101c-3.361,0-6.086-2.725-6.086-6.086V8.95c0-3.361,2.725-6.086,6.086-6.086h13.101c3.361,0,6.086,2.725,6.086,6.086v46.101c0,3.361-2.725,6.086-6.086,6.086ZM59.745,55.05V8.95c0-3.361-2.725-6.086-6.086-6.086h-13.101c-3.361,0-6.086,2.725-6.086,6.086v46.101c0,3.361,2.725,6.086,6.086,6.086h13.101c3.361,0,6.086-2.725,6.086-6.086Z"/>
</svg>