<?xml version="1.0" encoding="UTF-8"?>
<svg id="Layer_1" xmlns="http://www.w3.org/2000/svg" version="1.1" viewBox="0 0 64 64">
  <!-- Generator: Adobe Illustrator 30.3.0, SVG Export Plug-In . SVG Version: 2.1.3 Build 182)  -->
  <path d="M32,44.997c-4.995,0-9.044,4.049-9.044,9.044s4.049,9.044,9.044,9.044,9.044-4.049,9.044-9.044-4.049-9.044-9.044-9.044ZM32,58.566c-2.498,0-4.524-2.025-4.524-4.524s2.025-4.524,4.524-4.524,4.524,2.025,4.524,4.524-2.025,4.524-4.524,4.524ZM43.461,22.506l-6.675,12.824c-.559,1.074-1.364,1.829-2.467,2.282l-.039,2.732c-.019,1.342-1.23,2.203-2.439,2.126-1.304-.084-2.11-1.134-2.131-2.461l-.038-2.391c-.878-.435-1.772-.971-2.261-1.911l-6.586-12.642c-.165-.317-.479-.803-.48-1.183V.914h4.531v18.56h14.163V.914h4.579v17.074c0,1.574.118,2.975-.157,4.518Z"/>
</svg>