<?xml version="1.0" encoding="UTF-8"?>
<svg id="Layer_1" xmlns="http://www.w3.org/2000/svg" version="1.1" viewBox="0 0 64 64">
  <!-- Generator: Adobe Illustrator 30.3.0, SVG Export Plug-In . SVG Version: 2.1.3 Build 182)  -->
  <path d="M16.886,58.423l-10.355,3.256c-.736.231-1.496-.021-2.006-.485-.459-.417-.925-1.187-.717-1.985l4.891-18.795c.226-.869.561-1.643,1.164-2.26l26.361-27.052,16.433,16.403-26.587,27.374c-.564.578-1.282.975-2.046,1.223l-7.138,2.319ZM24.295,48.173c.004-.451-.505-.918-.98-.923l-5.285-.057c-.445-.005-.734-.814-.741-1.167l-.068-3.253-.149-1.89c-.066-.84-1.159-.653-1.665-.632l-2.476.103-3.045,11.732c1.279.919,2.372,1.835,3.346,3.185l10.143-3.323c.278-.091.917-.188.919-.518v-3.257ZM59.947,19.921c2.561-2.617,2.078-6.609-.573-8.95,0,0-3.821-3.778-4.714-4.686-1.094-1.113-2.136-2.168-3.304-3.2-2.097-1.853-5.194-1.866-7.312.019-1.766,1.572-3.337,3.286-5.04,5.008l16.252,16.254c.296.294.617-.283.8-.47l3.891-3.975Z"/>
</svg>