<?xml version="1.0" encoding="UTF-8"?>
<svg id="Layer_1" xmlns="http://www.w3.org/2000/svg" version="1.1" viewBox="0 0 64 64">
  <!-- Generator: Adobe Illustrator 30.3.0, SVG Export Plug-In . SVG Version: 2.1.3 Build 182)  -->
  <path d="M59.743,26.224h-21.966V4.257c0-1.275-1.034-2.309-2.309-2.309h-6.935c-1.275,0-2.309,1.034-2.309,2.309v21.966H4.257c-1.275,0-2.309,1.034-2.309,2.309v6.935c0,1.275,1.034,2.309,2.309,2.309h21.966v21.966c0,1.275,1.034,2.309,2.309,2.309h6.935c1.275,0,2.309-1.034,2.309-2.309v-21.966h21.966c1.275,0,2.309-1.034,2.309-2.309v-6.935c0-1.275-1.034-2.309-2.309-2.309Z"/>
</svg>