<?xml version="1.0" encoding="UTF-8"?>
<svg id="Layer_1" xmlns="http://www.w3.org/2000/svg" version="1.1" viewBox="0 0 64 64">
  <!-- Generator: Adobe Illustrator 30.3.0, SVG Export Plug-In . SVG Version: 2.1.3 Build 182)  -->
  <path d="M1.406,50.747c0-29.507-.046-33.934-.046-34.034.006-1.81,1.131-3.282,2.921-3.608-.088-3.003,1.995-5.447,4.966-5.751h17.003c2.326.006,4.415,1.492,5.743,3.354,1.419-1.849,3.329-3.132,5.649-3.37h17.191c2.949.29,5.031,2.794,4.931,5.749,1.587.257,2.569,1.33,2.879,2.87v35.397c-.388,1.507-1.491,2.9-3.146,2.904h-21.794c-.598,1.439-1.91,2.387-3.469,2.403h-4.667c-1.471-.094-2.683-.988-3.226-2.401H4.573c-1.811-.004-3.168-1.81-3.167-3.513ZM54.473,47.417c1.467-.175,2.108-1.292,2.108-2.645V12.903c0-1.089-.79-2.308-1.968-2.311h-16.664c-2.369.295-4.169,2.252-4.309,4.623v5.429c-.001.508-.555.903-.968.897l-1.432-.02c-.357-.005-.817-.367-.842-.753-.098-1.546-.076-3.026-.006-4.568.067-1.486-.296-2.816-1.261-3.972-.814-.975-2.033-1.649-3.367-1.648H9.64c-1.192,0-2.14,1.014-2.139,2.231v32.549c0,1.122,1.022,1.936,2.027,2.063h16.706c1.617.004,2.828,1.033,4.136,2.01v-8.573c-.005-1.191-.068-2.264.07-3.462.027-.238.524-.597.774-.593l1.747.034c.344.007.686.595.686.961v11.715c1.214-1.107,2.602-2.096,4.284-2.099h16.542ZM20.81,25.701c-1.927,0-3.488,1.562-3.488,3.488s1.562,3.488,3.488,3.488,3.488-1.562,3.488-3.488-1.562-3.488-3.488-3.488ZM43.253,25.706c-1.926,0-3.488,1.562-3.488,3.488s1.562,3.488,3.488,3.488,3.488-1.562,3.488-3.488-1.562-3.488-3.488-3.488ZM32.031,25.709c-1.925,0-3.485,1.56-3.485,3.485s1.56,3.485,3.485,3.485,3.485-1.56,3.485-3.485-1.56-3.485-3.485-3.485Z"/>
</svg>