<?xml version="1.0" encoding="UTF-8"?>
<svg id="Layer_1" xmlns="http://www.w3.org/2000/svg" version="1.1" viewBox="0 0 64 64">
  <!-- Generator: Adobe Illustrator 30.3.0, SVG Export Plug-In . SVG Version: 2.1.3 Build 182)  -->
  <path d="M5.076,36.174h7.951c-.055,7.957,5.073,14.981,12.165,17.655,7.796,2.94,16.386.61,21.503-5.823,3.292-4.139,4.582-9.187,3.971-14.41-1.006-8.613-7.761-15.308-16.394-16.422v6.522c-.005.556-.627,1.25-1.062,1.41-.492.182-1.518.167-1.943-.194l-11.966-10.184c-.593-.505-.816-1.117-.82-1.857-.003-.68.401-1.278,1.043-1.825L31.164,1.139c.559-.476,1.425-.561,2.095-.312.476.177,1.01.956,1.01,1.62v6.426c4.626.52,9.001,1.929,12.753,4.544,6.46,4.503,10.607,11.215,11.617,18.995.345,2.661.41,4.965.007,7.63-.945,6.242-3.878,11.989-8.439,16.154-12.151,11.097-30.942,8.938-40.35-4.563-3.056-4.386-4.798-9.678-4.781-15.459ZM38.682,41.707v-9.247c.003-1.069-.713-1.902-1.696-2.175h-10.107c-1.019.222-1.738,1.087-1.738,2.147v9.334c0,1.196.921,2.138,2.127,2.138h9.073c1.213,0,2.339-.973,2.342-2.197Z"/>
</svg>