<?xml version="1.0" encoding="UTF-8"?>
<svg id="Layer_1" xmlns="http://www.w3.org/2000/svg" version="1.1" viewBox="0 0 64 64">
  <!-- Generator: Adobe Illustrator 30.3.0, SVG Export Plug-In . SVG Version: 2.1.3 Build 182)  -->
  <path d="M46.965,43.308c-6.624,9.106-19.085,10.753-27.556,3.097-3.245-2.933-5.329-6.631-6.177-10.876-.225-1.126-1.367-1.758-2.436-1.644l-3.989.428c-.918.098-1.956.056-2.8.442-1.158.529-1.417,1.761-1.199,2.947,2.311,12.545,12.76,22.635,25.451,24.273,7.727.997,15.46-1.352,21.527-6.21,3.202-2.563,5.842-5.656,7.784-9.273,2.148-4,3.444-8.275,3.66-12.814.048-1.004.091-1.858.038-2.85-.291-5.381-1.804-10.525-4.712-15.122-5-7.904-13.676-13.266-23.091-13.853-7.292-.455-14.392,2.015-20.143,6.672l-4.711-4.626c-.517-.508-1.293-.585-1.876-.341-.539.225-1.037.718-1.145,1.444l-2.835,19.118c-.126.85-.052,1.621.515,2.188.648.647,1.38.571,2.26.45l17.249-2.36,2.28-.427c1.035-.706,1.325-2.187.393-3.127l-4.525-4.567c7.605-5.545,18.084-4.446,24.447,2.445,2.737,2.964,4.49,6.703,5.041,10.773.64,4.732-.662,9.975-3.453,13.812Z"/>
</svg>