<?xml version="1.0" encoding="UTF-8"?>
<svg id="Layer_1" xmlns="http://www.w3.org/2000/svg" version="1.1" viewBox="0 0 64 64">
  <!-- Generator: Adobe Illustrator 30.3.0, SVG Export Plug-In . SVG Version: 2.1.3 Build 182)  -->
  <path d="M2.816,25.422V4.376c0-2.057,1.668-3.725,3.725-3.725h21.047c2.057,0,3.725,1.668,3.725,3.725v21.047c0,2.057-1.668,3.725-3.725,3.725H6.541c-2.057,0-3.725-1.668-3.725-3.725ZM48.193,29.148c7.869,0,14.249-6.379,14.249-14.249S56.062.651,48.193.651s-14.249,6.379-14.249,14.249,6.379,14.249,14.249,14.249ZM33.458,47.507l-7.246-12.551c-.392-.679-1.116-1.097-1.901-1.097h-14.493c-.784,0-1.508.418-1.9,1.097L.671,47.507c-.392.679-.392,1.515,0,2.195l7.246,12.551c.392.679,1.116,1.097,1.9,1.097h14.493c.784,0,1.508-.418,1.901-1.097l7.246-12.551c.392-.679.392-1.516,0-2.195ZM63.419,60.543l-13.828-24.887c-.609-1.097-2.186-1.097-2.796,0l-13.828,24.887c-.592,1.066.178,2.376,1.398,2.376h27.656c1.219,0,1.99-1.31,1.398-2.376Z"/>
</svg>