<?xml version="1.0" encoding="UTF-8"?>
<svg id="Layer_1" xmlns="http://www.w3.org/2000/svg" version="1.1" viewBox="0 0 64 64">
  <!-- Generator: Adobe Illustrator 30.3.0, SVG Export Plug-In . SVG Version: 2.1.3 Build 182)  -->
  <path d="M16.256,24.547l-2.943-8.012c-1.307-5.035,2.282-10.012,7.279-10.576,3.869-.436,7.38,1.906,8.839,5.412l2.853,6.854c.07.168.44.461.617.441,1.017-.114,2.6-7.23-1.717-12.487-2.57-3.13-6.499-4.694-10.748-4.694-8.735,0-11.551.583-12.445,1.716-1.347,1.707,1.667,4.664-4.611,8.763-5.927,3.87,5.879,10.137,12.068,13.42.178.094.684.008.788-.156.087-.137.09-.486.019-.681Z"/>
  <path d="M62.468,43.656c-.709-4.836-4.074-12.645-6.219-17.507-.709-1.608-2.351-2.541-3.909-2.608-1.827-.078-3.286.733-4.149,2.423-1.158-1.701-2.669-2.579-4.498-2.401-1.581.154-3.016,1.165-3.786,2.877-1.116-1.426-2.689-2.185-4.458-1.924-1.598.236-2.856,1.312-3.656,3.02l-6.277-15.01c-.897-2.145-3.571-3.072-5.464-2.357-2.24.846-3.317,2.847-2.964,5.325l11.664,28.453c-3.035-1.172-6.867-4.641-9.312-4.188-1.895.351-3.225,1.7-3.623,3.297-.465,1.865.147,3.564,1.667,4.72l14.904,11.406c2.637,2.031,6.827,5.044,10.023,3.702l16.417-6.895c4.285-1.8,4.282-7.954,3.64-12.334Z"/>
</svg>