<?xml version="1.0" encoding="UTF-8"?>
<svg id="Layer_1" xmlns="http://www.w3.org/2000/svg" version="1.1" viewBox="0 0 64 64">
  <!-- Generator: Adobe Illustrator 30.3.0, SVG Export Plug-In . SVG Version: 2.1.3 Build 182)  -->
  <path d="M13.622,36.23L.925,20.673c-.339-.416-.509-.922-.509-1.429s.17-1.013.509-1.429L13.622,2.259c1.344-1.646,4.01-.696,4.01,1.429v10.319h41.824c1.027,0,1.86.833,1.86,1.86v6.756c0,1.027-.833,1.86-1.86,1.86H17.632v10.319c0,2.125-2.666,3.075-4.01,1.429ZM63.491,43.327l-12.697-15.557c-1.344-1.646-4.01-.696-4.01,1.429v10.319H4.96c-1.027,0-1.86.833-1.86,1.86v6.756c0,1.027.833,1.86,1.86,1.86h41.824v10.319c0,2.125,2.667,3.075,4.01,1.429l12.697-15.557c.339-.416.509-.922.509-1.429s-.17-1.013-.509-1.429Z"/>
</svg>