<?xml version="1.0" encoding="UTF-8"?>
<svg id="Layer_1" xmlns="http://www.w3.org/2000/svg" version="1.1" viewBox="0 0 64 64">
  <!-- Generator: Adobe Illustrator 30.3.0, SVG Export Plug-In . SVG Version: 2.1.3 Build 182)  -->
  <path d="M52.383,56.044c-.059-3.655-.657-7.104-1.973-10.348-4.123-10.162-13.964-16.644-24.909-16.314l-.026,10.478c-.003,1.004-.877,1.806-1.533,2.109-.993.459-2.056.281-2.866-.375l-3.002-2.428L1.517,25.896c-1.188-.988-1.321-2.412-.437-3.742L21.05,6.14c.82-.658,1.812-.845,2.82-.43.693.285,1.591,1.14,1.595,2.184l.037,10.243c4.927.012,9.747.734,14.311,2.543,6.938,2.75,12.817,7.393,17.032,13.549,4.426,6.464,6.744,14.158,6.645,21.991-.016,1.287-1.155,2.283-2.336,2.284l-6.297.007c-1.351.001-2.452-1.043-2.475-2.466Z"/>
</svg>