<?xml version="1.0" encoding="UTF-8"?>
<svg id="Layer_1" xmlns="http://www.w3.org/2000/svg" version="1.1" viewBox="0 0 64 64">
  <!-- Generator: Adobe Illustrator 30.3.0, SVG Export Plug-In . SVG Version: 2.1.3 Build 182)  -->
  <path d="M51.097,62.613H16.434c-1.085,0-1.974.127-3.066.011-3.454-.134-6.026-3.315-5.531-6.788,0,0-.013-47.02-.059-47.736-.21-3.289,2.164-6.764,5.763-6.773h26.242c1.434-.004,2.591.43,3.604,1.443l11.411,11.411c.882.882,1.436,2.197,1.436,3.48v39.247c-.116,2.951-2.219,5.301-5.139,5.705ZM44.584,16.812h7.833l-11.565-11.563v7.392c.087,2.1,1.595,3.804,3.731,4.171ZM41.392,39.241c2.484-1.714,4.512-3.804,6.018-6.374.301-.514.323-1.042.009-1.592-2.056-3.602-5.179-6.484-8.98-8.188-8.226-3.687-17.129.431-21.639,7.793-.499.814-.51,1.564.034,2.392,1.843,2.808,4.345,5.189,7.268,6.847,5.527,3.134,12.04,2.744,17.29-.878ZM29.505,34.781c1.547,1.505,4.018,1.335,5.439-.357,1.064-1.266,1.21-3.164.258-4.581-.857-1.275-2.452-2.072-4.16-1.572.47.555.674,1.045.63,1.717-.053.817-.624,1.371-1.333,1.518-.717.149-1.375-.133-1.839-.786-.704,1.571-.09,2.995,1.006,4.061Z"/>
</svg>