<?xml version="1.0" encoding="UTF-8"?>
<svg id="Layer_1" xmlns="http://www.w3.org/2000/svg" version="1.1" viewBox="0 0 64 64">
  <!-- Generator: Adobe Illustrator 30.3.0, SVG Export Plug-In . SVG Version: 2.1.3 Build 182)  -->
  <path d="M60.44,17.032c-.523-3.336-3.27-5.985-6.472-6.445-10.792-1.55-33.193-1.53-44.116.058-3.269.475-5.738,3.215-6.344,6.425-1.185,6.276-1.688,19.159-.036,29.664.585,3.719,3.551,6.381,7.223,6.806,11.515,1.333,31.417,1.391,42.667-.013,3.519-.439,6.591-3.111,7.123-6.743,1.445-9.861,1.497-19.916-.045-29.753ZM42.308,33.523c-15.763,9.514-15.397,9.73-16.712,9.001-1.161-.644-.833-.03-.814-19.378.002-1.567,1.464-2.375,2.725-1.614,15.411,9.298,15.461,9.033,15.549,10.071.065.769-.048,1.498-.748,1.92Z"/>
</svg>