<?xml version="1.0" encoding="UTF-8"?>
<svg id="Layer_1" xmlns="http://www.w3.org/2000/svg" version="1.1" viewBox="0 0 64 64">
  <!-- Generator: Adobe Illustrator 30.3.0, SVG Export Plug-In . SVG Version: 2.1.3 Build 182)  -->
  <path d="M46.95,60.648c-1.338.14-2.656.088-3.969.056-2.951-.072-1.779-4.881-7.659-9.009-1.061-.745-1.99-1.496-2.972-2.561l11.211-7.048c2.088,1.582,5.065,1.454,6.725-.638,1.317-1.659,1.311-4.017.142-5.843l3.625-5.871c.385-.624.378-1.346-.015-1.933l-3.17-4.739c1.135-1.808.947-4.026-.387-5.511-1.366-1.521-3.568-1.866-5.413-.91-1.752.908-2.661,3-2.167,5.074.554,2.324,2.843,3.638,5.278,3.197l2.676,3.891-3.19,5.061h-2.046l-2.687-4.676c-.42-.731-1.121-.838-1.873-.825-2.012.034-3.907.016-5.949-.089l.125-2.082c.059-.986-.955-1.737-1.769-1.641-.981.116-1.534.895-1.506,1.973.05,1.928-.899,4.182-3.031,4.457-3.824.494-8.276-1.153-11.152,3.245-.98,1.499-1.713,3.264-2.801,4.727-1.994,1.078-4.479,1.019-6.551.233-2.776-1.053-4.466-3.591-4.383-6.555-1.786-1.435-2.763-3.379-2.978-5.642-.353-3.699,1.573-7.06,4.879-8.775.276-.143.577-.444.77-.694.335-2.563,1.535-4.769,3.383-6.512,1.921-1.54,4.092-2.723,6.579-2.839.988-.046,1.539-.408,2.202-1.105,2.177-2.287,5.212-3.377,8.359-3.745,1.891-.221,3.775.186,5.58.805-.276.96-.735,1.905-.739,2.827v7.387l-1.236,1.044h-4.608c-.886-2.298-3.41-3.328-5.672-2.553-2.315.793-3.485,3.278-2.682,5.703.106.322-.118.829-.345,1.086l-3.434,3.882c-2.674-1.208-5.578.279-6.251,2.903-.676,2.631,1.146,5.364,3.93,5.541,1.579.1,2.948-.381,3.912-1.633.953-1.238,1.158-2.886.653-4.46l4.114-4.693c2.46.847,4.904-.185,5.809-2.527h4.528l1.174,1.53c.165.686.501,1.273,1.138,1.486.612.205,1.442-.002,1.784-.604.15-.264.35-.889.599-1.048.967-.619,1.595-1.745,1.604-2.894.01-1.227-.864-2.076-1.767-2.795-.092-2.372-.115-4.918.009-7.347.09-1.764,1.806-3.408,3.482-3.511,2.806-.173,4.981,1.56,6.445,3.775.359.543,1.255.395,1.858.467,5.488.659,9.455,5.5,9.785,11.006,3.29,1.636,4.412,3.812,3.858,7.438,1.526,1.872,2.535,3.928,2.123,6.514-.328,2.058-1.543,4.102-3.594,5.287-.196.113-.527.44-.662.657.311,6.861-4.353,11.798-11.159,12.621l1.412,6.881c.237,1.156-.628,2.417-1.932,2.553ZM30.172,46.582l11.841-7.32c-.191-1.42.135-2.535.856-3.634l-2.414-4.131c-2.353-.021-4.479-.04-6.767.126-1.412,1.656-3.308,2.759-5.503,2.775h-5.295c-1.359.197-2.191,1.105-2.842,2.238l-2.425,4.219c-.725,1.262,1.861,6.447,7.121,6.667,1.744.073,3.859.029,5.427-.941Z"/>
</svg>