<?xml version="1.0" encoding="UTF-8"?>
<svg id="Layer_1" xmlns="http://www.w3.org/2000/svg" version="1.1" viewBox="0 0 64 64">
  <!-- Generator: Adobe Illustrator 30.3.0, SVG Export Plug-In . SVG Version: 2.1.3 Build 182)  -->
  <path d="M24.394,38.567h35.14c1.847-.003,3.323-1.623,3.373-3.391.062-2.209.064-4.181-.006-6.423-.044-1.403-1.276-3.216-2.883-3.22H24.417s11.16-11.464,11.16-11.464c.804-.64,1.242-1.583,1.275-2.525.037-1.063-.469-1.963-1.251-2.716-1.522-1.466-2.86-2.965-4.472-4.333-1.152-.978-3.091-.996-4.232.145L2.235,29.351c-1.253,1.309-1.769,3.505-.276,5.004l24.738,24.868c1.207,1.219,3.281,1.369,4.606.217,1.652-1.437,3.107-3.032,4.654-4.575,1.114-1.408,1.198-3.104.082-4.519l-11.644-11.78Z"/>
</svg>