<?xml version="1.0" encoding="UTF-8"?>
<svg id="Layer_1" xmlns="http://www.w3.org/2000/svg" version="1.1" viewBox="0 0 64 64">
  <!-- Generator: Adobe Illustrator 30.3.0, SVG Export Plug-In . SVG Version: 2.1.3 Build 182)  -->
  <path d="M38.567,24.394v35.14c-.003,1.847-1.623,3.323-3.391,3.373-2.209.062-4.181.064-6.423-.006-1.403-.044-3.216-1.276-3.22-2.883V24.417s-11.464,11.16-11.464,11.16c-.64.804-1.583,1.242-2.525,1.275-1.063.037-1.963-.469-2.716-1.251-1.466-1.522-2.965-2.86-4.333-4.472-.978-1.152-.996-3.091.145-4.232L29.351,2.235c1.309-1.253,3.505-1.769,5.004-.276l24.868,24.738c1.219,1.207,1.369,3.281.217,4.606-1.437,1.652-3.032,3.107-4.575,4.654-1.408,1.114-3.104,1.198-4.519.082l-11.78-11.644Z"/>
</svg>