<?xml version="1.0" encoding="UTF-8"?>
<svg id="Layer_1" xmlns="http://www.w3.org/2000/svg" version="1.1" viewBox="0 0 64 64">
  <!-- Generator: Adobe Illustrator 30.3.0, SVG Export Plug-In . SVG Version: 2.1.3 Build 182)  -->
  <path d="M63.281,12.251c.002,1.322-1.009,2.333-2.406,2.453H3.214c-1.313,0-2.404-1.076-2.448-2.316-.056-1.58-.073-3.018.018-4.594.057-.975.958-2.095,2.046-2.095h58.49c1.161.263,1.959,1.171,1.961,2.356v4.196ZM5.831,18.104h52.382v35.145c-.576,2.764-2.532,4.639-5.373,5.053H11.039c-2.823-.539-4.88-2.526-5.208-5.37V18.104ZM18.279,28.818v3.968c.005,1.716,1.361,3.508,3.251,3.511h21.275c1.713-.346,2.955-1.71,2.96-3.401v-4.19c-.138-1.688-1.181-3.032-2.887-3.311h-21.723c-1.73.283-2.805,1.719-2.876,3.424Z"/>
</svg>