<?xml version="1.0" encoding="UTF-8"?>
<svg id="Layer_1" xmlns="http://www.w3.org/2000/svg" version="1.1" viewBox="0 0 64 64">
  <!-- Generator: Adobe Illustrator 30.3.0, SVG Export Plug-In . SVG Version: 2.1.3 Build 182)  -->
  <path d="M62.273,32c0,16.72-13.554,30.273-30.273,30.273S1.727,48.72,1.727,32,15.28,1.727,32,1.727s30.273,13.554,30.273,30.273ZM24.74,42.578l2.71,2.721c.467.469,1.471.691,2.009.153l17.276-17.347c.559-.58,1.154-1.044,1.674-1.698.406-.512.482-1.444-.015-1.949l-2.974-3.022c-.409-.415-.729-.89-1.28-1.157-.495-.241-1.201-.149-1.621.273l-13.958,14.036-6.92-6.935c-.611-.612-1.386-.609-2.091-.082l-3.881,3.898c-.502.504-.512,1.469-.02,1.961l9.094,9.149Z"/>
</svg>