<?xml version="1.0" encoding="UTF-8"?>
<svg id="Layer_1" xmlns="http://www.w3.org/2000/svg" version="1.1" viewBox="0 0 64 64">
  <!-- Generator: Adobe Illustrator 30.3.0, SVG Export Plug-In . SVG Version: 2.1.3 Build 182)  -->
  <path d="M35.488,46.674c2.535.049,4.298,2.332,4.532,4.702.096.97.063,1.842.013,2.894h-23.161c-.006-1.039-.077-2.082.04-3.014.387-3.081,2.962-4.938,5.939-4.641,1.012.101,2.065.005,3.04-.074,0,0,.109-41.838.085-42.834-.032-1.37,1.013-2.472,2.206-2.574,1.317-.113,2.586.805,2.676,2.242.062.992.039,1.993.049,3.038h26.172c.568,0,1.133.394,1.3.747.224.474.12,1.165-.271,1.557l-8.831,8.858,8.996,9.138c.201.414.301.976.111,1.41-.169.385-.708.639-1.271.639h-24.612c-.587,0-1.134.106-1.603.177v17.647l4.591.089Z"/>
  <path d="M44.044,62.878H12.815c-.745,0-1.357-.637-1.353-1.324v-3.084c.004-.63.693-1.193,1.351-1.193h31.592c.587.203,1.061.741,1.053,1.349l-.036,2.991c-.009.703-.566,1.26-1.378,1.26Z"/>
</svg>