<?xml version="1.0" encoding="UTF-8"?>
<svg id="Layer_1" xmlns="http://www.w3.org/2000/svg" version="1.1" viewBox="0 0 64 64">
  <!-- Generator: Adobe Illustrator 30.3.0, SVG Export Plug-In . SVG Version: 2.1.3 Build 182)  -->
  <path d="M52.841,32.783l4.369,4.968c.473.538.667,1.181.426,1.911-.174.529-.729,1.156-1.508,1.156H12.246v19.153c-.004,1.633-1.598,2.674-3.046,2.647-1.4-.026-2.936-1.16-2.937-2.761V4.17c0-1.627,1.475-2.745,2.921-2.788,1.501-.044,2.986,1.08,3.022,2.649l.058,2.526h44.081c.691,0,1.157.714,1.303,1.148.221.66.028,1.311-.432,1.832l-11.98,13.58c-.289.327-.245.888.036,1.202l7.569,8.463Z"/>
</svg>