<?xml version="1.0" encoding="UTF-8"?>
<svg id="Layer_1" xmlns="http://www.w3.org/2000/svg" version="1.1" viewBox="0 0 64 64">
  <!-- Generator: Adobe Illustrator 30.3.0, SVG Export Plug-In . SVG Version: 2.1.3 Build 182)  -->
  <path d="M9.347,34.937H3.464c-1.475-.009-2.522-1.428-2.53-2.69-.01-1.477.951-2.479,2.444-2.911h5.97v5.601ZM9.355,17.552c-3.566.114-8.194-.912-8.416,2.75-.074,1.221.907,2.832,2.339,2.839h6.077v-5.59ZM9.347,41.125H3.298c-1.48.323-2.458,1.575-2.33,3.022.114,1.285,1.256,2.49,2.693,2.55,1.884.078,3.7.053,5.685.028v-5.599ZM63.066,32.207c.031-1.206-.983-2.654-2.395-2.786-1.924-.181-3.833-.059-5.858-.093v5.629h5.569c1.562-.007,2.647-1.337,2.684-2.751ZM63.053,20.547c.087-1.426-1.056-2.98-2.683-2.993h-5.551v5.609l5.094.049c1.701.016,3.038-.992,3.14-2.665ZM63.054,43.992c.073-1.245-.88-2.717-2.321-2.806-1.974-.121-3.849-.052-5.902-.056v5.584h5.485c1.571-.011,2.655-1.313,2.737-2.722ZM34.665,54.812h-5.44c.162,3.437-.924,7.777,2.303,8.364,1.287.234,2.576-.426,2.986-1.675.488-1.484.259-2.963.212-4.581l-.061-2.107ZM46.461,54.805h-5.465v6.057c.313,1.445,1.49,2.45,2.899,2.358,1.357-.089,2.562-1.197,2.565-2.75v-5.665ZM51.579,48.75V15.681c0-1.497-1.613-3.111-3.096-3.112H15.582c-1.645.275-3.164,1.488-3.163,3.284v32.886c.365,1.55,1.602,2.956,3.333,2.956h32.785c1.443,0,3.042-1.573,3.042-2.945ZM23.03,54.822h-5.424v5.833c.011,1.531,1.466,2.605,2.839,2.57,1.46-.038,2.643-1.289,2.585-2.868v-5.535ZM46.381,3.201c-.108-1.352-1.435-2.399-2.642-2.418-1.145-.018-2.539.874-2.654,2.22-.184,2.138-.052,4.237-.09,6.466h5.47c-.026-2.297.08-4.225-.083-6.268ZM23.04,3.248c-.01-1.488-1.559-2.546-2.93-2.47-1.402.273-2.526,1.363-2.53,2.802v5.891h5.46V3.248ZM34.703,3.389c-.004-1.44-1.367-2.647-2.747-2.601-1.348.045-2.614,1.208-2.684,2.694-.093,1.988-.057,3.893-.045,5.987h5.476V3.389Z"/>
</svg>