<?xml version="1.0" encoding="UTF-8"?>
<svg id="Layer_1" xmlns="http://www.w3.org/2000/svg" version="1.1" viewBox="0 0 64 64">
  <!-- Generator: Adobe Illustrator 30.3.0, SVG Export Plug-In . SVG Version: 2.1.3 Build 182)  -->
  <path d="M55.917.023H8.272C3.859.027.389,3.631,0,7.854v48.394c.417,4.254,3.757,7.465,8.083,7.752h48.073c4.219-.431,7.38-3.522,7.844-7.639V7.658C63.489,3.429,60.217.332,55.917.023ZM36.826,7.322h2.685c1.026.005,1.844.892,1.845,1.911v16.264h11.62c.968-.128,1.898.526,1.906,1.554v2.195c.006.717-.421,1.375-1.089,1.624-.827.308-1.617.129-2.481.127h-14.682c-.986-.002-1.842-.825-1.843-1.85V9.343c0-1.19.869-2.027,2.039-2.021ZM20.847,57.99c-1.109.047-2.117.068-3.105-.021-.961-.087-1.443-.842-1.664-1.733v-20.128c0-1.069,1.038-1.802,1.949-1.796h2.805c.893.006,1.772.8,1.772,1.793v20.074c0,.95-.812,1.771-1.757,1.811ZM29.612,27.75c-1.565,1.679-3.594,2.704-5.872,3.24-3.961.932-8.266.142-11.491-2.296-2.927-2.211-4.637-5.436-4.751-9.031-.236-7.433,5.524-12.689,12.865-12.672,1.651.004,3.147.152,4.7.667,1.819.602,3.513,1.538,4.749,2.978.418.487.365,1.223-.067,1.644l-2.273,2.21c-.312.303-.781.53-1.174.513-.436-.02-.777-.26-1.127-.588-2.47-2.31-6.433-2.512-8.985-.183-2.692,2.457-2.849,6.811-.34,9.469,2.488,2.636,6.778,2.578,9.382.107.427-.406.702-.614,1.157-.636.514-.025.793.224,1.16.563l1.964,1.816c.308.285.597.665.605,1.054.009.381-.208.832-.5,1.145ZM52.513,48.981c-1.619,1.367-3.666,2.177-5.83,2.313l-6.152.061-.05,4.897c-.009.919-.665,1.536-1.524,1.757l-3.337-.045c-.847-.012-1.649-.895-1.649-1.785v-19.909c0-.986.822-1.887,1.873-1.886h10.627c1.779.002,3.484.59,4.961,1.468,2.505,1.489,3.751,4.155,3.724,6.987-.022,2.363-.791,4.578-2.644,6.143ZM48.585,43.061c-.044.726-.28,1.407-.798,2.026-.728.604-1.598.984-2.559.992h-4.716v-6.449h4.681c2.012-.003,3.516,1.404,3.393,3.431Z"/>
</svg>