<?xml version="1.0" encoding="UTF-8"?>
<svg id="Layer_1" xmlns="http://www.w3.org/2000/svg" version="1.1" viewBox="0 0 64 64">
  <!-- Generator: Adobe Illustrator 30.3.0, SVG Export Plug-In . SVG Version: 2.1.3 Build 182)  -->
  <path d="M58.346,55.595c.005,3.106-6.322,5.28-9.39,6.111-3.889,1.053-7.723,1.691-11.772,1.862-8.86.374-17.065.017-25.449-2.963-2.393-.851-6.06-2.802-6.052-5.135v-11.376c.818.823,1.456,1.435,2.335,1.962,5.743,3.444,13.652,4.395,20.37,4.777,5.721.326,11.339-.038,16.971-1.041,4.505-.802,9.414-2.251,12.986-5.571v11.373ZM58.317,27.985c-1.256,1.194-2.234,1.985-3.581,2.634-5.163,2.486-12.647,3.794-18.399,4.029-6.884.281-13.645-.064-20.345-1.654-3.359-.797-7.894-2.412-10.163-4.916l-.167,1.601v9.256c0,1.242.691,2.188,1.629,2.961,5.036,4.15,16.814,5.596,23.487,5.598h2.766c6.426.002,17.942-1.41,22.833-5.276.788-.623,1.938-1.53,1.94-2.7v-11.534ZM58.331,11.925c-1.238,1.21-2.188,1.936-3.525,2.552-.951.438-1.9.937-2.92,1.278-6.339,2.117-12.862,2.798-19.55,2.794-5.93-.004-11.621-.476-17.334-1.953-3.269-.845-6.834-2.141-9.18-4.549-.053.525-.167,1.128-.168,1.584v8.935c-.015,6.633,18.495,8.733,24.56,8.734h4.07c5.951-.171,11.782-.873,17.464-2.825,2.449-.841,6.582-2.955,6.583-5.252v-11.299ZM51.719,12.398c2.786-.908,7.95-3.182,6.222-5.648-2.172-3.1-9.419-4.825-13.469-5.458-4.584-.717-9.12-1.058-13.76-.966-7.174.142-15.862,1.055-22.189,4.344-1.095.569-2.207,1.443-2.656,2.588-.406,1.034.47,2.084,1.312,2.638,6.147,4.046,15.691,4.874,23.036,5.19,1.396.06,2.654.047,4.145-.005,5.967-.212,11.716-.842,17.359-2.681Z"/>
</svg>