<?xml version="1.0" encoding="UTF-8"?>
<svg id="Layer_1" xmlns="http://www.w3.org/2000/svg" version="1.1" viewBox="0 0 64 64">
  <!-- Generator: Adobe Illustrator 30.3.0, SVG Export Plug-In . SVG Version: 2.1.3 Build 182)  -->
  <path d="M56.368,58.21c.014,2.794-2.006,4.994-4.821,5.38H12.363c-2.539-.373-4.468-2.207-4.789-4.74V5.036C7.928,2.296,10.266.434,12.981.435h9.177c.699.002,1.36.089,2.046.029.543-.048,11.366-.054,11.366-.054.211,0,.42.197.42.436v16.302c.273,1.902,1.57,3.368,3.525,3.681h16.827v17.419c.002,1.253.171,2.38.027,3.625v16.337ZM42.843,16.672h13.43L40.161.581v13.327c.19,1.471,1.157,2.572,2.682,2.764Z"/>
</svg>