<?xml version="1.0" encoding="UTF-8"?>
<svg id="Layer_1" xmlns="http://www.w3.org/2000/svg" version="1.1" viewBox="0 0 64 64">
  <!-- Generator: Adobe Illustrator 30.3.0, SVG Export Plug-In . SVG Version: 2.1.3 Build 182)  -->
  <path d="M62.985,27.213v26.781c-.003,2.877-2.534,5.377-5.401,5.376H6.223c-2.766,0-5.212-2.621-5.214-5.357v-27.23c-.002-2.567,2.447-5.126,5.237-5.21h31.032v20.481l7.963-6.562,7.941,6.555v-20.468h4.6c2.948.2,5.207,2.597,5.204,5.634ZM58.01,11.929h-27.622c-.624,0-1.284-.374-1.625-.827l-3.191-4.226c-.919-1.218-2.384-2.229-4.036-2.233H6.048c-2.847.284-4.851,2.439-5.07,5.277v10.615l.118,1.333c.818-1.902,2.638-3.8,5-3.8h51.704c2.434,0,4.279,1.831,5.149,3.966.091-1.558.098-3.183.028-4.773-.126-2.858-2.189-4.938-4.967-5.332Z"/>
</svg>