<?xml version="1.0" encoding="UTF-8"?>
<svg id="Layer_1" xmlns="http://www.w3.org/2000/svg" version="1.1" viewBox="0 0 64 64">
  <!-- Generator: Adobe Illustrator 30.3.0, SVG Export Plug-In . SVG Version: 2.1.3 Build 182)  -->
  <path d="M38.282,55.577l-1.166,5.41c-.163.754-.914,1.619-1.778,1.622h-6.701c-1.018.003-1.708-1.053-1.882-1.921l-.695-3.468c-.113-.565-.254-1.12-.501-1.644-1.989-.56-3.72-1.295-5.506-2.327-.167-.071-.679-.135-.866-.01l-4.103,2.758c-.795.534-1.942.544-2.682-.184l-4.241-4.171c-.7-.689-1.025-1.798-.431-2.701l3.078-4.682c-1.114-2-1.904-3.874-2.573-6.05l-5.158-1.132c-.746-.164-1.676-.883-1.68-1.747v-6.296c-.005-1.179.79-1.98,1.866-2.209l4.909-1.049c.254-.519.426-1.022.596-1.569.49-1.571,1.24-2.944,2.032-4.465l-2.959-4.465c-.605-.912-.542-2.116.285-2.938l3.987-3.965c.841-.837,1.908-1.117,2.93-.427l4.516,3.048c2.074-1.093,3.978-1.913,6.167-2.653l1.097-5.196c.193-.915,1.005-1.739,1.997-1.745h5.963c1.017-.006,2.079.655,2.307,1.682l1.169,5.259c2.21.732,4.128,1.536,6.165,2.682l4.37-2.973c1.305-.887,2.503-.427,3.55.782.961,1.11,1.943,1.98,3.039,2.978.748.681,1.617,1.949,1.047,2.967-.839,1.5-1.856,2.831-2.807,4.263-.253.381-.355.838-.13,1.236.921,1.631,1.583,3.192,2.094,5.014.079.283.569.52.873.588l4.386.983c1.014.227,1.77.942,1.769,2.001l-.081,6.62c-.015.904-1.059,1.507-1.843,1.672l-4.446.94c-.197.042-.554.361-.654.534-.555,2.014-1.319,3.721-2.357,5.6l2.982,4.628c.611.948.402,2.03-.374,2.791l-4.319,4.23c-.708.693-1.877.636-2.591.144l-3.731-2.576c-.529-.365-1.052-.376-1.585-.071-1.683.965-3.267,1.65-5.334,2.204ZM45.212,31.953c0-7.29-5.91-13.2-13.2-13.2s-13.2,5.91-13.2,13.2,5.91,13.2,13.2,13.2,13.2-5.91,13.2-13.2Z"/>
</svg>