<?xml version="1.0" encoding="UTF-8"?>
<svg id="Layer_1" xmlns="http://www.w3.org/2000/svg" version="1.1" viewBox="0 0 64 64">
  <!-- Generator: Adobe Illustrator 30.3.0, SVG Export Plug-In . SVG Version: 2.1.3 Build 182)  -->
  <path d="M56.204,63.997l-48.174.003c-4.404-.31-7.762-3.831-8.03-8.158L.034,8.166C.037,3.902,3.489.41,7.711,0h48.569c4.191.388,7.304,3.64,7.72,7.77v48.366c-.419,4.157-3.534,7.386-7.796,7.86ZM19.27,20.702c.056.548.776,1.035,1.292,1.039l3.397.027-.023,2.81c-1.452.894-3.067,1.175-4.719.973-3.452-.421-5.812-3.211-5.894-6.614-.065-2.703,1.191-5.268,3.705-6.492,2.683-1.307,5.912-.792,8.086,1.171.636.574,1.48.498,2.074-.08l2.21-2.153c.631-.614.464-1.47-.142-2.036-1.304-1.216-2.821-2.068-4.57-2.575-4.708-1.364-10.108-.665-13.85,2.626-2.877,2.53-4.194,6.316-4.005,10.109.272,5.454,4.094,10.025,9.484,11.318,1.185.284,2.277.378,3.522.397,3.383.052,6.68-.888,9.359-2.937.314-.24.793-.617.793-1.036l-.008-9.108c0-.613-.739-1.187-1.346-1.187l-8.148.012c-.842.001-1.327.882-1.308,1.544.022.776.012,1.397.093,2.193ZM47.404,21.758l3.161.009.013,2.84c-1.27.735-2.677,1.051-4.083.991-3.76-.162-6.438-3.095-6.479-6.766-.028-2.504.982-4.856,3.249-6.171,2.743-1.591,6.281-1.115,8.611,1.01.439.4,1.173.472,1.644.099.983-.779,1.885-1.632,2.701-2.573.433-.499.268-1.28-.19-1.734-1.506-1.496-3.427-2.431-5.53-2.921-4.465-1.04-9.423-.242-12.909,2.792-2.758,2.4-4.15,5.881-4.109,9.508.078,6.861,5.198,11.976,12.127,12.371,3.753.214,7.391-.704,10.346-2.976.316-.243.731-.695.731-1.095l.004-8.802c0-.707-.59-1.386-1.357-1.387l-8.065-.008c-.753,0-1.422.675-1.424,1.38l-.006,1.94c-.003.809.705,1.488,1.565,1.491ZM28.486,34.297c-1.157-.075-2.191-.098-3.256.013-.77.08-1.468.79-1.472,1.556l-.075,12.376c-.008,1.293-.468,2.613-1.442,3.462-1.664,1.45-4.384,1.428-6.067.005-.862-.729-1.436-1.894-1.444-3.046l-.092-12.55c-.007-1.022-.801-1.86-1.788-1.853l-2.977.021c-.843.006-1.703.798-1.702,1.737l.003,11.821c.001,4.606,2.45,8.756,7.07,10.037,2.415.67,4.925.694,7.37.142,4.358-.985,7.401-4.948,7.418-9.056l.055-13.09c.003-.825-.807-1.525-1.6-1.576ZM53.708,45.971c.003-.736-.504-1.334-1.219-1.516l-9.747-.002v-4.867s11.286-.006,11.286-.006c.935-.067,1.569-.799,1.549-1.7l-.049-2.216c-.015-.664-.666-1.398-1.429-1.398h-15.97c-.995,0-1.834.954-1.833,1.932v19.836c.002.985.694,1.89,1.656,1.907l2.853.051c.893.044,1.915-.617,1.917-1.592l.019-6.724,9.47-.021c.815-.002,1.484-.706,1.487-1.445l.01-2.238Z"/>
</svg>