<?xml version="1.0" encoding="UTF-8"?>
<svg id="Layer_1" xmlns="http://www.w3.org/2000/svg" version="1.1" viewBox="0 0 64 64">
  <!-- Generator: Adobe Illustrator 30.3.0, SVG Export Plug-In . SVG Version: 2.1.3 Build 182)  -->
  <path d="M15.585,14.604c-1.119,2.705-1.237,5.512-.366,8.238-3.746,3.799-3.832,10.278-1.97,14.928,2.202,5.499,7.305,7.598,13.075,8.29-.938,1.194-1.534,2.47-1.77,3.992-3.453,1.559-6.914.95-9.056-2.286-.813-1.229-1.873-2.267-3.242-2.787-.912-.346-2.031-.54-2.788.154-.282.258.138.954.434,1.147,1.767,1.149,2.929,2.703,3.758,4.622,1.747,4.047,6.479,5.034,10.742,3.859l.039,5.957c.003.534-.406,1.093-.737,1.295-.546.333-1.083.353-1.729.134-8.136-2.762-14.97-8.694-18.643-16.496C-2.627,32.998.814,18.197,11.458,9.267,19.344,2.651,29.855.124,39.848,2.704c6.037,1.558,11.541,4.868,15.747,9.458,10.622,11.593,10.66,29.424.004,41.109-3.658,4.011-8.332,7.027-13.437,8.826-.552.195-1.18.248-1.612.028-.383-.196-.927-.717-.928-1.306l-.006-9.363c-.001-1.999-.674-3.798-1.884-5.392,6.153-.776,11.376-3.005,13.362-9.028,1.483-4.982,1.404-10.21-2.231-14.182.788-2.699.761-5.498-.384-8.088-.133-.3-.799-.297-1.137-.267-2.443.38-4.647,1.443-6.668,2.849-.551.384-.96.472-1.628.289-4.697-1.287-9.563-1.242-14.259.048-.612.168-1.004-.033-1.484-.37-2.008-1.409-5.292-3.104-7.719-2.71Z"/>
</svg>