<?xml version="1.0" encoding="UTF-8"?>
<svg id="Layer_1" xmlns="http://www.w3.org/2000/svg" version="1.1" viewBox="0 0 64 64">
  <!-- Generator: Adobe Illustrator 30.3.0, SVG Export Plug-In . SVG Version: 2.1.3 Build 182)  -->
  <path d="M36.416,56.347c-1.576.161-3.003.392-4.488.373-1.434-.018-2.8-.211-4.306-.399,1.218-2.909.885-5.929-.787-8.515l-1.959-2.81c-1.913-2.744-2.197-7.215-6.052-6.973-1.744.11-3.003,1.263-3.534,3.068l-2.93-3.355c-.882-1.01-2.216-1.44-3.527-1.282-1.235.148-2.236.879-3.084,2.078-2.98-9.39-.379-19.625,6.436-26.551C17.35,6.732,24.297,3.825,31.688,3.749c14.898-.152,27.26,11.175,27.774,26.162.099,2.87-.312,5.772-1.229,8.62-.76-1.194-1.729-1.867-3.022-2.067-1.499-.232-2.966.524-3.957,1.683l-2.5,2.926c-.478-1.492-1.402-2.461-2.618-2.869-1.375-.461-2.884-.096-3.871.959-.654.699-1.08,1.571-1.435,2.457-.837,2.092-1.976,3.887-3.324,5.674-1.979,2.624-2.46,5.958-1.09,9.053ZM24.629,25.644c1.104.518,2.524-2.22,1.444-4.519-.583-1.242-1.751-2.235-3.273-2.389-1.728-.174-3.276.717-4.037,2.133-1.524,2.836.802,5.668,1.423,5.244,1.344-.917,2.873-1.206,4.442-.47ZM43.494,25.976c.345.262.695.208.988-.079,1.145-1.124,1.551-2.788.998-4.399-.463-1.35-1.68-2.501-3.254-2.735-1.662-.247-3.276.542-4.085,1.891-.87,1.452-.848,3.233.126,4.591.356.496.762.513,1.27.311,1.313-.521,2.808-.455,3.957.42ZM41.723,33.59c.192-.582-.136-1.122-.467-1.361-.404-.292-.927-.147-1.319.163-4.611,3.658-11.425,3.659-15.922-.075-.478-.397-1.122-.299-1.483.054-.386.377-.421.842-.212,1.414,2.029,5.556,9.18,8.031,14.617,5.184,2.219-1.162,3.994-2.98,4.785-5.379ZM54.675,54.006c-.004-.162.111-.504.288-.611l5.864-3.551c.619-.375,1.208-.818,1.638-1.358.479-.6.344-1.336-.151-1.814-.499-.482-1.138-.459-1.79-.011-2.2,1.513-4.435,2.923-6.822,4.148-.279.143-.699-.002-.729-.231-.023-.175.096-.528.28-.665,2.366-1.759,4.728-3.423,6.962-5.342.585-.502.885-1.162.581-1.845-.268-.601-.987-.978-1.734-.76-.462.135-.947.438-1.344.756l-5.056,4.061c-.861.691-2.116,1.616-2.236.84-.022-.141.038-.476.155-.601l1.874-2.012c1.137-1.221,2.245-2.416,3.244-3.748.393-.525.477-1.151.159-1.708-.244-.426-.819-.801-1.399-.659-.829.204-1.361.835-1.885,1.457l-1.986,2.362c-1.045,1.242-4.365,4.82-5.187,4.298-.152-.097-.32-.551-.261-.724l.748-2.176c.516-1.502.744-3.304-.603-3.588-.466-.098-1.14.044-1.373.516l-1.032,2.091c-.919,2.099-2.13,3.896-3.472,5.736-1.092,1.497-1.547,3.282-1.175,5.118.728,3.59,3.814,6.184,7.533,6.264,5.14.11,10.734-3.242,15.175-5.833.574-.335,1.072-.744,1.367-1.333.231-.461-.014-1.002-.346-1.303-.36-.326-.891-.306-1.371-.069l-5.247,2.6c-.242.12-.667-.144-.671-.306ZM2.845,54.267c4.474,2.65,10.249,6.138,15.46,5.977,4.823-.149,8.391-4.526,7.407-8.96-.507-2.282-2.839-4.258-4.133-7.194-.434-.985-.848-1.936-1.37-2.858-.312-.551-.832-.848-1.446-.727-.462.091-.955.558-1.043,1.173-.121.849.167,1.743.442,2.582l.667,2.036c.058.176-.114.607-.269.689-.621.326-1.955-.968-2.733-1.727-1.352-1.318-2.576-2.653-3.768-4.122-1.013-1.248-2.247-3.013-3.566-1.963-.478.38-.719,1.117-.385,1.718.675,1.215,1.675,2.2,2.624,3.226l2.778,3.003c.155.168.042.714-.142.775-.164.055-.517.001-.704-.146l-5.841-4.596c-.565-.445-1.128-.863-1.772-1.126-.718-.294-1.471.049-1.811.665-.313.568-.1,1.325.471,1.823,2.225,1.941,4.627,3.613,7.006,5.396.232.173.359.556.283.76-.063.17-.522.239-.728.131-2.413-1.26-4.65-2.682-6.903-4.19-.608-.407-1.427-.326-1.844.229-.973,1.294.72,2.439,2.107,3.284l5.445,3.317c.194.118.312.51.258.681-.047.15-.505.26-.66.184l-5.23-2.558c-.468-.229-1.03-.265-1.37.01-.346.279-.563.822-.351,1.375.169.443.688.873,1.122,1.13Z"/>
</svg>