<?xml version="1.0" encoding="UTF-8"?>
<svg id="Layer_1" xmlns="http://www.w3.org/2000/svg" version="1.1" viewBox="0 0 64 64">
  <!-- Generator: Adobe Illustrator 30.3.0, SVG Export Plug-In . SVG Version: 2.1.3 Build 182)  -->
  <path d="M64,56.086c0,4.073-4.061,7.916-7.93,7.914H8.144C3.711,63.998.005,60.107,0,55.784V8.875C-.005,4.191,3.243.379,8.069,0h47.893c4.192.003,8.039,4.164,8.039,7.84v48.246ZM51.511,29.454c3.834-2.308,5.928-6.35,5.811-10.709-.144-5.36-3.731-9.892-9.01-11.286-2.451-.647-5.082-.641-7.528-.017-5.321,1.355-8.949,5.828-9.147,11.197s3.057,10.219,8.247,11.961c3.863,1.296,8.077.992,11.627-1.145ZM27.179,25.499c-1.459.034-2.847.036-4.267-.021h-7.301V9.122c0-1.037-.85-1.803-1.853-1.804h-2.807c-.868,0-1.883.726-1.884,1.765v20.047c0,.958.886,1.851,1.817,1.85h16.705c.922,0,1.477-.915,1.533-1.635.063-.815.059-1.556-.012-2.315-.098-1.038-.84-1.557-1.93-1.531ZM23.318,56.784c.407.647,1.129,1.141,1.859,1.142h3.672c.483,0,.963-.453,1.109-.776.206-.453.144-.943-.131-1.365l-4.129-6.336c2.767-1.304,4.307-3.885,4.339-6.789.033-2.952-1.33-5.622-4.006-7.052-1.635-.873-3.472-1.329-5.389-1.328h-9.651c-1.12,0-2.121.898-2.121,2.056v19.602c0,1.202,1.033,2.022,2.084,2.016h2.704c1.046-.006,1.783-.897,1.789-1.914v-5.387h4.02l3.852,6.133ZM49.651,53.181l1.335,3.233c.377.912,1.033,1.562,2.054,1.563h2.869c.533,0,1.084-.148,1.397-.538.227-.283.493-.942.295-1.396l-8.825-20.205c-.34-.778-1.082-1.536-1.906-1.546l-3.819-.045c-.968-.011-1.874.473-2.284,1.414l-8.887,20.358c-.19.436.004,1.067.249,1.371.194.241.658.564,1.047.566h3.102c.934.003,1.646-.549,1.989-1.383l1.396-3.39h9.988ZM21.585,39.777l-1.345-.266h-4.79v6.002h4.793l1.491-.346c1.186-.425,1.783-1.501,1.733-2.766s-.713-2.218-1.882-2.625ZM50.602,20.672c.273-1.428.206-2.79-.325-4.175-.982-2.562-3.552-4.141-6.313-3.893-1.691.152-3.094.827-4.187,2.107-1.49,1.745-1.904,4.095-1.314,6.313.715,2.688,2.99,4.572,5.875,4.636,3.167.071,5.693-2.006,6.264-4.989ZM44.644,40.589l-3.014,7.525h6.067l-3.053-7.525Z"/>
</svg>