<?xml version="1.0" encoding="UTF-8"?>
<svg id="Layer_1" xmlns="http://www.w3.org/2000/svg" version="1.1" viewBox="0 0 64 64">
  <!-- Generator: Adobe Illustrator 30.3.0, SVG Export Plug-In . SVG Version: 2.1.3 Build 182)  -->
  <path d="M34.137,28.327c-1.479.808-2.86.753-4.258-.007L6.226,15.443,29.954,2.256c1.455-.809,3.087-.627,4.453.112l23.336,13.067-23.605,12.892ZM29.979,35.006c-.13-1.559-1.007-2.655-2.348-3.395L4.5,19.062v26.454c.049,1.91.998,3.354,2.674,4.186l22.805,12.571v-27.268ZM57.118,49.448c1.292-.724,2.382-2.042,2.382-3.64v-26.78l-22.682,12.353c-1.434.652-2.402,1.771-2.748,3.321v27.562l5.169-2.795,17.88-10.021Z"/>
</svg>