<?xml version="1.0" encoding="UTF-8"?>
<svg id="Layer_1" xmlns="http://www.w3.org/2000/svg" version="1.1" viewBox="0 0 64 64">
  <!-- Generator: Adobe Illustrator 30.3.0, SVG Export Plug-In . SVG Version: 2.1.3 Build 182)  -->
  <path d="M6.472,18.561c-.066-1.456-.082-2.954.009-4.442.065-1.064.712-2.105,1.715-2.566L30.183,1.435c1.126-.518,2.323-.569,3.453-.053l22.033,10.067c1.149.525,1.911,1.574,1.912,2.819v4.294c.001,1.429-.888,2.352-2.126,2.914l-22.105,10.051c-1.044.297-1.88.364-2.803-.055l-21.768-9.886c-1.312-.596-2.237-1.506-2.307-3.027ZM56.387,26.587c-.784-.529-1.771-.792-2.735-.353l-19.55,8.902c-1.216.554-2.715.661-3.973.091l-19.776-8.958c-.923-.418-1.922-.231-2.67.344-.644.495-1.193,1.3-1.218,2.278-.045,1.79-.059,3.551,0,5.349.041,1.274.893,2.304,2.031,2.823l21.644,9.889c1.03.471,2.08.748,3.163.254l22.531-10.28c1.095-.5,1.755-1.543,1.751-2.732v-5.131c-.004-1.045-.443-1.968-1.196-2.475ZM56.415,42.176c-.683-.493-1.717-.766-2.559-.383l-20.14,9.177c-1.096.5-2.292.501-3.388,0l-20.129-9.197c-.881-.403-1.887-.075-2.582.437-.618.455-1.116,1.269-1.145,2.175-.06,1.836-.065,3.634.003,5.475.044,1.196.763,2.22,1.866,2.723l21.317,9.734c1.415.646,2.548.956,3.996.297l21.856-9.935c1.142-.519,2.068-1.35,2.07-2.742v-5.698c.001-.883-.62-1.672-1.164-2.065Z"/>
</svg>