<?xml version="1.0" encoding="UTF-8"?>
<svg id="Layer_1" xmlns="http://www.w3.org/2000/svg" version="1.1" viewBox="0 0 64 64">
  <!-- Generator: Adobe Illustrator 30.3.0, SVG Export Plug-In . SVG Version: 2.1.3 Build 182)  -->
  <path d="M26.315,53.742l-16.173-16.172c-2.789,1.375-6.01.665-7.931-1.685-1.874-2.292-1.883-5.609.03-7.978,1.822-2.256,5.061-3.093,7.792-1.687.501-.417,1.024-.829,1.45-1.307.683-.766,1.351-1.366,2.088-2.101l12.73-12.669c-1.506-2.76-.736-6.054,1.629-7.939,2.316-1.846,5.702-1.865,8.018.059,2.29,1.901,3.019,5.179,1.596,7.858.751.846,1.488,1.436,2.248,2.192l14.053,13.984c2.785-1.371,6.005-.742,7.887,1.563,1.922,2.353,1.955,5.673.057,8.051-1.868,2.34-5.173,3.044-7.95,1.646l-16.308,16.276c1.487,2.642.701,6.02-1.584,7.893-2.339,1.918-5.662,1.943-8.005.06-2.318-1.863-3.2-5.194-1.628-8.043ZM25.769,30.057c.737-2.18,2.198-3.592,4.233-4.294.138-2.217.076-4.366.087-6.554v-5.805l-1.311-.641-15.938,15.894c.041.514.25.994.6,1.401h12.329ZM50.765,30.056l.48-1.182-16.16-16.077-1.38.557v12.377c2.121.696,3.637,2.2,4.318,4.325h12.742ZM35.069,51.112l16.147-15.987c-.144-.531-.321-1.001-.557-1.45l-1.004.102h-11.653c-.671,2.144-2.201,3.66-4.298,4.255v12.611l1.366.47ZM30.039,46.427c-.032-1.803-.081-3.571.073-5.385l-.178-3.065c-2.079-.639-3.508-2.204-4.19-4.199h-12.356c-.306.298-.563.95-.534,1.415l15.989,15.871c.465-.087.9-.283,1.27-.556l-.071-4.082Z"/>
</svg>