<?xml version="1.0" encoding="UTF-8"?>
<svg id="Layer_1" xmlns="http://www.w3.org/2000/svg" version="1.1" viewBox="0 0 64 64">
  <!-- Generator: Adobe Illustrator 30.3.0, SVG Export Plug-In . SVG Version: 2.1.3 Build 182)  -->
  <path d="M29.353,6.205v19.036c0,1.135-.46,2.163-1.204,2.907-.744.744-1.772,1.204-2.907,1.204H6.205c-2.271,0-4.112-1.841-4.112-4.112V6.205c0-1.135.46-2.163,1.204-2.907.744-.744,1.772-1.204,2.907-1.204h19.036c2.271,0,4.112,1.841,4.112,4.112ZM60.702,3.298c-.744-.744-1.772-1.204-2.907-1.204h-19.036c-2.271,0-4.112,1.841-4.112,4.112v19.036c0,1.135.46,2.163,1.204,2.907.744.744,1.772,1.204,2.907,1.204h19.036c2.271,0,4.112-1.841,4.112-4.112V6.205c0-1.135-.46-2.163-1.204-2.907ZM57.795,34.647h-19.036c-1.135,0-2.163.46-2.907,1.204-.744.744-1.204,1.772-1.204,2.907v19.036c0,2.271,1.841,4.112,4.112,4.112h19.036c1.135,0,2.163-.46,2.907-1.204.744-.744,1.204-1.772,1.204-2.907v-19.036c0-2.271-1.841-4.112-4.112-4.112ZM25.241,34.647H6.205c-2.271,0-4.112,1.841-4.112,4.112v19.036c0,1.135.46,2.163,1.204,2.907.744.744,1.772,1.204,2.907,1.204h19.036c2.271,0,4.112-1.841,4.112-4.112v-19.036c0-1.135-.46-2.163-1.204-2.907-.744-.744-1.772-1.204-2.907-1.204Z"/>
</svg>