<?xml version="1.0" encoding="UTF-8"?>
<svg id="Layer_1" xmlns="http://www.w3.org/2000/svg" version="1.1" viewBox="0 0 64 64">
  <!-- Generator: Adobe Illustrator 30.3.0, SVG Export Plug-In . SVG Version: 2.1.3 Build 182)  -->
  <path d="M40.718,32.013c0,4.814-3.903,8.717-8.717,8.717s-8.717-3.903-8.717-8.717,3.903-8.717,8.717-8.717,8.717,3.903,8.717,8.717ZM20.631,18.212c.874-1.477,1.003-3.035.692-4.687,1.055-.527,2.061-.993,3.116-1.454-.581-1.076-.914-2.077-1.181-3.217-1.25.529-2.405,1.042-3.596,1.648-1.109-1.164-2.473-1.836-4.047-1.983-2.814-.262-5.412,1.27-6.565,3.753-1.176,2.533-.549,5.493,1.446,7.41-.64,1.219-1.176,2.33-1.654,3.573,1.165.261,2.146.592,3.235,1.192.45-1.076.897-2.094,1.43-3.131,1.657.32,3.222.211,4.7-.674l4.374,4.376,2.41-2.455-4.36-4.353ZM47.795,30.291h-4.258c.109,1.215.105,2.242.01,3.449h4.239c-.169-1.249-.166-2.288.009-3.449ZM20.476,30.291h-4.249c.439,1.901-.383,3.46.445,3.453h3.809c-.164-1.374-.144-2.29-.005-3.453ZM41.433,25.035l4.377-4.403c1.422.85,2.989,1.031,4.674.693.559.982.994,2.016,1.426,3.116,1.063-.551,2.046-.908,3.218-1.198-.495-1.258-1.014-2.427-1.607-3.563,2.667-2.571,2.677-6.764.106-9.316-2.557-2.539-6.736-2.509-9.339.153-1.156-.641-2.301-1.182-3.561-1.59-.286,1.19-.625,2.145-1.143,3.137,1.109.474,2.092.933,3.111,1.48-.431,1.718-.063,3.226.677,4.742-1.029.922-1.93,1.798-2.836,2.747-.509.532-1.118,1.012-1.52,1.593.98.793,1.632,1.463,2.417,2.409ZM31.998.593c-3.856,0-6.983,3.126-6.983,6.983s3.126,6.983,6.983,6.983,6.983-3.126,6.983-6.983-3.126-6.983-6.983-6.983ZM33.687,16.236c-1.178.188-2.236.17-3.408-.002v4.203h3.408v-4.201ZM32.002,49.445c-3.855,0-6.981,3.125-6.981,6.981s3.125,6.981,6.981,6.981,6.981-3.125,6.981-6.981-3.125-6.981-6.981-6.981ZM33.685,43.555c-1.183.092-2.253.074-3.405.022v4.158c1.107-.079,2.202-.083,3.405.002v-4.182ZM53.665,53.605c2.549-2.571,2.51-6.775-.169-9.294.632-1.189,1.176-2.346,1.614-3.56-1.182-.276-2.162-.669-3.172-1.178l-1.446,3.1c-1.694-.289-3.221-.119-4.702.696l-4.389-4.393-1.235,1.417-1.146,1.05,4.362,4.373c-.825,1.548-1.095,3.059-.673,4.657l-3.158,1.472c.531,1.016.912,1.984,1.2,3.162,1.22-.438,2.365-.988,3.574-1.607,2.593,2.741,6.776,2.692,9.339.107ZM56.434,25.012c-3.856,0-6.982,3.126-6.982,6.982s3.126,6.982,6.982,6.982,6.982-3.126,6.982-6.982-3.126-6.982-6.982-6.982ZM19.674,53.514l3.563,1.616c.293-1.176.682-2.134,1.165-3.171l-3.078-1.46c.336-1.715.15-3.282-.71-4.723l4.404-4.338c-.957-.795-1.631-1.507-2.402-2.453l-1.455,1.451c-.899.896-1.791,1.681-2.618,2.663-.122.145-.456.239-.632.147-1.387-.726-2.841-.883-4.371-.54l-1.466-3.176c-1.034.655-2.029.906-3.172,1.237.451,1.299.973,2.395,1.611,3.536-2.754,2.619-2.731,6.871.047,9.494,2.621,2.476,6.642,2.282,9.114-.283ZM7.567,25.018c-3.856,0-6.983,3.126-6.983,6.983s3.126,6.983,6.983,6.983,6.983-3.126,6.983-6.983-3.126-6.983-6.983-6.983Z"/>
</svg>