<?xml version="1.0" encoding="UTF-8"?>
<svg id="Layer_1" xmlns="http://www.w3.org/2000/svg" version="1.1" viewBox="0 0 64 64">
  <!-- Generator: Adobe Illustrator 30.3.0, SVG Export Plug-In . SVG Version: 2.1.3 Build 182)  -->
  <path d="M60.039,58.92c-3.822,4.456-10.434,5.061-14.914,1.643-3.219-2.456-4.847-6.411-4.103-10.414l-21.007-11.074c-3.73,3.83-9.239,4.749-13.917,1.953C1.529,38.296-.254,32.487,1.953,27.603c1.486-3.287,4.596-5.522,7.887-6.114,3.835-.69,7.511.581,10.154,3.336l21.06-11.103c-1.156-5.775,2.603-11.317,8.333-12.528,5.838-1.234,11.643,2.294,12.922,8.153.767,3.514-.317,7.053-2.697,9.59-2.451,2.612-5.954,3.747-9.573,3.214-2.453-.362-4.699-1.454-6.314-3.325l-21.172,11.167c.205,1.334.206,2.599-.001,3.942l21.125,11.07c4.517-4.897,12.011-4.716,16.374.305,3.335,3.838,3.319,9.725-.012,13.609Z"/>
</svg>