<?xml version="1.0" encoding="UTF-8"?>
<svg id="Layer_1" xmlns="http://www.w3.org/2000/svg" version="1.1" viewBox="0 0 64 64">
  <!-- Generator: Adobe Illustrator 30.3.0, SVG Export Plug-In . SVG Version: 2.1.3 Build 182)  -->
  <path d="M11.753,32c0,3.203-2.597,5.8-5.8,5.8S.153,35.203.153,32s2.597-5.8,5.8-5.8,5.8,2.597,5.8,5.8ZM58.047,16.024c-3.203,0-5.8,2.597-5.8,5.8s2.597,5.8,5.8,5.8,5.8-2.597,5.8-5.8-2.597-5.8-5.8-5.8ZM48.774,42.176c0-5.121,4.152-9.273,9.273-9.273v-1.806c-5.121,0-9.273-4.152-9.273-9.273,0-4.962,3.901-9.002,8.802-9.249-1.247-3.842-4.851-6.622-9.109-6.622H15.533c-5.291,0-9.58,4.289-9.58,9.58v7.194c5.121,0,9.273,4.152,9.273,9.273s-4.152,9.273-9.273,9.273v7.194c0,5.291,4.289,9.58,9.58,9.58h32.934c4.258,0,7.862-2.78,9.109-6.622-4.901-.247-8.802-4.287-8.802-9.249ZM58.047,36.376c-3.203,0-5.8,2.597-5.8,5.8s2.597,5.8,5.8,5.8,5.8-2.597,5.8-5.8-2.597-5.8-5.8-5.8Z"/>
</svg>