<?xml version="1.0" encoding="UTF-8"?>
<svg id="Layer_1" xmlns="http://www.w3.org/2000/svg" version="1.1" viewBox="0 0 64 64">
  <!-- Generator: Adobe Illustrator 30.3.0, SVG Export Plug-In . SVG Version: 2.1.3 Build 182)  -->
  <path d="M49.112,34.192H14.796v7.164c3.983.834,7.107,3.748,8.251,7.358,1.328,4.189.025,8.599-3.15,11.373-4.14,3.617-10.155,3.634-14.24.186-4.031-3.402-5.124-9.333-2.256-13.946,1.589-2.556,4.16-4.241,7.067-4.963.062-2.561-.098-4.937.101-7.413.165-2.052,1.765-4.042,3.901-4.052h15.378v-7.28c-2.212-.5-3.987-1.478-5.549-3.016-4.615-4.542-4.125-12.12.972-16.085,4.601-3.58,11.003-2.999,14.854,1.291,3.8,4.233,3.686,10.821-.458,14.857-1.549,1.509-3.349,2.483-5.494,2.943v7.254h15.414c1.97.008,3.745,1.952,3.768,3.868l.092,7.615c4.654,1.047,8.238,4.751,8.708,9.508.525,5.321-2.724,10.029-7.781,11.519-3.741,1.102-7.6.154-10.433-2.433s-4.073-6.433-3.227-10.331c.894-4.126,4.185-7.247,8.4-8.212v-7.204Z"/>
</svg>