<?xml version="1.0" encoding="UTF-8"?>
<svg id="Layer_1" xmlns="http://www.w3.org/2000/svg" version="1.1" viewBox="0 0 64 64">
  <!-- Generator: Adobe Illustrator 30.3.0, SVG Export Plug-In . SVG Version: 2.1.3 Build 182)  -->
  <path d="M30.279,46.979l1.767,1.761c.463-1.377,1.591-2.566,3.088-2.569h10.972c1.677.267,2.818,1.543,2.979,3.239v10.42c-.005,1.637-1.428,3.184-3.114,3.188h-10.723c-1.612.004-3.027-1.288-3.165-2.897-.171-1.994-.006-3.906-.078-5.924l-13.095-13.19c-.802.575-1.558.699-2.452.698H4.12c-1.672-.261-2.93-1.44-3.142-3.113v-13.26c.29-1.655,1.498-2.716,3.166-3.009h12.973c1.64.286,2.843,1.303,3.164,2.913v4.863h8.607l15.538-15.512V4.306c.007-1.817,1.437-3.168,3.193-3.324h10.852c1.647.006,2.996,1.575,2.994,3.181v10.681c-.002,1.678-1.652,3.066-3.298,3.067h-10.505c-.32,0-.706-.2-1.076-.176l-12.332,12.349h10.157v-3.943c.182-1.82,1.605-3.314,3.497-3.309h11.988c1.572.004,3.126,1.617,3.125,3.212v11.898c0,1.716-1.555,3.242-3.229,3.242h-12.092c-1.761,0-3.215-1.638-3.242-3.315l-.062-3.943h-24.105v3.12l9.987,9.931Z"/>
</svg>