<?xml version="1.0" encoding="UTF-8"?>
<svg id="Layer_1" xmlns="http://www.w3.org/2000/svg" version="1.1" viewBox="0 0 64 64">
  <!-- Generator: Adobe Illustrator 30.3.0, SVG Export Plug-In . SVG Version: 2.1.3 Build 182)  -->
  <path d="M41.557,43.094c-5.539,4.646-13.495,4.675-19.058.034-.57.397-1.044.89-1.529,1.399-.432.454-.926.832-1.35,1.391,2.317,3.195,2.701,7.188.956,10.835-1.488,3.111-4.762,5.45-8.448,5.72-3.278.24-6.415-1.017-8.568-3.394-2.19-2.418-3.183-5.78-2.498-8.984.955-4.467,4.516-7.646,9.024-8.213,2.682-.337,5.339.413,7.547,2.016l.939-.868,1.988-1.94c-2.33-2.863-3.421-6.358-3.243-9.982.41-8.351,7.691-14.612,16.014-13.858,3.061.277,5.915,1.427,8.312,3.47l2.746-2.754c-2.485-3.344-2.705-7.761-.628-11.35,1.992-3.44,5.793-5.421,9.884-5.093,6.49.52,10.959,7.001,9.048,13.279-1.379,4.53-5.803,7.621-10.536,7.347-2.196-.127-4.091-.945-5.866-2.244l-2.772,2.739c4.235,5.432,4.288,13.063-.085,18.481l2.95,2.878c3.975-3.055,9.43-2.905,13.17.324,3.705,3.198,4.715,8.594,2.24,12.911-2.869,5.004-9.206,6.775-14.259,3.869-5.305-3.051-6.886-10.079-3.122-15.139l-2.857-2.875ZM29.526,38.052c.393.391.833.55,1.267.225.378-.284.652-.689,1.004-1.041l8.208-8.222c.338-.338.328-.85.004-1.175l-1.735-1.74c-.319-.32-.843-.325-1.172.005l-5.604,5.627c-.405.407-.718.838-1.181,1.233l-3.531-3.532c-.157-.138-.731-.146-.883.006l-1.912,1.92c-.455.457-.17,1.015.192,1.375l5.344,5.319Z"/>
</svg>