<?xml version="1.0" encoding="UTF-8"?>
<svg id="Layer_1" xmlns="http://www.w3.org/2000/svg" version="1.1" viewBox="0 0 64 64">
  <!-- Generator: Adobe Illustrator 30.3.0, SVG Export Plug-In . SVG Version: 2.1.3 Build 182)  -->
  <path id="Crown" d="M60.371,62.705H3.629c10.359,0,20.393-3.617,28.371-10.224,7.978,6.609,18.012,10.224,28.371,10.224ZM31.998,47.399c6.54,0,10.788-3.42,12.478-5.221l7.687-32.507-5.934,5.935c-.922.923-1.169,2.309-.664,3.513,1.327,3.161-.402,7.411-1.223,10.715l-4.449-4.062c-1.025-.937-1.288-2.453-.626-3.673.964-1.775,1.806-4.66.146-7.89l-6.64-12.915v12.244c0,.735.34,1.42.901,1.895.592.502.956,1.263.916,2.109-.063,1.333-1.24,2.459-2.574,2.468h-.037c-1.334-.009-2.511-1.135-2.574-2.468-.04-.845.324-1.608.916-2.109.561-.475.901-1.16.901-1.895V1.295l-6.64,12.915c-1.661,3.229-.818,6.115.146,7.89.662,1.22.401,2.736-.626,3.673l-4.449,4.062c-.822-3.305-2.55-7.555-1.223-10.715.505-1.204.259-2.589-.664-3.513l-5.934-5.935,7.687,32.507c1.69,1.8,5.936,5.221,12.476,5.221Z"/>
</svg>