<?xml version="1.0" encoding="UTF-8"?>
<svg id="Layer_1" xmlns="http://www.w3.org/2000/svg" version="1.1" viewBox="0 0 64 64">
  <!-- Generator: Adobe Illustrator 30.3.0, SVG Export Plug-In . SVG Version: 2.1.3 Build 182)  -->
  <path d="M29.663,59.707c1.809-2.123,2.391-4.83,1.183-7.333-1.127-2.336-3.531-3.822-6.298-3.665-2.506.142-4.569,1.692-5.516,3.82-1.055,2.372-.525,4.945,1.089,6.902.469.568.571,1.251.342,1.949-.154.47-.709,1.143-1.445,1.142H4.452c-1.539-.002-3.075-1.513-3.076-3.083v-14.422c0-.678.585-1.293,1.045-1.528.659-.337,1.487-.202,2.05.307,2.364,2.135,5.952,2.384,8.445.336,2.88-2.366,3.276-6.575.956-9.417-2.344-2.873-6.402-3.242-9.185-.801-.577.506-1.271.747-1.999.538-.559-.16-1.297-.787-1.296-1.573v-14.526c.004-1.675,1.651-2.963,3.214-2.966h14.235c.686-.001,1.297-.627,1.513-1.06,1.001-2.005-2.247-3.116-1.91-6.858.22-2.444,1.757-4.523,3.81-5.43,2.379-1.052,4.959-.655,6.876.95,2.764,2.314,3.14,6.32.83,9.076-.51.609-.672,1.401-.346,2.193.229.556.922,1.126,1.721,1.126h13.626c1.59,0,2.908.799,3.428,2.313.37,1.077.174,2.134.173,3.259v11.558c-.001.9.622,1.624,1.246,1.908.88.401,1.624.057,2.322-.518,2.774-2.285,7.016-1.838,9.159,1.066,1.098,1.487,1.551,3.294,1.256,5.029-.408,2.397-1.933,4.225-3.943,5.025-2.355.937-4.797.432-6.657-1.121-.689-.575-1.474-.745-2.215-.35-.75.399-1.157,1.064-1.155,2.039v9.936c.003,1.318.131,2.531.011,3.847-.147,1.622-1.42,3.159-3.164,3.162h-14.257c-.647,0-1.227-.406-1.497-.826-.281-.436-.431-1.502-.005-2.003Z"/>
</svg>