<?xml version="1.0" encoding="UTF-8"?>
<svg id="Layer_1" xmlns="http://www.w3.org/2000/svg" version="1.1" viewBox="0 0 64 64">
  <!-- Generator: Adobe Illustrator 30.3.0, SVG Export Plug-In . SVG Version: 2.1.3 Build 182)  -->
  <path d="M64,7.454c-.558-3.982-3.589-7.049-7.648-7.454H7.548C3.451.49.414,3.63.001,7.667v48.395c.221,2.354,1.196,4.362,3.035,5.902,1.26,1.054,3.01,2.023,4.815,2.024h48.424c4.154-.507,7.258-3.578,7.724-7.63V7.454h0ZM22.091,30.855h-3.483c-1.045,0-1.91-.708-2.311-1.661L7.637,8.484c-.295-.717.35-1.625,1.159-1.711,1.22-.129,2.469-.042,3.733-.066.877.068,1.413.613,1.805,1.393l6.043,14.994,5.924-14.966c.295-.745.941-1.374,1.754-1.397,1.212-.035,2.39-.053,3.565.019.876.054,1.444.856,1.259,1.737l-8.717,20.864c-.359.859-1.179,1.504-2.07,1.505h-.001ZM42.31,56.407c-.006.884-.736,1.579-1.691,1.579h-15.822c-.986,0-2.14-.571-2.14-1.721v-20.28c0-.945.846-1.505,1.664-1.728h16.168c.833,0,1.462.781,1.462,1.488v2.32c0,.824-.623,1.374-1.445,1.516h-11.414v3.779h10.037c.752.197,1.302.639,1.291,1.407l-.034,2.501c-.009.68-.782,1.119-1.462,1.188h-9.832v4.221h11.682c1.018.105,1.542.77,1.536,1.705,0,0,0,2.025,0,2.025ZM56.306,30.152c-.212.352-.771.701-1.289.702h-3.092c-.942-.086-1.622-.549-2.013-1.381l-1.445-3.478h-10.117l-1.454,3.515c-.326.788-.95,1.219-1.843,1.346h-3.089c-.455-.002-.979-.304-1.209-.591-.278-.347-.509-.865-.3-1.346l8.885-20.454c.377-.868,1.088-1.671,2.046-1.718,1.395-.069,2.711-.062,4.113-.005.834.034,1.616.707,1.962,1.496l8.943,20.392c.239.545.191,1.044-.097,1.522h-.001ZM43.402,13.111l3.105,7.777h-6.204l3.099-7.777Z"/>
</svg>