<?xml version="1.0" encoding="UTF-8"?>
<svg id="Layer_1" xmlns="http://www.w3.org/2000/svg" version="1.1" viewBox="0 0 64 64">
  <!-- Generator: Adobe Illustrator 30.3.0, SVG Export Plug-In . SVG Version: 2.1.3 Build 182)  -->
  <path d="M62.23,32c0,16.696-13.535,30.23-30.23,30.23S1.77,48.696,1.77,32,15.304,1.77,32,1.77s30.23,13.535,30.23,30.23ZM34.801,35.001l1.302-18.219c.123-1.723-.826-3.222-2.47-3.279-2.513-.086-5.165-.413-5.643,2.163-.141.761-.061,1.517-.002,2.325l1.27,17.226c.084,1.144,1.071,1.969,2.052,2.198,1.666.389,3.36-.572,3.492-2.416ZM36.141,44.549c0-2.28-1.849-4.129-4.129-4.129s-4.129,1.849-4.129,4.129,1.849,4.129,4.129,4.129,4.129-1.849,4.129-4.129Z"/>
</svg>