<?xml version="1.0" encoding="UTF-8"?>
<svg id="Layer_1" xmlns="http://www.w3.org/2000/svg" version="1.1" viewBox="0 0 64 64">
  <!-- Generator: Adobe Illustrator 30.3.0, SVG Export Plug-In . SVG Version: 2.1.3 Build 182)  -->
  <path d="M5.398,60.935c-1.568,0-2.87-1.049-3.524-2.125-.793-1.305-.993-2.939-.242-4.332L27.944,5.673c.856-1.588,2.294-2.616,4.055-2.608,1.789.007,3.212,1.024,4.065,2.606l26.17,48.526c.78,1.447.83,3.07-.009,4.486-.684,1.154-1.972,2.253-3.567,2.253H5.398ZM34.724,40.395l1.437-18.82c.105-1.382-1.127-2.572-2.326-2.617-1.294-.049-2.383-.06-3.643.007-1.437.076-2.506,1.43-2.387,2.922l1.47,18.546c.121,1.522,1.412,2.325,2.778,2.299s2.555-.809,2.671-2.337ZM36.119,49.533c0-2.279-1.847-4.126-4.126-4.126s-4.126,1.847-4.126,4.126,1.847,4.126,4.126,4.126,4.126-1.847,4.126-4.126Z"/>
</svg>