<?xml version="1.0" encoding="UTF-8"?>
<svg id="Layer_1" xmlns="http://www.w3.org/2000/svg" version="1.1" viewBox="0 0 64 64">
  <!-- Generator: Adobe Illustrator 30.3.0, SVG Export Plug-In . SVG Version: 2.1.3 Build 182)  -->
  <path d="M48.94,5.329h11.379c1.473.004,2.975,1.528,2.982,2.999v10.509c.009,1.815-1.546,3.402-3.349,3.416h-2.75v18.407c-.012,4.413-3.973,7.552-8.251,7.423l-3.89-.117v6.628c-.013,1.992-1.909,4.08-4.006,4.086h-18.232c-2.045-.335-3.607-1.945-3.905-3.983v-6.63h-4.89c-3.702-.025-7.178-3.303-7.198-7.156v-18.649l-2.928-.034c-1.475-.018-3.195-1.443-3.203-3.035v-10.986c.341-1.522,1.468-2.588,2.992-2.887h11.006c1.579.007,3,1.576,3.009,3.122v10.005c.011,1.898-1.135,3.648-3.149,3.781-.956.063-1.944.022-2.97.031v18.424c.205,1.166,1.118,2.326,2.375,2.433,1.643.14,3.25.038,4.956.049v-6.729c.267-2.001,1.774-3.554,3.775-3.9h18.488c2.305.336,3.92,2.217,3.893,4.526v6.115l4.856-.052c1.469-.016,2.441-1.518,2.481-2.939v-17.92l-3.011-.048c-1.567-.025-3.132-1.612-3.135-3.261v-10.257c-.003-1.656,1.071-2.767,2.674-3.372Z"/>
</svg>