<?xml version="1.0" encoding="UTF-8"?>
<svg id="Layer_1" xmlns="http://www.w3.org/2000/svg" version="1.1" viewBox="0 0 64 64">
  <!-- Generator: Adobe Illustrator 30.3.0, SVG Export Plug-In . SVG Version: 2.1.3 Build 182)  -->
  <path d="M50.698,58.229l-.06-2.263h-14.15c-1.404-.001-2.685-1.201-2.854-2.522l-.078-2.471-9.081-.081c-3.27-.029-6.055-2.85-6.112-6.075v-18.94c.001-1.496,1.123-3.011,2.74-3.016h16.125v-6.901c-.002-.92-.806-1.524-1.66-1.634h-11.366l-.05,2.087c-.035,1.495-1.247,2.909-2.86,2.907H3.142c-1.53-.002-2.671-1.47-2.674-2.856V7.637c-.003-1.535,1.086-3.074,2.829-3.074h18.183c1.13,0,2.088.93,2.418,1.855.363,1.017.286,1.963.227,3.096h12.409c3.255.69,5.469,3.13,5.533,6.448v18.539c0,1.636-1.112,3.141-2.864,3.145h-16.011v6.9c.002.885.847,1.475,1.652,1.6h8.703l.074-2.114c.047-1.336,1.133-2.845,2.692-2.852h14.319l.049-2.262c.012-.539.61-1.078,1.008-1.195.621-.183,1.131.113,1.61.557l9.623,8.909c.404.374.654.926.613,1.369-.056.595-.387,1-.82,1.406l-9.475,8.956c-.387.372-.97.602-1.42.491-.505-.125-1.104-.483-1.122-1.181Z"/>
</svg>