<?xml version="1.0" encoding="UTF-8"?>
<svg id="Layer_1" xmlns="http://www.w3.org/2000/svg" version="1.1" viewBox="0 0 64 64">
  <!-- Generator: Adobe Illustrator 30.3.0, SVG Export Plug-In . SVG Version: 2.1.3 Build 182)  -->
  <path d="M58.305,24h-18.305V5.695c0-2.167-1.757-3.924-3.924-3.924h-8.152c-2.167,0-3.924,1.757-3.924,3.924v18.305H5.695c-2.167,0-3.924,1.757-3.924,3.924v8.152c0,2.167,1.757,3.924,3.924,3.924h18.305v18.305c0,2.167,1.757,3.924,3.924,3.924h8.152c2.167,0,3.924-1.757,3.924-3.924v-18.305h18.305c2.167,0,3.924-1.757,3.924-3.924v-8.152c0-2.167-1.757-3.924-3.924-3.924Z"/>
</svg>