<?xml version="1.0" encoding="UTF-8"?>
<svg id="Layer_1" xmlns="http://www.w3.org/2000/svg" version="1.1" viewBox="0 0 64 64">
  <!-- Generator: Adobe Illustrator 30.3.0, SVG Export Plug-In . SVG Version: 2.1.3 Build 182)  -->
  <path d="M45.379,22.997v33.981c0,2.424-1.965,4.39-4.39,4.39H7.009c-2.424,0-4.39-1.965-4.39-4.39V22.997c0-2.424,1.965-4.39,4.39-4.39h33.981c2.424,0,4.39,1.965,4.39,4.39ZM56.991,2.633H14.461c-2.424,0-4.39,1.965-4.39,4.39v3.584h30.918c6.832,0,12.39,5.558,12.39,12.39v30.946h3.612c2.424,0,4.39-1.965,4.39-4.389V7.023c0-2.424-1.965-4.39-4.39-4.39Z"/>
</svg>