<?xml version="1.0" encoding="UTF-8"?>
<svg id="Layer_1" xmlns="http://www.w3.org/2000/svg" version="1.1" viewBox="0 0 64 64">
  <!-- Generator: Adobe Illustrator 30.3.0, SVG Export Plug-In . SVG Version: 2.1.3 Build 182)  -->
  <path d="M62.604,30.47c-2.22-5.008-5.961-9.473-10.494-12.923l7.926-7.926c1.562-1.562,1.562-4.095,0-5.657-1.561-1.562-4.096-1.562-5.656,0l-9.349,9.349c-4.183-1.916-8.653-3.02-13.031-3.02-12.354,0-25.498,8.657-30.604,20.177-.43.971-.436,2.071-.013,3.046,2.218,5.116,5.806,9.662,10.302,13.143l-7.722,7.722c-1.562,1.562-1.562,4.095,0,5.656.781.781,1.805,1.172,2.829,1.172s2.047-.391,2.829-1.172l9.16-9.16c4.066,1.797,8.534,2.832,13.22,2.832,13.691,0,25.62-8.665,30.618-20.192.423-.975.417-2.075-.013-3.046ZM17.715,32.599c0-7.889,6.396-14.285,14.285-14.285,2.331,0,4.525.57,6.469,1.56l-4.623,4.623c-.594-.135-1.21-.213-1.845-.213-4.592,0-8.314,3.722-8.314,8.314,0,.635.078,1.251.213,1.845l-4.623,4.623c-.99-1.944-1.56-4.138-1.56-6.468ZM32,46.884c-2.646,0-5.116-.732-7.241-1.987l4.468-4.468c.869.308,1.799.484,2.773.484,4.592,0,8.314-3.722,8.314-8.314,0-.974-.176-1.905-.484-2.773l4.468-4.468c1.254,2.125,1.987,4.595,1.987,7.241,0,7.889-6.396,14.285-14.285,14.285Z"/>
</svg>