<?xml version="1.0" encoding="UTF-8"?>
<svg id="Layer_1" xmlns="http://www.w3.org/2000/svg" version="1.1" viewBox="0 0 64 64">
  <!-- Generator: Adobe Illustrator 30.3.0, SVG Export Plug-In . SVG Version: 2.1.3 Build 182)  -->
  <path d="M32,10.292c-12.354,0-25.498,8.657-30.604,20.177-.43.971-.436,2.071-.013,3.046,4.998,11.527,16.927,20.192,30.618,20.192s25.62-8.665,30.618-20.192c.423-.975.417-2.075-.013-3.046-5.106-11.52-18.25-20.177-30.604-20.177ZM32,46.884c-7.889,0-14.285-6.396-14.285-14.285s6.396-14.285,14.285-14.285,14.285,6.396,14.285,14.285-6.396,14.285-14.285,14.285ZM40.314,32.599c0,4.592-3.722,8.314-8.314,8.314s-8.314-3.722-8.314-8.314,3.722-8.314,8.314-8.314,8.314,3.722,8.314,8.314Z"/>
</svg>