<?xml version="1.0" encoding="UTF-8"?>
<svg id="Layer_1" xmlns="http://www.w3.org/2000/svg" version="1.1" viewBox="0 0 64 64">
  <!-- Generator: Adobe Illustrator 30.3.0, SVG Export Plug-In . SVG Version: 2.1.3 Build 182)  -->
  <path d="M61,54.022v3.957c0,1.117-.905,2.022-2.022,2.022H5.022c-1.117,0-2.022-.905-2.022-2.022v-3.957c0-1.116.905-2.022,2.022-2.022h53.957c1.117,0,2.022.905,2.022,2.022ZM8,38.022v3.957c0,1.117.905,2.022,2.022,2.022h43.957c1.117,0,2.022-.905,2.022-2.022v-3.957c0-1.116-.905-2.022-2.022-2.022H10.022c-1.117,0-2.022.905-2.022,2.022ZM58.978,20H25.022c-1.117,0-2.022.905-2.022,2.022v3.957c0,1.117.905,2.022,2.022,2.022h33.957c1.117,0,2.022-.905,2.022-2.022v-3.957c0-1.116-.905-2.022-2.022-2.022ZM5.022,12h13.957c1.117,0,2.022-.905,2.022-2.022v-3.957c0-1.116-.905-2.022-2.022-2.022H5.022c-1.117,0-2.022.905-2.022,2.022v3.957c0,1.117.905,2.022,2.022,2.022Z"/>
</svg>