<?xml version="1.0" encoding="UTF-8"?>
<svg id="Layer_1" xmlns="http://www.w3.org/2000/svg" version="1.1" viewBox="0 0 64 64">
  <!-- Generator: Adobe Illustrator 30.3.0, SVG Export Plug-In . SVG Version: 2.1.3 Build 182)  -->
  <path d="M24.437,50.232l11.672-18.362-6.805-10.605h-13.569c-1.102-.003-2.055-.154-3.216.096v6.231h12.609c.954,0,1.645.976,1.649,1.864v5.878c.03,1.267-.825,2.092-2.052,2.092h-12.204v13.606c-.001,1.079-.882,1.777-1.886,1.88H2.324c-1.094-.005-1.92-1.01-1.92-2.09V13.338c0-1.497,1.099-2.245,2.516-2.246h32.181c1.373-.081,2.317.611,2.985,1.73l5.801,9.704,5.719-9.638c.433-.729,1.299-1.687,2.222-1.697l9.348-.104c.7-.008,1.453.41,1.731.917.285.521.337,1.494-.055,2.109l-11.281,17.712,11.702,18.202c.354.551.438,1.447.151,1.993-.221.42-.973.893-1.597.894h-9.385c-.853.001-2.034-.589-2.509-1.398l-6.106-10.418-6.206,10.616c-.459.785-1.642,1.116-2.472,1.202h-9.399c-.449,0-1.136-.514-1.364-.839-.274-.389-.353-1.208.051-1.844Z"/>
</svg>