<?xml version="1.0" encoding="UTF-8"?>
<svg id="Layer_1" xmlns="http://www.w3.org/2000/svg" version="1.1" viewBox="0 0 64 64">
  <!-- Generator: Adobe Illustrator 30.3.0, SVG Export Plug-In . SVG Version: 2.1.3 Build 182)  -->
  <path d="M53.195,25.997h-3.488v-6.549C49.707,8.984,41.136.488,30.699,1.249c-5.315.388-9.987,3.132-12.972,7.191-2.158,2.934-3.434,6.555-3.434,10.469v7.088h-3.488c-4.023,0-7.285,3.262-7.285,7.285v22.98c0,4.023,3.262,7.285,7.285,7.285h42.389c4.023,0,7.285-3.262,7.285-7.285v-22.98c0-4.023-3.262-7.285-7.285-7.285ZM41.707,25.997h-19.414v-7.088c0-2.725,1.129-5.191,2.943-6.956,1.913-1.861,4.588-2.941,7.506-2.723,5.122.383,8.965,4.884,8.965,10.02v6.747Z"/>
</svg>