<?xml version="1.0" encoding="UTF-8"?>
<svg id="Layer_1" xmlns="http://www.w3.org/2000/svg" version="1.1" viewBox="0 0 64 64">
  <!-- Generator: Adobe Illustrator 30.3.0, SVG Export Plug-In . SVG Version: 2.1.3 Build 182)  -->
  <path d="M59.649,13.526l-27.648,12.757L4.396,13.548,30.848,1.296c.825-.382,1.526-.459,2.365-.054l26.436,12.284ZM30.795,62.96V28.239L3.009,15.506l-.268,2.515v30.568c0,.979.769,1.69,1.52,2.041l26.534,12.329ZM61.242,48.806V15.483l-28.02,12.802v34.744l26.337-12.207c.957-.469,1.47-1.071,1.683-2.016ZM45.316,50.394v-7.447l-5.544,2.443c-.223.099-.814-.194-.81-.44l.067-4.378,6.266-2.911v-7.603c1.406-.742,2.677-1.332,4.413-1.975l.128,7.564,5.492-2.494c.244-.111.782.145.78.429v4.398l-6.325,2.93v7.507l-4.467,1.978Z"/>
</svg>