<?xml version="1.0" encoding="UTF-8"?>
<svg id="Layer_1" xmlns="http://www.w3.org/2000/svg" version="1.1" viewBox="0 0 64 64">
  <!-- Generator: Adobe Illustrator 30.3.0, SVG Export Plug-In . SVG Version: 2.1.3 Build 182)  -->
  <path d="M58.015,63.045h-8.601c-.584,0-.904-.464-.986-1.028V27.584c0-.572.487-.921.968-.921h8.58c.387,0,.838.455.838.919v34.533c-.079.426-.28.929-.799.929ZM5.186,26.633v36.417h10.309V26.633H5.186ZM26.428,10.113l-1.035-7.096c-5.248,1.284-9.834,4.152-13.224,8.304-3.144,3.851-4.956,8.542-5.319,13.573h7.251c.725-7.132,5.675-12.836,12.327-14.781ZM57.088,24.906c-.662-10.599-8.139-19.435-18.463-21.863l-1.033,7.043c6.793,2.028,11.604,7.8,12.349,14.82h7.146ZM35.876,10.257l1.138-8.304c.025-.499-.175-.911-.652-1.001h-8.691c-.367,0-.791.365-.737.754l1.192,8.561c.081.583.422.791.989.791h6.222c.323-.191.493-.474.538-.8Z"/>
</svg>