<?xml version="1.0" encoding="UTF-8"?>
<svg id="Layer_1" xmlns="http://www.w3.org/2000/svg" version="1.1" viewBox="0 0 64 64">
  <!-- Generator: Adobe Illustrator 30.3.0, SVG Export Plug-In . SVG Version: 2.1.3 Build 182)  -->
  <path d="M56.612,2H7.388c-2.976,0-5.388,2.413-5.388,5.388v49.223c0,2.976,2.413,5.388,5.388,5.388h49.223c2.976,0,5.388-2.413,5.388-5.388V7.388c0-2.976-2.413-5.388-5.388-5.388ZM45.427,50.767c-3.02,2.311-7.463,3.466-13.334,3.466-4.039,0-7.432-.541-10.18-1.623s-4.788-2.561-6.12-4.435c-1.333-1.873-1.998-3.976-1.998-6.308v-1.312h10.991c0,3.415,2.164,5.121,6.495,5.121s6.495-1.914,6.495-5.745c0-1.457-.406-2.57-1.218-3.341-.812-.771-1.864-1.156-3.154-1.156h-4.559v-7.681h3.56c1.29,0,2.342-.384,3.153-1.155.812-.77,1.218-1.883,1.218-3.341,0-1.374-.489-2.539-1.467-3.497-.979-.957-2.322-1.437-4.028-1.437-1.791,0-3.186.459-4.185,1.374-.999.917-1.499,2.041-1.499,3.373h-10.429v-1.562c0-2.164.676-4.142,2.029-5.933,1.353-1.79,3.33-3.206,5.933-4.247,2.602-1.041,5.673-1.562,9.212-1.562,3.413,0,6.38.521,8.899,1.562,2.519,1.041,4.434,2.446,5.745,4.215,1.312,1.77,1.968,3.737,1.968,5.901s-.584,4.112-1.749,5.839c-1.166,1.728-2.665,2.946-4.496,3.653v.25c2.373.75,4.215,2.051,5.526,3.903s2.028,4.091,1.968,6.713c-.084,3.667-1.76,6.651-4.777,8.962Z"/>
</svg>