<?xml version="1.0" encoding="UTF-8"?>
<svg id="Layer_1" xmlns="http://www.w3.org/2000/svg" version="1.1" viewBox="0 0 64 64">
  <!-- Generator: Adobe Illustrator 30.3.0, SVG Export Plug-In . SVG Version: 2.1.3 Build 182)  -->
  <path d="M50.072,46.776H14.639c-.405,0-.697.318-.697.63v3.983c0,.845-.752,2.011-1.718,2.013H3.84c-.82.002-2.023-.804-2.025-1.731v-14.621c.385-3.504,2.776-6.001,6.222-6.85h11.688c1.463-.323,2.791-.016,4.285-.015h31.995c3.235.602,5.438,3.039,6.19,6.239v15.095c0,1.162-1,1.899-2.054,1.899h-7.872c-.632,0-1.306-.307-1.629-.706-.432-.533-.473-1.186-.447-1.864l-.121-4.071ZM55.01,17.692c-.243-3.608-2.563-6.477-6.178-7.106H15.459c-3.278.555-5.987,3.15-6.235,6.56-.237,3.26-.033,6.509-.1,9.869h45.886v-9.323Z"/>
</svg>