<?xml version="1.0" encoding="UTF-8"?>
<svg id="Layer_1" xmlns="http://www.w3.org/2000/svg" version="1.1" viewBox="0 0 64 64">
  <!-- Generator: Adobe Illustrator 30.3.0, SVG Export Plug-In . SVG Version: 2.1.3 Build 182)  -->
  <path d="M21.231,58.713c-1.628-1.662-2.194-3.693-3.058-5.64-.924-2.083-2.762-3.883-5.035-4.091-3.207-.292-6.199-1.124-8.328-3.403-4.655-4.981-4.225-12.391.869-16.768,3.016-2.591,3.737-6.269,2.506-9.993-1.472-4.451.635-9.401,4.225-11.988,3.906-2.815,9.03-3.03,13.074-.224,3.924,2.723,9.415,2.994,12.959-.741,3.985-4.2,10.149-5.408,15.139-2.107,4.793,3.171,6.536,9.571,3.686,14.817-1.479,3.876-.563,7.945,2.695,10.581,3.284,4.164,3.291,10.298-.015,14.393-2.418,2.994-5.694,4.519-9.539,4.164-3.817-.353-7.778,1.646-9.503,5.099-.926,1.854-1.401,3.794-2.762,5.343-4.406,5.018-12.179,5.394-16.915.559Z"/>
</svg>