<?xml version="1.0" encoding="UTF-8"?>
<svg id="Layer_1" xmlns="http://www.w3.org/2000/svg" version="1.1" viewBox="0 0 64 64">
  <!-- Generator: Adobe Illustrator 30.3.0, SVG Export Plug-In . SVG Version: 2.1.3 Build 182)  -->
  <path d="M47.123,61.962H7.779c-1.27-.229-2.009-.931-2.342-2.188V8.917c.334-1.281,1.084-1.93,2.14-2.487l5.127-2.704c1.17-.617,2.228-1.167,3.508-1.686h40.229c1.119,0,2.119,1.226,2.119,2.339v50.444c0,1.036-.631,1.923-1.464,2.356l-6.559,3.408c-1.106.575-2.032,1.135-3.415,1.374ZM44.966,10.212h-25.757v10.695h25.757v-10.695ZM20.051,37.498h24.909v-11.603h-26.495c-.822-.179-1.542-.042-2.325-.054-2.486-.038-4.842-.122-7.363.083l.032,2.683h10.391v8.562c.173.214.418.316.852.329ZM19.756,53.951h25.206v-11.445H8.831v2.68h10.378v8.176c0,.266.177.508.547.59Z"/>
</svg>