<?xml version="1.0" encoding="UTF-8"?>
<svg id="Layer_1" xmlns="http://www.w3.org/2000/svg" version="1.1" viewBox="0 0 64 64">
  <!-- Generator: Adobe Illustrator 30.3.0, SVG Export Plug-In . SVG Version: 2.1.3 Build 182)  -->
  <path d="M42.534,60.117c-3.524,1.583-9.299,1.798-13.411,1.561-3.297-.19-9.374-.814-9.367-3.859v-30.97c.013-5.902,6.465-7.747,6.49-8.783l.156-6.527c3.786.531,7.302.661,11.086-.044v5.594c.002,1.131.561,1.641,1.546,2.175,2.775,1.505,5.16,3.992,5.175,7.462v30.681c.006,1.316-.481,2.173-1.676,2.709ZM38.89,8.667c-.097-3.145.807-5.588-1.808-6.008-3.475-.557-6.871-.573-10.309.038-.922.164-1.853.655-1.867,1.675-.018,1.372-.098,2.865.121,4.199.265.875,1.801.877,2.493.999,3.131.551,5.984.44,9.231-.02.753-.107,1.691-.397,2.14-.883Z"/>
</svg>