<?xml version="1.0" encoding="UTF-8"?>
<svg id="Layer_1" xmlns="http://www.w3.org/2000/svg" version="1.1" viewBox="0 0 64 64">
  <!-- Generator: Adobe Illustrator 30.3.0, SVG Export Plug-In . SVG Version: 2.1.3 Build 182)  -->
  <path d="M35.782,50.924c-2.507.298-4.944.257-7.39.016C13.274,49.445.956,35.668,1.693,20.596c.216-4.424,11.816-6.348,16.399-6.875l2.899-.333c5.852-.672,16.843-.732,22.557.035l5.255.705c3.686.495,7.306,1.469,10.558,3.064,2.48,1.217,3.127,3.009,2.95,5.535-1.015,14.506-11.88,26.454-26.529,28.196ZM32.595,25.085c6.405-.041,12.613-.269,18.837-1.615,2.396-.518,4.651-.949,6.611-2.596-.938-.835-1.961-1.351-3.101-1.704-3.758-1.164-7.556-1.875-11.506-2.154l-6.483-.457c-7.16-.505-17.945.233-24.984,1.801-1.966.438-5.452,1.507-5.541,2.397-.102,1.016,4.108,2.241,6.3,2.677,6.611,1.316,13.105,1.695,19.867,1.652Z"/>
</svg>