<?xml version="1.0" encoding="UTF-8"?>
<svg id="Layer_1" xmlns="http://www.w3.org/2000/svg" version="1.1" viewBox="0 0 64 64">
  <!-- Generator: Adobe Illustrator 30.3.0, SVG Export Plug-In . SVG Version: 2.1.3 Build 182)  -->
  <path d="M45.743,30.397c4.655,3.574,6.878,8.37,7.743,14.042,1.328,3.703,1.97,7.032-.716,10.181-1.525,1.787-3.311,3.189-5.409,4.312-9.497,5.083-21.014,5.11-30.557.099-2.145-1.126-4.031-2.575-5.562-4.392-1.78-2.112-2.258-4.707-1.581-7.37l.934-3.003c.689-5.502,3.188-10.437,7.719-13.861-4.055-6.707-9.619-18.69-6.327-25.867,1.115-2.431,3.507-3.686,6.154-3.2,4.244.78,6.927,5.379,8.331,9.319,1.228,3.445,1.852,6.946,2.323,10.571l.508,4.837c1.847-.183,3.558-.207,5.437-.004.473-5.688,1.182-11.774,3.453-17.045,1.528-3.547,4.352-7.484,8.356-7.763,2.238-.156,4.205.888,5.263,2.843,1.003,1.853,1.23,3.878,1.183,6.002-.148,6.695-3.828,14.469-7.253,20.3ZM24.613,44.582c0-1.506-1.221-2.727-2.727-2.727s-2.727,1.221-2.727,2.727,1.221,2.727,2.727,2.727,2.727-1.221,2.727-2.727ZM44.872,44.587c0-1.501-1.217-2.718-2.718-2.718s-2.718,1.217-2.718,2.718,1.217,2.718,2.718,2.718,2.718-1.217,2.718-2.718ZM32.64,52.051l2.006-2.422c.126-.152.169-.621.083-.796s-.457-.443-.67-.444h-3.997c-.222-.001-.609.198-.723.359s-.148.652-.01.821l2.004,2.449c.297.363.971.439,1.307.033Z"/>
</svg>