<?xml version="1.0" encoding="UTF-8"?>
<svg id="Layer_1" xmlns="http://www.w3.org/2000/svg" version="1.1" viewBox="0 0 64 64">
  <!-- Generator: Adobe Illustrator 30.3.0, SVG Export Plug-In . SVG Version: 2.1.3 Build 182)  -->
  <path d="M40.991,59.745c-.007,1.778-2.04,3.2-3.658,3.272-3.5.156-6.727.1-10.256.037-1.875-.033-4.099-1.498-4.101-3.593V9.084c.406-4.847,4.414-8.322,9.251-8.197,4.48.116,8.149,3.229,8.764,7.72v51.138ZM48.525,40.5c4.536-.686,8.047-4.599,8.375-9.257.271-3.853.018-7.629.095-11.449-.616-2.567-2.494-4.21-4.961-4.291-2.476.067-4.556,1.533-5.105,4.075v9.694c0,.348-.425,1.038-.76,1.051l-2.22.085v10.165c1.711-.079,3.057.157,4.576-.073ZM18.419,34.873c-.503-.006-1.358-.446-1.361-1.089v-9.757c-.661-2.448-2.561-3.971-5.041-3.864-2.483-.109-4.475,1.516-5.017,4.005.06,3.869-.158,7.726.104,11.572.183,2.685,1.538,4.895,3.362,6.657,2.675,2.583,5.826,2.766,9.573,2.652v-10.157l-1.619-.019Z"/>
</svg>