<?xml version="1.0" encoding="UTF-8"?>
<svg id="Layer_1" xmlns="http://www.w3.org/2000/svg" version="1.1" viewBox="0 0 64 64">
  <!-- Generator: Adobe Illustrator 30.3.0, SVG Export Plug-In . SVG Version: 2.1.3 Build 182)  -->
  <path d="M27.741,59.392c-6.155,4.207-14.348,3.408-19.713-1.236C-.056,51.16.413,39.914,7.718,32.513L32.116,7.793C37.494,2.344,44.864.147,52.029,3.35c6.43,2.874,10.794,10.039,9.701,17.34-.527,3.521-1.837,6.754-4.348,9.3l-21.428,21.598c-2.692,2.647-4.954,5.577-8.214,7.804ZM47.85,33.271l5.744-5.727c4.907-4.893,5-12.583.205-17.4-4.565-4.586-12.137-5.251-16.968-.425l-13.479,13.465,17.309,17.322c2.515-2.421,4.792-4.845,7.19-7.235Z"/>
</svg>