<?xml version="1.0" encoding="UTF-8"?>
<svg id="Layer_1" xmlns="http://www.w3.org/2000/svg" version="1.1" viewBox="0 0 64 64">
  <!-- Generator: Adobe Illustrator 30.3.0, SVG Export Plug-In . SVG Version: 2.1.3 Build 182)  -->
  <path d="M24.086,27.996l-10.757,4.04V8.062c0-1.167.541-1.942,1.648-2.327L29.07.837c.631-.219,1.27-.433,1.841-.001.356.269.749.912.746,1.555v22.885l-7.571,2.72ZM50.622,32.485c-.015-.577-.455-1.596-1.099-1.735l-14.578-3.163c-1.052-.228-2.266-.631-3.317-.245l-18.247,6.701-.064,3.198c-.016.775.645,1.362,1.411,1.533l18.291,4.075c.682.152,1.885.348,2.54.061l13.417-5.889c2.03-.891,1.72-1.601,1.646-4.536ZM37,44.397c-1.42.631-2.784.763-4.275.345v17.062c.306,1.038,1.059,1.567,1.977,1.606.939.04,1.889-.285,2.298-1.309v-17.705ZM17.608,41.501l-4.277-.992v17.295c.165,1.17,1.072,1.756,2.231,1.746.988-.008,2.047-.612,2.046-1.753v-16.296ZM50.551,48.108v-8.48c-.001-.403.006-.689-.073-1.156l-4.247,1.862v14.713c.478,1.147,1.509,1.769,2.604,1.573,1.155-.206,1.81-1.126,1.796-2.452l-.08-6.059ZM30.209,44.199l-4.352-.853v8.671c.003,1.04,1.094,1.575,1.919,1.683,1.18.154,2.428-.516,2.434-1.919v-7.581Z"/>
</svg>