<?xml version="1.0" encoding="UTF-8"?>
<svg id="Layer_1" xmlns="http://www.w3.org/2000/svg" version="1.1" viewBox="0 0 64 64">
  <!-- Generator: Adobe Illustrator 30.3.0, SVG Export Plug-In . SVG Version: 2.1.3 Build 182)  -->
  <path d="M47.272,59.809c-4.863,1.772-12.442,2.793-17.583,2.427-7.2-.513-16.484-2.139-21.304-7.663-1.684-1.93-3.076-5.045-1.736-7.579L29.919,2.991c.5-.946,1.413-1.344,2.331-1.297.993.052,1.603.778,2.135,1.786l22.989,43.543c1.32,2.501-.136,5.776-1.843,7.662-2.259,2.496-5.121,3.981-8.26,5.124ZM18.592,55.498c7.339,2.23,15.043,2.64,22.567,1.062L31.917,9.297,10.899,49.027c.238,3.241,4.432,5.189,7.692,6.471Z"/>
</svg>