<?xml version="1.0" encoding="UTF-8"?>
<svg id="Layer_1" xmlns="http://www.w3.org/2000/svg" version="1.1" viewBox="0 0 64 64">
  <!-- Generator: Adobe Illustrator 30.3.0, SVG Export Plug-In . SVG Version: 2.1.3 Build 182)  -->
  <path d="M48.378,35.672H15.511l-.096-5.363c-.234-2.221-2.084-4.258-4.252-4.304l-3.755-.08v-7.36c.497-2.139,1.764-3.663,3.928-4.157h41.311c5.255,1.628,3.561,6.498,3.823,11.509-1.322.084-2.482-.052-3.703.103-2.384.304-4.369,2.297-4.389,4.691v4.96ZM15.178,49.591h33.507v-11.242H15.178v11.242ZM62.725,47.261v-15.999c0-1.362-.857-2.598-2.232-2.596h-7.304c-.916.001-2.082.938-2.083,2.011v17.053c0,.81.909,1.822,1.617,1.821h8.301c1.093-.002,1.701-1.316,1.701-2.289ZM12.794,47.923v-17.476c0-.953-1.101-1.754-1.979-1.772-2.559-.055-5.002-.078-7.519.024-1.13.046-2.015.993-2.016,2.113v16.65c0,.965.817,2.1,1.776,2.1h8.164c.755,0,1.574-.923,1.574-1.639Z"/>
</svg>