<?xml version="1.0" encoding="UTF-8"?>
<svg id="Layer_1" xmlns="http://www.w3.org/2000/svg" version="1.1" viewBox="0 0 64 64">
  <!-- Generator: Adobe Illustrator 30.3.0, SVG Export Plug-In . SVG Version: 2.1.3 Build 182)  -->
  <path d="M33.87,62.668c-.926.553-1.926.816-2.712.415-3.058-1.561-5.735-3.262-8.672-5.01l-16.302-9.703c-.797-.474-1.419-1.02-1.962-1.789v-29.408c.237-.522.998-1.184,1.532-1.496L30.406,1.215c1.219-.715,2.139-.618,3.345.082l25.2,14.728c.312.309.828,1.114.827,1.628v28.677c0,.447-.794,1.343-1.19,1.58l-24.718,14.758ZM41.604,21.987l-9.613-15.268-9.621,15.268h19.234ZM18.041,21.312l7.847-12.771-15.288,8.992c2.485,1.396,4.897,2.565,7.442,3.779ZM53.539,17.579l-15.287-8.827,7.791,12.59,7.496-3.763ZM15.819,24.881l-7.479-3.858v17.047l7.479-13.189ZM55.606,37.935v-16.897l-7.416,3.865,7.416,13.032ZM41.774,26.21h-19.431l9.66,16.762,9.771-16.762ZM28.334,44.766l-9.64-16.56-8.79,15.682,18.431.878ZM54.12,43.896l-8.766-15.704-9.647,16.566,18.413-.862ZM29.966,48.876l-5.667-.151c-3.257-.2-6.404-.434-9.823-.284l15.49,9.303v-8.868ZM34.148,57.75l15.375-9.302c-3.189-.07-6.064.137-9.094.246l-6.368.23c-.077,3.032-.129,5.726.087,8.825Z"/>
</svg>