<?xml version="1.0" encoding="UTF-8"?>
<svg id="Layer_1" xmlns="http://www.w3.org/2000/svg" version="1.1" viewBox="0 0 64 64">
  <!-- Generator: Adobe Illustrator 30.3.0, SVG Export Plug-In . SVG Version: 2.1.3 Build 182)  -->
  <path d="M33.781,63.064c-1.391.748-2.572.485-3.774-.162l-24.331-13.082c-1.17-.629-2.022-1.376-2.022-2.874v-29.994c0-1.351,1.007-2.097,2.017-2.642L30.153,1.106c1.201-.648,2.176-.897,3.41-.23l24.302,13.146c.903.488,2.474,1.191,2.475,2.427v30.992c0,.864-.623,1.665-1.345,2.053l-25.213,13.569ZM52.786,16.856l-20.76-11.27-20.681,11.206,20.664,11.121,20.777-11.057ZM29.675,57.118v-24.919l-20.988-11.263v24.965l20.988,11.217Z"/>
</svg>