<?xml version="1.0" encoding="UTF-8"?>
<svg id="Layer_1" xmlns="http://www.w3.org/2000/svg" version="1.1" viewBox="0 0 64 64">
  <!-- Generator: Adobe Illustrator 30.3.0, SVG Export Plug-In . SVG Version: 2.1.3 Build 182)  -->
  <path d="M45.477,60.634c-8.677,2.522-17.824,2.564-26.405.149-2.963-.834-5.621-1.955-7.877-3.973-1.289-1.153-2.92-2.847-2.921-4.768V12.673c-.002-5.026,6.468-8.204,11.218-9.531,8.193-2.288,16.929-2.249,25.13-.008,4.534,1.238,11.095,4.514,11.098,9.049v39.63c.003,4.367-5.784,7.525-10.244,8.822ZM50.524,13.55c1.589-1.667-1.916-4.145-4.813-5.177-8.103-2.887-19.687-2.978-27.614.169-2.427.963-5.754,3.03-4.891,4.416.895,1.437,2.436,2.348,3.955,3.055,4.794,2.229,11.035,2.93,16.363,2.726,5.655-.216,13.154-1.155,17-5.19ZM41.81,56.775c.119-.974.346-1.772.346-2.559v-31.753c-9.748,1.777-20.243,1.47-29.091-3.235v32.763c1.009,1.5,2.41,2.31,4.034,3.041,7.27,3.272,16.848,3.531,24.711,1.742Z"/>
</svg>