<?xml version="1.0" encoding="UTF-8"?>
<svg id="Layer_1" xmlns="http://www.w3.org/2000/svg" version="1.1" viewBox="0 0 64 64">
  <!-- Generator: Adobe Illustrator 30.3.0, SVG Export Plug-In . SVG Version: 2.1.3 Build 182)  -->
  <path d="M13.385,33.96l16.753,9.381v7.731l-5.602-5.646-2.574,2.568,8.913,9.104c.601.614,1.639.589,2.217-.001l8.936-9.106-2.565-2.573c-1.887,1.948-3.479,3.739-5.599,5.699v-7.735l16.783-9.36c.632-.352.966-1.054.965-1.741V12.617c0-1.183-.487-1.886-1.49-2.447L33.47.859c-1.064-.595-1.896-.552-2.931.027L13.442,10.448c-.515.288-.913.868-.913,1.454v21.065c.16.286.583.841.856.993ZM32.039,4.213l13.961,7.798-13.927,7.756-13.962-7.769,13.928-7.786ZM64,60.584v3.416H0v-3.416h64Z"/>
</svg>