<?xml version="1.0" encoding="UTF-8"?>
<svg id="Layer_1" xmlns="http://www.w3.org/2000/svg" version="1.1" viewBox="0 0 64 64">
  <!-- Generator: Adobe Illustrator 30.3.0, SVG Export Plug-In . SVG Version: 2.1.3 Build 182)  -->
  <path d="M62.912,14.133v41.664c0,.268-.243.516-.466.516h-6.929c-.204,0-.467-.283-.467-.477v-6.611h-2.105v4.546c0,.164-.351.454-.509.465h-4.417c-.188-.028-.464-.281-.464-.465v-4.526l-2.013-.059-.13,1.209v3.378c0,.183-.283.44-.471.462h-4.529c-.195-.117-.435-.49-.436-.749v-4.273h-1.954v4.427c0,.3-.277.595-.584.596h-4.158c-.467.001-.811-.215-.811-.715v-4.319h-1.779v4.329c0,.306-.165.703-.504.704h-4.285c-.364,0-.597-.236-.597-.589v-4.425l-2.017-.033v4.578c0,.181-.289.469-.47.469h-4.412c-.275,0-.476-.328-.477-.585v-4.433l-1.925-.021v4.569c0,.191-.252.47-.447.47h-4.407c-.289,0-.58-.305-.58-.591v-4.454l-1.582.056v6.776c-.045.108-.366.274-.471.292H2.295c-.288.134-1.148.057-1.207-.396V14.363c0-.293.138-.728.388-.728h7.039c.212,0,.474.249.474.464v8.834h1.576v-5.591l2.398-2.83c.128-.152.526-.163.658-.005l2.379,2.837v5.601h1.93v-5.621c.783-1.021,1.558-1.943,2.482-2.873.147-.148.601.134.735.298l2.135,2.595v5.61l2.021-.019v-5.699l2.498-2.913c.428.137.672.424.948.753l1.933,2.28v5.601h1.781v-5.045c.001-.469.306-.914.609-1.254l2.063-2.318c.299,0,.587.303.753.502l2.131,2.542v5.559h1.939l.117-5.589c.774-1.017,1.561-1.983,2.462-2.893.228-.231.64.165.778.327l2.081,2.442.134,5.729,2.024-.028v-5.66l2.35-2.801c.108-.048.282-.137.359-.109.097.035.287.176.358.261l2.316,2.728v5.599h2.111v-8.847c0-.22.25-.467.47-.467h6.927c.228,0,.466.222.467.5ZM10.572,26.102h-1.595v19.918h1.595v-19.918ZM15.995,26.098v19.917h1.94v-19.917h-1.94ZM25.307,26.101h-2.028v19.916h2.028v-19.916ZM32.473,26.099h-1.791v19.918h1.791v-19.918ZM40.054,26.101h-2.037v19.916h2.037v-19.916ZM47.556,26.101h-2.149v19.919h2.149v-19.919ZM52.93,26.099v19.918h2.124v-19.918h-2.124ZM59.231,7.745c-.112-.047-.313-.127-.395-.089s-.204.164-.282.265l-3.466,4.482h7.761l-3.618-4.658ZM5.404,7.878l-.406-.245c-.075-.045-.274.149-.33.215l-3.435,4.543h7.645l-3.474-4.513Z"/>
</svg>