<?xml version="1.0" encoding="UTF-8"?>
<svg id="Layer_1" xmlns="http://www.w3.org/2000/svg" version="1.1" viewBox="0 0 64 64">
  <!-- Generator: Adobe Illustrator 30.3.0, SVG Export Plug-In . SVG Version: 2.1.3 Build 182)  -->
  <path d="M33.658,61.606c-.001.999-.777,1.627-1.619,1.644-.726.015-1.679-.62-1.681-1.528v-7.898c0-.325.063-.619-.027-.956-6.5.07-12.789-3.565-16.325-8.933-1.194-1.813-2.01-3.736-2.253-5.893,2.624-.175,5.069.285,7.453,1.229,5.434,2.151,9.297,6.034,11.115,11.71v-17.687l3.346.074v17.731c.751-2.106,1.559-3.965,2.929-5.688,3.275-4.119,8.008-6.791,13.264-7.347l2.376-.034c-.211,2.331-1.154,4.359-2.454,6.261-3.552,5.196-9.79,8.665-16.124,8.577v8.737ZM22.914,25.616c-.929,2.733,1.892,4.37,4.447,5.107,3.891,1.122,8.091,1.039,11.943-.208,1.691-.548,3.18-1.408,4.217-2.788.743-.989.663-2.209-.014-3.207s-1.615-1.709-2.626-2.364l-2.504-1.622c2.586.156,4.784,1.493,6.474,3.36,4.071-.645,8.009-2.163,10.897-5.028.637-.798,1.218-1.543,1.503-2.505.513-1.728-.192-3.483-1.763-4.389-1.438-.829-3.067-1.031-4.753-.928-4.029.246-7.558,1.914-11.181,3.627,1.127,1.504,1.027,3.212-.046,4.604-.686.891-1.602,1.505-2.696,1.969-6.127,2.597-13.871-.524-13.185-4.772.024-.152.141-.575.002-.611l-.511-.133c-4.224-1.104-7.932-2.388-12.487-1.937-1.107.11-2.109.512-2.918,1.17-1.181.96-1.443,2.369-.762,3.753,2.241,4.549,9.502,6.796,14.471,6.939.476-1.527,2.2-3.306,3.719-3.461-.574,1.335-1.758,2.039-2.229,3.425ZM46.605,10.473c.361-.127.501-.689.639-.993,1.352-2.965.17-6.206-2.736-7.62-1.8-.876-3.761-1.261-5.777-1.058-2.411.243-4.672,1.01-6.367,2.761-2.453,2.533-2.19,5.071-2.734,8.344,3.526-.507,7.271-.029,9.764,2.506,2.207-1.865,4.608-3.021,7.211-3.94ZM28.883,7.098c-.32-.893-1.21-1.61-1.891-2.212-2.062-1.824-4.579-2.656-7.317-2.632-2.031.017-4.058.362-5.666,1.567-1.842,1.379-2.574,3.597-1.819,5.749.374,1.067.953,2.008,1.728,2.816,3.503.537,6.753,1.601,9.867,3.358,1.06-2.283,3.212-3.21,5.558-3.821-.47-1.602-.378-3.203-.46-4.824Z"/>
</svg>