<?xml version="1.0" encoding="UTF-8"?>
<svg id="Layer_1" xmlns="http://www.w3.org/2000/svg" version="1.1" viewBox="0 0 64 64">
  <!-- Generator: Adobe Illustrator 30.3.0, SVG Export Plug-In . SVG Version: 2.1.3 Build 182)  -->
  <path d="M42.622,61.049c-1.192.001-1.945-1.111-1.942-2.09v-3.221c.132-.931.838-1.786,1.868-1.786h11.875v-11.587c0-1.02.8-1.771,1.746-1.885h3.508c.705.004,1.754.782,1.754,1.602v15.647c0,1.704-1.367,3.319-3.143,3.32h-15.667ZM39.056,37.151v-10.874c-.005-.93-1.023-1.391-1.772-1.387h-10.52c-.853.005-1.853.594-1.854,1.611v10.894c-.001.852.756,1.634,1.593,1.633h11.146c.989-.002,1.411-1.1,1.406-1.877ZM59.785,23.39c.883-.022,1.637-.836,1.635-1.751V5.869c-.003-1.548-1.62-2.921-3.094-2.92h-15.876c-.926,0-1.727.882-1.739,1.739l-.047,3.31c.061,1.244.977,1.914,2.154,1.913h11.604v11.457c0,1.244.886,2.132,2.174,2.1l3.189-.079ZM21.692,53.964h-12.154v-11.693c-.002-1.044-.947-1.751-1.852-1.79h-3.356c-.818.007-1.757.678-1.756,1.634v15.862c0,1.654,1.332,2.753,2.862,3.094h15.973c.989,0,1.824-.96,1.829-1.843v-3.271c.014-.799-.58-1.991-1.545-1.993ZM21.828,9.906c.716-.198,1.234-.77,1.409-1.484-.068-2.29.522-5.472-1.71-5.469H5.384c-1.307.002-2.803,1.472-2.805,2.78v16.036c-.001.723.774,1.602,1.457,1.609l3.643.039c.957.01,1.862-.773,1.864-1.794v-11.717h12.286Z"/>
</svg>