<?xml version="1.0" encoding="UTF-8"?>
<svg id="Layer_1" xmlns="http://www.w3.org/2000/svg" version="1.1" viewBox="0 0 64 64">
  <!-- Generator: Adobe Illustrator 30.3.0, SVG Export Plug-In . SVG Version: 2.1.3 Build 182)  -->
  <path d="M36.952,61.305c-.512,2.026-4.489,1.625-7.867,1.472-.772-.035-1.793-.609-1.982-1.368l-1.426-5.715c-2.132-.759-3.954-1.522-5.93-2.642l-5.173,3.27c-.534.337-1.483.367-1.979-.14l-4.946-5.056c-.652-.666.116-1.923.449-2.472l2.651-4.374c-.993-1.993-1.754-3.787-2.445-5.941l-5.633-1.437c-.774-.197-1.486-1.017-1.483-1.884v-6.302c.003-.886.713-1.529,1.476-1.708l5.593-1.312c.685-2.137,1.454-4.031,2.483-6.042l-3.096-5.121c-.434-.718-.09-1.875.484-2.453l4.273-4.292c.728-.731,1.632-.605,2.392-.126l4.922,3.104c2.079-1.03,3.864-1.819,5.961-2.553l1.516-6.072c.131-.525,1.248-1.047,1.757-1.045h6.173c.885.003,1.615.737,1.819,1.531l1.441,5.624c2.093.725,3.771,1.427,5.915,2.461l5.166-3.182c.602-.371,1.512-.298,2.033.225l4.642,4.653c.643.645.521,1.673.095,2.373l-2.981,4.887c1.041,1.947,1.846,3.799,2.5,5.98l5.291,1.296c.909.223,1.774.84,1.776,1.931v6.192c.002.877-.759,1.679-1.537,1.877l-5.604,1.427c-.588,2.149-1.3,3.801-2.375,5.791l2.874,4.785c.559.931.633,1.884-.173,2.691l-4.271,4.279c-.656.657-1.712.724-2.513.234l-4.981-3.05c-1.96,1.112-3.767,1.878-5.844,2.498l-1.442,5.702ZM45.229,31.924c0-7.305-5.922-13.228-13.228-13.228s-13.228,5.922-13.228,13.228,5.922,13.228,13.228,13.228,13.228-5.922,13.228-13.228Z"/>
</svg>