<?xml version="1.0" encoding="UTF-8"?>
<svg id="Layer_1" xmlns="http://www.w3.org/2000/svg" version="1.1" viewBox="0 0 64 64">
  <!-- Generator: Adobe Illustrator 30.3.0, SVG Export Plug-In . SVG Version: 2.1.3 Build 182)  -->
  <path d="M56.207,61.479c0,.458-.313.9-.729.9h-18.463v-19.346h-9.988v19.348H8.578c-.428,0-.69-.306-.733-.724v-30.122c-.567-.239-1.108-.04-1.709-.063l-1.6-.061c-.882-.033-2.335.406-2.835-.392-.081-.129,0-.487.158-.639L31.388,1.957c.131-.128.406-.296.555-.334.17-.043.496.179.637.312l11.263,10.918.405.101v-6.617h8.293v14.777l9.61,9.235c.145.138.225.563.155.719-.087.196-.426.326-.693.332l-3.001.066c-.814.018-1.581-.13-2.404.061v29.952ZM12.795,38.049v10.067h9.976v-10.067h-9.976ZM51.242,38.05h-10.022v10.066h10.022v-10.066Z"/>
</svg>