<?xml version="1.0" encoding="UTF-8"?>
<svg id="Layer_1" xmlns="http://www.w3.org/2000/svg" version="1.1" viewBox="0 0 64 64">
  <!-- Generator: Adobe Illustrator 30.3.0, SVG Export Plug-In . SVG Version: 2.1.3 Build 182)  -->
  <path d="M31.947,7.75h-5.358c-.461,0-.86.665-.854,1.14v46.029h6.177c.437.001.76.644.943.985l2.483,6.133c.105.259.004.78-.125.976-.14.214-.543.417-.893.417H10.704c-.272,0-.617-.328-.731-.513-.132-.214-.115-.747-.006-1.025l2.242-5.706c.171-.387.532-1.085.917-1.256h6.429V8.393c-.809-.651-1.22-1.459-1.418-2.425-.436-2.123.703-4.125,2.616-4.992,1.93-.875,4.191-.316,5.544,1.412h16.484c1.635.418,2.518,1.862,2.277,3.498h6.074c.399,0,.697.355.798.75l2.166,12.435c.131.513-.266,1.199-.848,1.205l-4.603.045c-.305,3.735-3.577,6.541-7.26,6.091-3.189-.389-5.657-2.888-5.921-6.11h-4.478c-.641-.005-1.095-.625-.981-1.236l1.942-11.317ZM46.672,20.304h-9.22c.345,2.14,1.909,3.813,4.015,4.101,2.588.353,4.828-1.506,5.206-4.101Z"/>
</svg>