<?xml version="1.0" encoding="UTF-8"?>
<svg id="Layer_1" xmlns="http://www.w3.org/2000/svg" version="1.1" viewBox="0 0 64 64">
  <!-- Generator: Adobe Illustrator 30.3.0, SVG Export Plug-In . SVG Version: 2.1.3 Build 182)  -->
  <path d="M30.88,63.029l-26.151-12.147c-.909-.339-1.931-1.078-1.931-2.192V15.419l27.127,12.456c.636.292.932.909.955,1.594v33.56ZM43.597,23.473l-10.301,4.793v34.754l26.563-12.311c.766-.42,1.177-.966,1.342-1.841V15.526l-9.318,4.195c-.284.128-.898.639-.949.945v15.302c2.184-.679,3.51-1.924,5.701-2.27l-8.883,17.464c-.963-.309-1.418-1.215-2.087-1.89l-7.436-7.505c1.979-.888,3.604-1.587,5.367-2.502v-15.793ZM38.107,12.553l11.811,5.532c3.268-1.487,6.381-2.863,9.66-4.576L33.403,1.331c-.975-.496-1.707-.454-2.634-.028L8.648,11.479c-1.426.679-2.604,1.238-4.191,2.133l27.465,12.665,10.398-4.726-11.523-5.583,7.31-3.415Z"/>
</svg>