<?xml version="1.0" encoding="UTF-8"?>
<svg id="Layer_1" xmlns="http://www.w3.org/2000/svg" version="1.1" viewBox="0 0 64 64">
  <!-- Generator: Adobe Illustrator 30.3.0, SVG Export Plug-In . SVG Version: 2.1.3 Build 182)  -->
  <path d="M58.788,31.418c-6.965,4.639-25.542,5.241-34.337,4.437l-5.158-.472c-4.205-.385-15.979-2.732-15.861-6.444C3.887,14.666,14.052,3.362,28.208,1.35c2.639-.149,5.185-.144,7.818-.006,7.402,1.162,13.872,4.733,18.499,10.609,3.426,4.35,5.286,9.586,5.978,15.062.228,1.803-.091,3.322-1.715,4.404ZM38.532,38.095h-12.62c-1.085-.001-2.088-.266-3.134-.169l-2.899,18.428c-.914,5.807,9.272,6.759,14.644,6.31,3.852-.322,8.63-1.282,9.684-5.122l-2.946-19.529c-.902-.245-1.82.083-2.729.082Z"/>
</svg>