<?xml version="1.0" encoding="UTF-8"?>
<svg id="Layer_1" xmlns="http://www.w3.org/2000/svg" version="1.1" viewBox="0 0 64 64">
  <!-- Generator: Adobe Illustrator 30.3.0, SVG Export Plug-In . SVG Version: 2.1.3 Build 182)  -->
  <path d="M43.192,36.868c-8.701,1.664-17.933,1.35-26.649-1.02l8.891-12.241c4.385.749,8.809.734,13.177.016l8.891,12.167c-1.432.499-2.81.792-4.309,1.078ZM41.38,21.424L31.991,1.132l-9.38,20.269c3.476,1.015,7.44,1.417,11.053,1.231,2.641-.135,5.191-.419,7.717-1.208ZM42.394,38.53c-3.081.526-6.101.732-9.165.795-.811.084-1.56.085-2.37-.005-3.096-.04-6.144-.263-9.235-.813l-11.495,12.233c7.927,2.946,17.684,3.71,26.072,3.293,4.452-.222,8.81-.665,13.094-1.86,1.539-.429,2.98-.808,4.575-1.434l-11.477-12.209ZM35.445,55.63h-6.893l-.607,7.236h8.117l-.618-7.236Z"/>
</svg>