<?xml version="1.0" encoding="UTF-8"?>
<svg id="Layer_1" xmlns="http://www.w3.org/2000/svg" version="1.1" viewBox="0 0 64 64">
  <!-- Generator: Adobe Illustrator 30.3.0, SVG Export Plug-In . SVG Version: 2.1.3 Build 182)  -->
  <path d="M17.681,58.898c-1.865-.543-3.509-1.412-4.795-2.944l-3.091-26.274c-.197-1.674-.396-3.094-.357-4.874,7.36,2.449,14.974,3.193,22.643,3.189s15.409-.798,22.619-3.365l-3.454,29.677c-.169,1.454-.405,2.356-1.765,3.125-1.539.87-3.297,1.576-5.163,1.987-8.29,1.829-18.499,1.846-26.638-.522ZM41.898,24.842l3.631-.475c4.07-.532,12.422-2.349,12.465-6.464.025-2.383.06-4.738-.038-7.132-.15-3.666-8.276-5.764-12.175-6.395-9.268-1.5-18.711-1.492-27.977.055-3.632.606-11.8,2.812-11.825,5.905v8.229c-.019,2.345,5.14,4.275,7.99,4.951,1.651.391,3.257.765,4.954.979l2.721.344,5.901.461c3.11.243,6.175.245,9.26-.02l5.092-.437ZM36.95,14.527c-4.427.377-10.797.037-15.374-.503-2.852-.336-9.995-1.745-10.277-3.205-.269-1.395,6.122-2.739,8.737-3.101l2.374-.329c4.911-.68,14.304-.723,19.142.001l2.503.375,2.094.388c2.07.383,4.117.845,5.935,1.899l.547.443c.87.705-2.962,2.184-5.329,2.686-1.977.419-3.914.798-6.048.98l-4.304.367Z"/>
</svg>