<?xml version="1.0" encoding="UTF-8"?>
<svg id="Layer_1" xmlns="http://www.w3.org/2000/svg" version="1.1" viewBox="0 0 64 64">
  <!-- Generator: Adobe Illustrator 30.3.0, SVG Export Plug-In . SVG Version: 2.1.3 Build 182)  -->
  <path d="M59.922,55.673H4.217c-1.594,0-2.102-1.722-1.843-2.94l4.638-21.871c.728-1.055,2.245-1.557,3.305-2.048l2.741-1.27,7.736,5.432c.748.525,1.266,1.18,1.444,2.109l1.482,7.744c.162.847.931,1.469,1.715,1.449.611-.016,1.61-.831,1.462-1.576l-1.59-8.006c-.136-1.103-.368-2.581-1.328-3.25l-8.854-6.171,7.994-15.303c.544-1.019,1.727-2.043,3.15-1.488l17.328,6.75c1.289.502,1.851.942,2.293,2.269l5.662,17.012-8.443,4.311c-.85.434-1.485,1.153-2.033,1.924l-1.872,5.531c-.322.95-.091,1.772.824,2.223.659.325,1.722-.059,2.043-.961l2.009-5.656,9.353-4.969,3.294,1.686c1.09.558,1.789,1.46,2.075,2.67l2.853,12.036c.208.878-.456,2.364-1.731,2.364Z"/>
</svg>