<?xml version="1.0" encoding="UTF-8"?>
<svg id="Layer_1" xmlns="http://www.w3.org/2000/svg" version="1.1" viewBox="0 0 64 64">
  <!-- Generator: Adobe Illustrator 30.3.0, SVG Export Plug-In . SVG Version: 2.1.3 Build 182)  -->
  <path d="M61.78,39.417c-4.041,0-7.317-3.276-7.317-7.317s3.276-7.317,7.317-7.317c.074,0,.146.009.22.011V7.388c0-2.976-2.413-5.388-5.388-5.388H7.388c-2.976,0-5.388,2.412-5.388,5.388v49.223c0,2.976,2.412,5.388,5.388,5.388h49.223c2.976,0,5.388-2.413,5.388-5.388v-17.206c-.074.002-.146.011-.22.011ZM50.079,53.738H14.482v-2.998c0-2.206.509-4.173,1.53-5.901,1.02-1.727,2.508-3.466,4.465-5.215,1.999-1.748,4.872-4.121,8.619-7.119,2.998-2.373,5.1-4.184,6.308-5.433,1.207-1.249,1.811-2.477,1.811-3.685,0-1.29-.447-2.374-1.343-3.248-.896-.875-2.238-1.312-4.028-1.312-1.874,0-3.352.542-4.434,1.624-1.083,1.083-1.624,2.498-1.624,4.247v1.249h-11.116c-.042-.333-.062-.791-.062-1.374,0-4.497,1.571-8.045,4.715-10.648,3.143-2.602,7.713-3.903,13.708-3.903,3.373,0,6.297.531,8.775,1.593,2.477,1.062,4.392,2.571,5.745,4.527,1.353,1.958,2.029,4.227,2.029,6.807,0,2.416-.604,4.601-1.811,6.558-1.208,1.958-2.728,3.685-4.559,5.183-1.833,1.499-4.352,3.332-7.557,5.496-1.791,1.166-3.248,2.165-4.372,2.997h18.798v10.555Z"/>
</svg>