<?xml version="1.0" encoding="UTF-8"?>
<svg id="Layer_1" xmlns="http://www.w3.org/2000/svg" version="1.1" viewBox="0 0 64 64">
  <!-- Generator: Adobe Illustrator 30.3.0, SVG Export Plug-In . SVG Version: 2.1.3 Build 182)  -->
  <path d="M27.886,55.5c-.979.882-2.219,1.456-3.547,1.651l-2.382-1.003c-.551-.232-.756-.549-.756-1.155v-26.152c1.057.25,2.086.875,3.147.844,1.198-.036,2.333-.607,3.537-.88v26.695ZM10.44,25.273l-6.527-2.224v23.615c-.043.522.168,1.018.613,1.235.807.394,1.623.818,2.537.99.467.088,3.004-.824,3.377-1.606v-22.01ZM60.298,43.272v-23.484l-6.519,1.851v21.62c.115.864,2.507,1.812,3.312,1.777.739-.032,3.356-1.034,3.207-1.765ZM43,37.565v-12.913l-6.197,1.689v11.218c.238.348.607.619.991.765,2.351.897,1.614,1.026,3.792.239.595-.215,1.063-.491,1.415-.998ZM53.013,10.446l-13.044-3.597L3.225,15.64l21.093,6.975,36.383-9.911-7.688-2.258ZM62.717,13.798l-37.559,10.205c-.03,1.408-.036,2.715.028,4.015l37.532-10.483v-3.737ZM23.562,23.974L1.353,16.719c-.1,1.304-.086,2.501-.061,3.809l22.273,7.506c.051-1.585.05-2.79-.003-4.06Z"/>
</svg>