<?xml version="1.0" encoding="UTF-8"?>
<svg id="Layer_1" xmlns="http://www.w3.org/2000/svg" version="1.1" viewBox="0 0 64 64">
  <!-- Generator: Adobe Illustrator 30.3.0, SVG Export Plug-In . SVG Version: 2.1.3 Build 182)  -->
  <path d="M21.984,55.064c-3.44-.687-2.853-1.772-5.655-4.804-1.628-1.761-2.696-3.999-3.145-6.849-3.671-1.723-5.934-5.828-6.538-10.957-.637-5.407-2.353-9.652-5.973-13.234,4.96-.84,6.975-.698,8.781,4.303l1.521,4.212c.72,1.993,1.995,3.56,3.64,3.941,1.067-3.986,2.265-7.713,3.621-11.408.624-1.699,1.513-2.661,2.93-3.08,3.191-.945,6.465-1.434,9.613-2.607,1.426-.532-1.374-3.184-1.534-4.301-.437-3.067,7.53-3.194,8.172-.685.108.421-.167,1.243-.444,1.667l-1.133,1.737c-.138.211-.22,1.01-.094,1.237s.541.611.806.673l8.441,1.972c2.007.469,3.151,2.125,3.974,4.392l9.898.331c3.098.471,4.883,3.702,4.376,7.527-.465,3.506-1.913,6.514-3.792,9.079-1.735,2.369-3.683,4.212-5.947,5.754-.706,2.994-1.966,5.569-3.979,7.341-2.36,3.59-3.265,3.685-6.701,4.165-6.972.975-13.805.998-20.838-.407ZM59.254,26.421c-.301-.425-1.077-.998-1.6-.999h-7.292c1.442,4.709,2.695,8.706,3.251,13.542,3.243-2.417,7.31-10.186,5.641-12.543Z"/>
</svg>