<?xml version="1.0" encoding="UTF-8"?>
<svg id="Layer_1" xmlns="http://www.w3.org/2000/svg" version="1.1" viewBox="0 0 64 64">
  <!-- Generator: Adobe Illustrator 30.3.0, SVG Export Plug-In . SVG Version: 2.1.3 Build 182)  -->
  <path d="M2.035,34.576c4.134-3.149,7.703-6.587,11.46-9.941,2.529-2.258,5.797-2.043,8.136.172,1.659,1.572,3.271,3.075,4.777,4.797,3.109,3.554,6.765,6.519,11.369,7.761.95.256,1.782.467,2.453-.309.46-.532.69-1.683-.134-2.269-.737-.524-1.861-.693-2.75-1.002-2.948-1.022-5.312-2.949-7.613-5.167,2.319-1.376,3.927-3.033,5.551-4.972l5.729-6.845c1.062-1.683,2.836-2.525,4.666-2.618,1.917-.098,3.567.832,4.891,2.4,3.245,3.843,6.513,7.457,10.457,10.674.659.537,2.024,1.377,2.024,2.356v18.423c0,.895-1.234,1.789-2.192,1.789H3.023c-.999,0-1.825-1.368-2.073-2.043v-11.109c.05-.68.401-1.575,1.086-2.097Z"/>
</svg>