<?xml version="1.0" encoding="UTF-8"?>
<svg id="Layer_1" xmlns="http://www.w3.org/2000/svg" version="1.1" viewBox="0 0 64 64">
  <!-- Generator: Adobe Illustrator 30.3.0, SVG Export Plug-In . SVG Version: 2.1.3 Build 182)  -->
  <path d="M56.612,2h-17.295c0,4.041-3.276,7.317-7.317,7.317s-7.317-3.276-7.317-7.317H7.388c-2.976,0-5.388,2.412-5.388,5.388v49.223c0,2.976,2.412,5.388,5.388,5.388h49.223c2.976,0,5.388-2.413,5.388-5.388V7.388c0-2.976-2.413-5.388-5.388-5.388h0ZM51.671,46.968h-5.995v7.806h-11.866v-7.806H12.889v-9.305c2.248-3.248,4.475-7.182,6.682-11.804,2.206-4.622,3.976-9.221,5.308-13.802h12.24c-.291,2.166-1.291,4.861-2.997,8.087-1.708,3.227-3.737,6.454-6.089,9.68-2.353,3.227-4.549,5.881-6.588,7.962h12.365v-8.93c1.29-1.832,2.602-3.997,3.935-6.495,1.332-2.498,2.206-4.559,2.623-6.183h5.309v21.607h5.995v9.183Z"/>
</svg>