<?xml version="1.0" encoding="UTF-8"?>
<svg id="Layer_1" xmlns="http://www.w3.org/2000/svg" version="1.1" viewBox="0 0 64 64">
  <!-- Generator: Adobe Illustrator 30.3.0, SVG Export Plug-In . SVG Version: 2.1.3 Build 182)  -->
  <path d="M58.421,46.025c-8.345,11.637-23.898,15.096-37.289,11.048-5.185-1.567-9.744-4.512-13.347-8.357C-1.603,38.697-1.107,23.45,8.864,14.072,23.966-.131,51.72,3.336,60.517,21.452c3.901,8.033,3.035,17.419-2.096,24.574ZM42.38,29.417c-3.878-5.606-12.337-6.2-17.833-2.871-1.083.656-1.802,1.687-2.89,2.839-1.641-3.412-.794-7.572,2.545-9.566.623-.372.839-1.249.641-1.721-1-2.377-6.034,1.511-6.898,5.833-.647,3.239.21,6.266,2.312,8.613,5.73,6.399,17.832,6.335,23.381.263,2.173-2.378,3.14-5.41,2.492-8.741-.904-4.643-5.881-8.298-6.857-6.026-.285.663-.053,1.404.584,1.814,3.165,2.039,4.452,6.143,2.524,9.562Z"/>
</svg>