<?xml version="1.0" encoding="UTF-8"?>
<svg id="Layer_1" xmlns="http://www.w3.org/2000/svg" version="1.1" viewBox="0 0 64 64">
  <!-- Generator: Adobe Illustrator 30.3.0, SVG Export Plug-In . SVG Version: 2.1.3 Build 182)  -->
  <path d="M50.245,36.88c-2.551,3.61-5.98,6.467-10.095,8.063-9.813,3.805-20.426.476-26.381-8.059-2.788-.633-5.02-2.39-6.243-4.896-2.041-4.182-.969-9.139,2.702-12.055C12.102,9.206,21.602,1.445,32.579,1.696c10.512.24,19.345,7.799,21.204,18.168,1.466,1.092,2.511,2.531,3.126,4.277,1.887,5.355-.897,11.347-6.665,12.739ZM36.171,48.01c-2.737.498-5.486.584-8.316-.038l-.728,14.338h9.733l-.689-14.3Z"/>
</svg>