<?xml version="1.0" encoding="UTF-8"?>
<svg id="Layer_1" xmlns="http://www.w3.org/2000/svg" version="1.1" viewBox="0 0 64 64">
  <!-- Generator: Adobe Illustrator 30.3.0, SVG Export Plug-In . SVG Version: 2.1.3 Build 182)  -->
  <path d="M41.515,61.515c-8.418,1.894-21.124,1.65-27.37-4.214-.866-.813-1.065-1.918-1.067-3.101V15.578c8.43,5.912,21.939,6.021,31.47,3.18,2.325-.693,4.237-1.894,6.34-3.164v39.991c-1.053,3.138-5.909,5.15-9.373,5.93ZM51.007,9.005c-.295-3.861-7.62-6.291-11.938-7.008-7.585-1.26-19.195-.687-24.805,4.51-1.687,1.563-1.685,3.912-.127,5.394,6.632,6.311,21.739,6.487,30.042,3.455,3.066-1.12,7.055-3.379,6.827-6.352ZM22.402,11.187c-.796-.41-1.405-1.037-1.47-1.778-.07-.791.455-1.565,1.23-2.008,6.852-3.92,20.272-1.945,20.91,1.596.622,3.46-12.584,6.352-20.67,2.19Z"/>
</svg>