<?xml version="1.0" encoding="UTF-8"?>
<svg id="Layer_1" xmlns="http://www.w3.org/2000/svg" version="1.1" viewBox="0 0 64 64">
  <!-- Generator: Adobe Illustrator 30.3.0, SVG Export Plug-In . SVG Version: 2.1.3 Build 182)  -->
  <path d="M41.039,60.884c-6.497,1.23-12.996,1.185-19.303-.25-1.61-.366-3.406-.939-4.486-2.139-3.015-3.35-5.436-7.031-7.47-11.047-2.771-5.47-4.388-11.683-3.728-17.803.549-5.088,3.218-9.378,6.769-12.929.537-.537,1.419-1.275,1.329-2.079-.305-2.723-4.217-5.823-.343-8.526,6.488-4.527,20.339-4.426,28.337-3.007,3.638.646,10.375,2.728,9.704,6.147-.734,3.737-3.481,4.625-.869,7.345l1.883,1.961c7.584,8.832,6.08,20.01.847,29.805-2.031,3.802-4.397,7.375-7.389,10.486-1.243,1.293-3.46,1.691-5.28,2.035ZM46.194,9.381c.352-.142.818-.711.757-1.012-.053-.263-.489-.681-.812-.804-5.349-2.046-12.292-2.522-18.034-2.059-3.025.244-9.543,1.104-10.914,2.573-.134.143-.037.617.047.839,2.252,1.275,4.601,1.801,7.163,2.13,6.844.881,15.461.89,21.794-1.669Z"/>
</svg>